<svg width="23" height="22" viewBox="0 0 23 22" fill="none" xmlns="http://www.w3.org/2000/svg">
<path fill-rule="evenodd" clip-rule="evenodd" d="M6.69998 19.3787H3.39997C2.79277 19.3787 2.29998 18.9094 2.29998 18.3311C2.29998 17.7528 2.79277 17.2835 3.39997 17.2835H6.69998C7.30718 17.2835 7.79998 17.7528 7.79998 18.3311C7.79998 18.9094 7.30718 19.3787 6.69998 19.3787ZM7.79998 15.1882H2.29998C1.08448 15.1882 0.0999756 16.1258 0.0999756 17.2835V19.3787C0.0999756 20.5363 1.08448 21.4739 2.29998 21.4739H7.79998C9.01548 21.4739 9.99997 20.5363 9.99997 19.3787V17.2835C9.99997 16.1258 9.01548 15.1882 7.79998 15.1882ZM18.8 4.71202H15.5C14.8928 4.71202 14.4 4.24269 14.4 3.6644C14.4 3.08612 14.8928 2.61678 15.5 2.61678H18.8C19.4072 2.61678 19.9 3.08612 19.9 3.6644C19.9 4.24269 19.4072 4.71202 18.8 4.71202ZM19.9 0.521545H14.4C13.1845 0.521545 12.2 1.45916 12.2 2.61678V4.71202C12.2 5.86964 13.1845 6.80726 14.4 6.80726H19.9C21.1155 6.80726 22.1 5.86964 22.1 4.71202V2.61678C22.1 1.45916 21.1155 0.521545 19.9 0.521545ZM19.9 18.3311C19.9 18.9094 19.4072 19.3787 18.8 19.3787H15.5C14.8928 19.3787 14.4 18.9094 14.4 18.3311V12.0454C14.4 11.4671 14.8928 10.9977 15.5 10.9977H18.8C19.4072 10.9977 19.9 11.4671 19.9 12.0454V18.3311ZM19.9 8.9025H14.4C13.1845 8.9025 12.2 9.84012 12.2 10.9977V19.3787C12.2 20.5363 13.1845 21.4739 14.4 21.4739H19.9C21.1155 21.4739 22.1 20.5363 22.1 19.3787V10.9977C22.1 9.84012 21.1155 8.9025 19.9 8.9025ZM7.79998 9.95012C7.79998 10.5284 7.30718 10.9977 6.69998 10.9977H3.39997C2.79277 10.9977 2.29998 10.5284 2.29998 9.95012V3.6644C2.29998 3.08612 2.79277 2.61678 3.39997 2.61678H6.69998C7.30718 2.61678 7.79998 3.08612 7.79998 3.6644V9.95012ZM7.79998 0.521545H2.29998C1.08448 0.521545 0.0999756 1.45916 0.0999756 2.61678V10.9977C0.0999756 12.1554 1.08448 13.093 2.29998 13.093H7.79998C9.01548 13.093 9.99997 12.1554 9.99997 10.9977V2.61678C9.99997 1.45916 9.01548 0.521545 7.79998 0.521545Z" fill="white"/>
</svg>
