<svg width="29" height="21" viewBox="0 0 29 21" fill="none" xmlns="http://www.w3.org/2000/svg">
<g clip-path="url(#clip0_1865_13491)">
<path d="M23.6828 2.32982C22.0385 1.56784 20.2873 1.00638 18.4425 0.685547C18.2152 1.08659 17.9479 1.63468 17.7741 2.07582C15.8224 1.78173 13.884 1.78173 11.9724 2.07582C11.7852 1.63468 11.5179 1.08659 11.2906 0.685547C9.44581 1.00638 7.69459 1.56784 6.05032 2.32982C2.73505 7.32947 1.83939 12.2089 2.28053 17.008C4.48626 18.6523 6.61178 19.6415 8.71057 20.2965C9.23192 19.588 9.68643 18.826 10.0875 18.0373C9.3255 17.7566 8.60362 17.3957 7.92185 16.9812C8.109 16.8476 8.28279 16.7005 8.45657 16.5668C12.6408 18.5186 17.1725 18.5186 21.3033 16.5668C21.477 16.7139 21.6508 16.8476 21.838 16.9812C21.1562 17.3957 20.421 17.7432 19.6724 18.0373C20.0734 18.826 20.5279 19.588 21.0493 20.2965C23.1481 19.6415 25.2869 18.6523 27.4793 17.008C28.0007 11.4335 26.5836 6.60759 23.7095 2.32982H23.6828ZM10.6489 14.067C9.39234 14.067 8.363 12.904 8.363 11.4736C8.363 10.0432 9.3656 8.8802 10.6489 8.8802C11.9323 8.8802 12.9482 10.0432 12.9349 11.4736C12.9349 12.8906 11.9323 14.067 10.6489 14.067ZM19.0842 14.067C17.8276 14.067 16.7982 12.904 16.7982 11.4736C16.7982 10.0432 17.8008 8.8802 19.0842 8.8802C20.3675 8.8802 21.3835 10.0432 21.3701 11.4736C21.3701 12.8906 20.3675 14.067 19.0842 14.067Z" fill="black"/>
</g>
<defs>
<clipPath id="clip0_1865_13491">
<rect width="28.875" height="21" fill="white"/>
</clipPath>
</defs>
</svg>
