<svg width="18" height="19" viewBox="0 0 18 19" fill="none" xmlns="http://www.w3.org/2000/svg">
<path d="M3.75 3.75H14.25C14.8088 3.75 15.127 3.75193 15.3506 3.78223C15.392 3.78785 15.4225 3.79665 15.4453 3.80176C15.4509 3.82596 15.4616 3.85896 15.4678 3.90527C15.4981 4.13249 15.5 4.4551 15.5 5.01758V5.57324C15.5 6.01014 15.4991 6.26763 15.4805 6.46094C15.464 6.6318 15.4393 6.6735 15.4336 6.68359C15.4284 6.69291 15.407 6.73504 15.2705 6.83691C15.1163 6.95193 14.8983 7.08466 14.5264 7.30957L12.3418 8.63086C11.9081 8.89299 11.556 9.0996 11.29 9.34766C10.8458 9.76188 10.5431 10.2533 10.3799 10.8252L10.3184 11.0752C10.2446 11.4304 10.25 11.8253 10.25 12.3145V14.4648C10.25 15.2664 10.2476 15.7551 10.1982 16.0918C10.1888 16.156 10.1768 16.2042 10.168 16.2402C10.1332 16.2346 10.0873 16.2267 10.0293 16.2119C9.70368 16.1288 9.25637 15.9443 8.52148 15.6357C8.16592 15.4864 7.97348 15.4036 7.84082 15.3301C7.81201 15.3141 7.79288 15.3001 7.7793 15.291C7.77614 15.2745 7.77115 15.2508 7.76758 15.2178C7.75108 15.0649 7.75 14.8527 7.75 14.4648V12.3145C7.75 11.8252 7.75538 11.4303 7.68164 11.0752C7.5405 10.3953 7.21764 9.82107 6.70996 9.34766C6.444 9.09966 6.09179 8.89298 5.6582 8.63086L3.47363 7.30957C3.10166 7.08466 2.88365 6.95193 2.72949 6.83691C2.59297 6.73504 2.57165 6.69293 2.56641 6.68359C2.56071 6.6735 2.53601 6.6318 2.51953 6.46094C2.50089 6.26763 2.5 6.01014 2.5 5.57324V5.01758C2.5 4.4551 2.50191 4.13248 2.53223 3.90527C2.5384 3.85909 2.54815 3.82594 2.55371 3.80176C2.5766 3.7966 2.60739 3.78793 2.64941 3.78223C2.87303 3.75193 3.19119 3.75 3.75 3.75Z" stroke="black" stroke-opacity="0.83" stroke-width="2"/>
</svg>
