<svg width="22" height="22" viewBox="0 0 22 22" fill="none" xmlns="http://www.w3.org/2000/svg">
<path d="M11.0008 0C8.01335 0 7.63843 0.0130628 6.46509 0.0664592C5.29403 0.120085 4.49469 0.305482 3.79527 0.577506C3.07178 0.858467 2.45807 1.2343 1.84664 1.84596C1.23476 2.45738 0.858926 3.07109 0.577048 3.79435C0.304336 4.494 0.11871 5.29358 0.0660007 6.46417C0.0137502 7.63752 0 8.01267 0 11.0001C0 13.9876 0.013292 14.3613 0.0664592 15.5347C0.120314 16.7057 0.305712 17.5051 0.577506 18.2045C0.858697 18.928 1.23453 19.5417 1.84619 20.1531C2.45738 20.765 3.07109 21.1418 3.79412 21.4227C4.49401 21.6947 5.29358 21.8801 6.4644 21.9338C7.63775 21.9872 8.01244 22.0002 10.9997 22.0002C13.9873 22.0002 14.3611 21.9872 15.5345 21.9338C16.7055 21.8801 17.5058 21.6947 18.2057 21.4227C18.9289 21.1418 19.5417 20.765 20.1529 20.1531C20.7648 19.5417 21.1406 18.928 21.4225 18.2047C21.6929 17.5051 21.8785 16.7055 21.9335 15.5349C21.9862 14.3616 22 13.9876 22 11.0001C22 8.01267 21.9862 7.63775 21.9335 6.4644C21.8785 5.29335 21.6929 4.494 21.4225 3.79458C21.1406 3.07109 20.7648 2.45738 20.1529 1.84596C19.541 1.23408 18.9291 0.858238 18.205 0.577506C17.5037 0.305482 16.7039 0.120085 15.5329 0.0664592C14.3595 0.0130628 13.986 0 10.9976 0H11.0008ZM10.014 1.98231C10.3069 1.98185 10.6337 1.98231 11.0008 1.98231C13.9378 1.98231 14.2859 1.99285 15.4458 2.04556C16.5183 2.09461 17.1004 2.27382 17.4881 2.42438C18.0015 2.62376 18.3674 2.86209 18.7522 3.2471C19.1372 3.6321 19.3756 3.99877 19.5754 4.51211C19.726 4.89941 19.9054 5.48149 19.9542 6.55401C20.0069 7.7136 20.0184 8.06194 20.0184 10.9976C20.0184 13.9332 20.0069 14.2816 19.9542 15.4412C19.9052 16.5137 19.726 17.0958 19.5754 17.4831C19.376 17.9964 19.1372 18.3619 18.7522 18.7467C18.3672 19.1317 18.0017 19.3701 17.4881 19.5694C17.1008 19.7207 16.5183 19.8994 15.4458 19.9485C14.2862 20.0012 13.9378 20.0126 11.0008 20.0126C8.06354 20.0126 7.71543 20.0012 6.55584 19.9485C5.48333 19.899 4.90124 19.7198 4.51326 19.5692C3.99992 19.3698 3.63325 19.1315 3.24824 18.7465C2.86324 18.3615 2.6249 17.9957 2.42507 17.4822C2.2745 17.0949 2.09506 16.5128 2.04625 15.4403C1.99354 14.2807 1.983 13.9323 1.983 10.9948C1.983 8.05735 1.99354 7.71085 2.04625 6.55126C2.09529 5.47874 2.2745 4.89665 2.42507 4.5089C2.62444 3.99556 2.86324 3.62889 3.24824 3.24389C3.63325 2.85888 3.99992 2.62055 4.51326 2.42071C4.90101 2.26946 5.48333 2.09071 6.55584 2.04144C7.5706 1.9956 7.96385 1.98185 10.014 1.97956V1.98231ZM16.8726 3.80879C16.6115 3.80879 16.3562 3.88622 16.1392 4.03128C15.9221 4.17635 15.7529 4.38253 15.653 4.62376C15.5531 4.86499 15.527 5.13042 15.578 5.38649C15.6289 5.64256 15.7547 5.87777 15.9393 6.06236C16.124 6.24695 16.3592 6.37263 16.6153 6.42351C16.8714 6.47439 17.1368 6.44818 17.378 6.34821C17.6192 6.24823 17.8254 6.07897 17.9703 5.86183C18.1153 5.64469 18.1927 5.38944 18.1926 5.12834C18.1926 4.39959 17.6013 3.80833 16.8726 3.80833V3.80879ZM11.0008 5.3511C7.88112 5.3511 5.35179 7.88044 5.35179 11.0001C5.35179 14.1198 7.88112 16.648 11.0008 16.648C14.1205 16.648 16.6491 14.1198 16.6491 11.0001C16.6491 7.88044 14.1203 5.3511 11.0006 5.3511H11.0008ZM11.0008 7.33341C13.0257 7.33341 14.6675 8.97495 14.6675 11.0001C14.6675 13.0251 13.0257 14.6668 11.0008 14.6668C8.97564 14.6668 7.3341 13.0251 7.3341 11.0001C7.3341 8.97495 8.97564 7.33341 11.0008 7.33341Z" fill="black"/>
</svg>
