<svg width="16" height="15" viewBox="0 0 16 15" fill="none" xmlns="http://www.w3.org/2000/svg">
<path d="M5.86493 2.55628C6.81491 0.852098 7.28989 0 8.00006 0C8.71024 0 9.18521 0.85209 10.1352 2.55628L10.3809 2.99717C10.6509 3.48145 10.7859 3.72359 10.9964 3.88336C11.2068 4.04312 11.4689 4.10243 11.9931 4.22104L12.4704 4.32902C14.3151 4.74642 15.2376 4.95512 15.457 5.6608C15.6765 6.36645 15.0477 7.10183 13.79 8.57242L13.4646 8.9529C13.1073 9.3708 12.9285 9.57975 12.8481 9.83827C12.7678 10.0968 12.7948 10.3756 12.8488 10.9332L12.898 11.4408C13.0881 13.403 13.1832 14.384 12.6087 14.8202C12.0342 15.2563 11.1705 14.8586 9.44329 14.0634L8.99644 13.8576C8.50564 13.6316 8.26024 13.5186 8.00006 13.5186C7.73989 13.5186 7.49449 13.6316 7.00369 13.8576L6.55684 14.0634C4.82957 14.8586 3.96595 15.2563 3.39143 14.8202C2.8169 14.384 2.91197 13.403 3.10211 11.4408L3.1513 10.9332C3.20533 10.3756 3.23235 10.0968 3.15196 9.83827C3.07157 9.57975 2.89288 9.3708 2.5355 8.9529L2.21014 8.57242C0.9525 7.10183 0.323677 6.36645 0.543127 5.6608C0.762578 4.95512 1.68496 4.74642 3.52972 4.32902L4.00698 4.22104C4.5312 4.10243 4.79331 4.04312 5.00377 3.88336C5.21422 3.72359 5.34921 3.48146 5.61916 2.99717L5.86493 2.55628Z" fill="#FFD22F"/>
</svg>
