<svg width="22" height="22" viewBox="0 0 22 22" fill="none" xmlns="http://www.w3.org/2000/svg">
<path d="M14.6915 7.06032C16.1066 8.07515 17.8395 8.6723 19.7112 8.6723V5.82691C18.6665 5.60357 17.7416 5.05564 17.0461 4.29352C15.8558 3.54808 14.9982 2.31829 14.7467 0.878906H12.1227V15.317C12.1167 17.0002 10.7556 18.3631 9.0771 18.3631C8.08797 18.3631 7.20923 17.8899 6.6527 17.1569C5.65891 16.6536 4.97741 15.6201 4.97741 14.4267C4.97741 12.7389 6.34079 11.3704 8.02292 11.3704C8.34521 11.3704 8.65585 11.4208 8.94723 11.5135V8.63704C5.33489 8.71194 2.42969 11.6741 2.42969 15.3171C2.42969 17.1356 3.15315 18.7842 4.32734 19.9888C5.38662 20.7026 6.6618 21.1189 8.03375 21.1189C11.7108 21.1189 14.6916 18.1274 14.6916 14.4372V7.06032H14.6915Z" fill="black"/>
<path d="M19.7107 5.82798V5.05861C18.7685 5.06005 17.8449 4.79526 17.0456 4.29452C17.7532 5.07198 18.6849 5.60805 19.7107 5.82798ZM14.7461 0.879985C14.7222 0.742419 14.7037 0.603947 14.6909 0.464946V0H11.0679V14.4382C11.0621 16.1212 9.70101 17.4841 8.02233 17.4841C7.5295 17.4841 7.06419 17.3667 6.65211 17.1581C7.20864 17.891 8.08738 18.3641 9.07651 18.3641C10.7549 18.3641 12.1162 17.0013 12.1221 15.3182V0.879985H14.7461ZM8.94679 8.63812V7.81907C8.64405 7.77754 8.33883 7.7567 8.03324 7.75685C4.35592 7.75678 1.375 10.7483 1.375 14.4382C1.375 16.7517 2.54656 18.7905 4.32682 19.9897C3.15264 18.7852 2.42917 17.1366 2.42917 15.3181C2.42917 11.6751 5.3343 8.71302 8.94679 8.63812Z" fill="black"/>
</svg>
