<svg width="20" height="21" viewBox="0 0 20 21" fill="none" xmlns="http://www.w3.org/2000/svg">
<path fill-rule="evenodd" clip-rule="evenodd" d="M7.99367 3.16685C7.79074 3.33979 7.68927 3.42628 7.58089 3.49891C7.33247 3.66541 7.05348 3.78097 6.76009 3.83889C6.6321 3.86417 6.4992 3.87477 6.23341 3.89598C5.56559 3.94928 5.23167 3.97592 4.9531 4.07432C4.30877 4.3019 3.80195 4.80872 3.57437 5.45305C3.47597 5.73163 3.44932 6.06554 3.39602 6.73336C3.37482 6.99915 3.36422 7.13205 3.33894 7.26004C3.28102 7.55344 3.16546 7.83243 2.99896 8.08084C2.92632 8.18922 2.83985 8.29069 2.6669 8.49363C2.23237 9.00354 2.01509 9.25846 1.88769 9.52504C1.593 10.1416 1.593 10.8583 1.88769 11.4749C2.0151 11.7415 2.23237 11.9964 2.6669 12.5063C2.83982 12.7092 2.92632 12.8107 2.99896 12.919C3.16546 13.1675 3.28102 13.4465 3.33894 13.7399C3.36422 13.8679 3.37482 14.0008 3.39602 14.2665C3.44932 14.9344 3.47597 15.2683 3.57437 15.5469C3.80195 16.1912 4.30877 16.698 4.9531 16.9256C5.23167 17.024 5.56559 17.0506 6.23341 17.104C6.4992 17.1251 6.6321 17.1358 6.76009 17.161C7.05348 17.219 7.33247 17.3345 7.58089 17.501C7.68927 17.5736 7.79073 17.6601 7.99367 17.833C8.50359 18.2676 8.75851 18.4849 9.02509 18.6123C9.64167 18.907 10.3583 18.907 10.9749 18.6123C11.2415 18.4849 11.4964 18.2676 12.0063 17.833C12.2093 17.6601 12.3108 17.5736 12.4191 17.501C12.6675 17.3345 12.9465 17.219 13.2399 17.161C13.3679 17.1358 13.5008 17.1251 13.7666 17.104C14.4344 17.0506 14.7683 17.024 15.0469 16.9256C15.6913 16.698 16.1981 16.1912 16.4257 15.5469C16.524 15.2683 16.5507 14.9344 16.604 14.2665C16.6252 14.0008 16.6358 13.8679 16.6611 13.7399C16.719 13.4465 16.8346 13.1675 17.0011 12.919C17.0737 12.8107 17.1602 12.7092 17.3331 12.5063C17.7677 11.9964 17.9849 11.7415 18.1123 11.4749C18.407 10.8583 18.407 10.1416 18.1123 9.52504C17.9849 9.25846 17.7677 9.00354 17.3331 8.49363C17.1602 8.29069 17.0737 8.18922 17.0011 8.08084C16.8346 7.83243 16.719 7.55344 16.6611 7.26004C16.6358 7.13205 16.6252 6.99915 16.604 6.73336C16.5507 6.06554 16.524 5.73163 16.4257 5.45305C16.1981 4.80872 15.6913 4.3019 15.0469 4.07432C14.7683 3.97592 14.4344 3.94928 13.7666 3.89598C13.5008 3.87477 13.3679 3.86417 13.2399 3.83889C12.9465 3.78097 12.6675 3.66541 12.4191 3.49891C12.3108 3.42628 12.2093 3.3398 12.0063 3.16685C11.4964 2.73232 11.2415 2.51505 10.9749 2.38764C10.3583 2.09295 9.64167 2.09295 9.02509 2.38764C8.75851 2.51504 8.50359 2.73232 7.99367 3.16685ZM13.6446 8.71924C13.9094 8.45438 13.9094 8.02496 13.6446 7.76009C13.3798 7.49524 12.9503 7.49524 12.6854 7.76009L8.64359 11.802L7.31456 10.473C7.0497 10.2081 6.62027 10.2081 6.35542 10.473C6.09056 10.7378 6.09056 11.1672 6.35542 11.4321L8.16399 13.2407C8.42884 13.5055 8.85826 13.5055 9.12317 13.2407L13.6446 8.71924Z" fill="#00D540"/>
</svg>
