<svg width="14" height="23" viewBox="0 0 14 23" fill="none" xmlns="http://www.w3.org/2000/svg">
<path d="M5.88088 20.132C4.66754 20.0946 3.58488 19.9826 2.63288 19.796C1.68088 19.5906 0.812875 19.3106 0.0288751 18.956V15.344C0.794208 15.7173 1.71821 16.0626 2.80088 16.38C3.88354 16.6786 4.91021 16.856 5.88088 16.912V12.684C4.79821 12.2546 3.87421 11.844 3.10888 11.452C2.36221 11.06 1.75554 10.6493 1.28888 10.22C0.840875 9.77195 0.514208 9.28662 0.308875 8.76395C0.103542 8.22262 0.000875041 7.60662 0.000875041 6.91595C0.000875041 5.98262 0.243542 5.17995 0.728875 4.50795C1.23288 3.81729 1.92354 3.26662 2.80088 2.85595C3.69688 2.44529 4.72354 2.19329 5.88088 2.09995V-4.86374e-05H7.75688V2.04395C8.80221 2.08129 9.78221 2.20262 10.6969 2.40795C11.6302 2.61328 12.5355 2.91195 13.4129 3.30395L12.1249 6.49595C11.3782 6.17862 10.6222 5.93595 9.85688 5.76795C9.11021 5.59995 8.41021 5.48795 7.75688 5.43195V9.46395C8.76488 9.83729 9.72621 10.248 10.6409 10.696C11.5555 11.1253 12.2929 11.676 12.8529 12.348C13.4315 13.02 13.7209 13.9066 13.7209 15.008C13.7209 16.3706 13.2262 17.5093 12.2369 18.424C11.2475 19.3386 9.75421 19.8893 7.75688 20.076V22.876H5.88088V20.132ZM7.75688 16.828C8.39154 16.716 8.85821 16.5293 9.15688 16.268C9.45554 15.988 9.60488 15.6333 9.60488 15.204C9.60488 14.9426 9.53021 14.7186 9.38088 14.532C9.25021 14.3266 9.04488 14.14 8.76488 13.972C8.50354 13.7853 8.16754 13.5986 7.75688 13.412V16.828ZM5.88088 5.48795C5.50754 5.54395 5.19021 5.63729 4.92888 5.76795C4.66754 5.87995 4.46221 6.03862 4.31288 6.24395C4.18221 6.43062 4.11688 6.65462 4.11688 6.91595C4.11688 7.17729 4.17288 7.41062 4.28488 7.61595C4.41554 7.80262 4.61154 7.98929 4.87288 8.17595C5.13421 8.34395 5.47021 8.52129 5.88088 8.70795V5.48795Z" fill="#00D540"/>
</svg>
