<svg width="16" height="16" viewBox="0 0 16 16" fill="none" xmlns="http://www.w3.org/2000/svg">
<g clip-path="url(#clip0_1710_12141)">
<path d="M13.8921 3.07455C13.5516 2.73389 13.1473 2.46365 12.7023 2.27927C12.2574 2.0949 11.7804 2 11.2988 2C10.8171 2 10.3402 2.0949 9.89521 2.27927C9.45023 2.46365 9.04595 2.73389 8.70544 3.07455L7.99878 3.78122L7.29211 3.07455C6.60432 2.38676 5.67147 2.00036 4.69878 2.00036C3.72609 2.00036 2.79324 2.38676 2.10544 3.07455C1.41765 3.76235 1.03125 4.69519 1.03125 5.66788C1.03125 6.64057 1.41765 7.57342 2.10544 8.26122L2.81211 8.96788L7.99878 14.1545L13.1854 8.96788L13.8921 8.26122C14.2328 7.92071 14.503 7.51643 14.6874 7.07145C14.8718 6.62648 14.9667 6.14954 14.9667 5.66788C14.9667 5.18623 14.8718 4.70929 14.6874 4.26431C14.503 3.81934 14.2328 3.41505 13.8921 3.07455Z" stroke="#EB1654" stroke-width="1.71429" stroke-linecap="round" stroke-linejoin="round"/>
</g>
<defs>
<clipPath id="clip0_1710_12141">
<rect width="16" height="16" fill="white"/>
</clipPath>
</defs>
</svg>
