<svg width="16" height="16" viewBox="0 0 16 16" fill="none" xmlns="http://www.w3.org/2000/svg">
<g opacity="0.65">
<path d="M2.55859 6.65616H13.6828M5.03064 2.33008V3.5661M11.2108 2.33008V3.5661M4.53623 13.4543H11.7052C12.3974 13.4543 12.7436 13.4543 13.0079 13.3196C13.2405 13.2011 13.4296 13.012 13.5481 12.7794C13.6828 12.515 13.6828 12.1689 13.6828 11.4767V5.54374C13.6828 4.8515 13.6828 4.50538 13.5481 4.24098C13.4296 4.00841 13.2405 3.81932 13.0079 3.70082C12.7436 3.5661 12.3974 3.5661 11.7052 3.5661H4.53623C3.844 3.5661 3.49787 3.5661 3.23348 3.70082C3.0009 3.81932 2.81181 4.00841 2.69331 4.24098C2.55859 4.50538 2.55859 4.8515 2.55859 5.54374V11.4767C2.55859 12.1689 2.55859 12.515 2.69331 12.7794C2.81181 13.012 3.0009 13.2011 3.23348 13.3196C3.49787 13.4543 3.84399 13.4543 4.53623 13.4543Z" stroke="black" stroke-width="1.2385" stroke-linecap="round" stroke-linejoin="round"/>
</g>
</svg>
