<svg width="21" height="20" viewBox="0 0 21 20" fill="none" xmlns="http://www.w3.org/2000/svg">
<g opacity="0.73" clip-path="url(#clip0_736_13548)">
<path d="M12.9961 14.3654L11.1354 12.5203C10.2375 11.6298 9.78853 11.1846 9.2734 11.0219C8.82029 10.8788 8.33327 10.884 7.88337 11.0369C7.37181 11.2108 6.9326 11.6656 6.0542 12.5752L1.59606 16.9786M12.9961 14.3654L13.3769 13.9878C14.2759 13.0963 14.7253 12.6506 15.2411 12.4878C15.6947 12.3447 16.182 12.3504 16.6323 12.5039C17.144 12.6784 17.5832 13.1344 18.4614 14.0463L19.3946 14.9855M12.9961 14.3654L17.4704 18.8486M1.59606 16.9786C1.63067 17.2597 1.68961 17.4819 1.79004 17.679C2.00392 18.0987 2.34522 18.4401 2.76501 18.6539C3.24223 18.8971 3.86696 18.8971 5.11643 18.8971H15.8251C16.555 18.8971 17.0718 18.8971 17.4704 18.8486M1.59606 16.9786C1.54687 16.5792 1.54688 16.061 1.54688 15.3275V4.61887C1.54688 3.36941 1.54687 2.74468 1.79004 2.26745C2.00392 1.84766 2.34522 1.50636 2.76501 1.29248C3.24223 1.04932 3.86696 1.04932 5.11643 1.04932H15.8251C17.0745 1.04932 17.6993 1.04932 18.1765 1.29248C18.5963 1.50636 18.9376 1.84766 19.1515 2.26745C19.3946 2.74468 19.3946 3.36941 19.3946 4.61887V14.9855M19.3946 14.9855V15.3275C19.3946 16.577 19.3946 17.2018 19.1515 17.679C18.9376 18.0987 18.5963 18.4401 18.1765 18.6539C17.9781 18.7551 17.7541 18.8141 17.4704 18.8486M16.0482 6.62662C16.0482 7.8588 15.0494 8.8576 13.8172 8.8576C12.5851 8.8576 11.5862 7.8588 11.5862 6.62662C11.5862 5.39449 12.5851 4.39565 13.8172 4.39565C15.0494 4.39565 16.0482 5.39449 16.0482 6.62662Z" stroke="#0F0731" stroke-width="1.57948" stroke-linecap="round" stroke-linejoin="round"/>
</g>
<defs>
<clipPath id="clip0_736_13548">
<rect width="20" height="20" fill="white" transform="translate(0.5)"/>
</clipPath>
</defs>
</svg>
