<svg width="19" height="18" viewBox="0 0 19 18" fill="none" xmlns="http://www.w3.org/2000/svg">
<path fill-rule="evenodd" clip-rule="evenodd" d="M18.2939 2.61654C18.0324 0.706738 15.8986 0.0946628 14.5036 1.094C13.3991 1.88523 11.9779 2.83603 10.5773 3.5855C9.13735 4.356 7.86144 4.83405 7.0026 4.83405H2.83594C1.45523 4.83405 0.335938 5.95333 0.335938 7.33405V9.83406C0.335938 11.1536 1.35825 12.2344 2.65406 12.3276L2.31625 14.0166C2.0633 15.2813 2.81398 16.5308 4.04933 16.9015L5.06005 17.2046C6.44341 17.6196 7.8896 16.7796 8.21444 15.3722L8.81719 12.7603C9.35927 12.9693 9.95285 13.2485 10.5773 13.5826C11.9779 14.3321 13.3991 15.2829 14.5036 16.0741C15.8986 17.0734 18.0324 16.4613 18.2939 14.5516C18.4895 13.1222 18.6693 11.1194 18.6693 8.58406C18.6693 6.04872 18.4895 4.04586 18.2939 2.61654ZM15.4742 2.44889C15.7352 2.26194 16.0233 2.2445 16.2408 2.32571C16.4473 2.4028 16.6053 2.57042 16.6426 2.84263C16.8285 4.20038 17.0026 6.12766 17.0026 8.58406C17.0026 11.0404 16.8285 12.9677 16.6426 14.3255C16.6053 14.5976 16.4473 14.7653 16.2408 14.8424C16.0233 14.9236 15.7352 14.9061 15.4742 14.7192C14.3421 13.9082 12.8548 12.9111 11.3636 12.1131C9.91177 11.3362 8.31294 10.6674 7.0026 10.6674H2.83594C2.3757 10.6674 2.0026 10.2943 2.0026 9.83406V7.33405C2.0026 6.8738 2.3757 6.50071 2.83594 6.50071H7.0026C8.31294 6.50071 9.91177 5.8319 11.3636 5.055C12.8548 4.25706 14.3421 3.25989 15.4742 2.44889ZM7.2032 12.3421C7.13405 12.3367 7.06715 12.3341 7.0026 12.3341H4.35243L3.95055 14.3435C3.86624 14.765 4.11646 15.1816 4.52825 15.3051L5.53896 15.6083C6.00009 15.7466 6.48216 15.4666 6.59041 14.9975L7.2032 12.3421Z" fill="#111827"/>
</svg>
