<svg width="19" height="18" viewBox="0 0 19 18" fill="none" xmlns="http://www.w3.org/2000/svg">
<path d="M13.25 15.75V14.25C13.25 13.4544 12.9339 12.6913 12.3713 12.1287C11.8087 11.5661 11.0456 11.25 10.25 11.25H4.25C3.45435 11.25 2.69129 11.5661 2.12868 12.1287C1.56607 12.6913 1.25 13.4544 1.25 14.25V15.75" stroke="white" stroke-width="1.35" stroke-linecap="round" stroke-linejoin="round"/>
<path d="M7.25 8.25C8.90685 8.25 10.25 6.90685 10.25 5.25C10.25 3.59315 8.90685 2.25 7.25 2.25C5.59315 2.25 4.25 3.59315 4.25 5.25C4.25 6.90685 5.59315 8.25 7.25 8.25Z" stroke="white" stroke-width="1.35" stroke-linecap="round" stroke-linejoin="round"/>
<path d="M17.75 15.7502V14.2502C17.7495 13.5855 17.5283 12.9397 17.121 12.4144C16.7138 11.889 16.1436 11.5138 15.5 11.3477" stroke="white" stroke-width="1.35" stroke-linecap="round" stroke-linejoin="round"/>
<path d="M12.5 2.34766C13.1453 2.51288 13.7173 2.88818 14.1257 3.41439C14.5342 3.9406 14.7559 4.58778 14.7559 5.25391C14.7559 5.92003 14.5342 6.56722 14.1257 7.09342C13.7173 7.61963 13.1453 7.99493 12.5 8.16016" stroke="white" stroke-width="1.35" stroke-linecap="round" stroke-linejoin="round"/>
</svg>
