<svg width="20" height="20" viewBox="0 0 20 20" fill="none" xmlns="http://www.w3.org/2000/svg">
<g clip-path="url(#clip0_1352_13461)">
<path d="M4.16406 8.33366H5.83073C7.4974 8.33366 8.33073 7.50033 8.33073 5.83366V4.16699C8.33073 2.50033 7.4974 1.66699 5.83073 1.66699H4.16406C2.4974 1.66699 1.66406 2.50033 1.66406 4.16699V5.83366C1.66406 7.50033 2.4974 8.33366 4.16406 8.33366Z" stroke="#292D32" stroke-width="1.5" stroke-miterlimit="10" stroke-linecap="round" stroke-linejoin="round"/>
<path d="M14.1641 8.33366H15.8307C17.4974 8.33366 18.3307 7.50033 18.3307 5.83366V4.16699C18.3307 2.50033 17.4974 1.66699 15.8307 1.66699H14.1641C12.4974 1.66699 11.6641 2.50033 11.6641 4.16699V5.83366C11.6641 7.50033 12.4974 8.33366 14.1641 8.33366Z" stroke="#292D32" stroke-width="1.5" stroke-miterlimit="10" stroke-linecap="round" stroke-linejoin="round"/>
<path d="M14.1641 18.3337H15.8307C17.4974 18.3337 18.3307 17.5003 18.3307 15.8337V14.167C18.3307 12.5003 17.4974 11.667 15.8307 11.667H14.1641C12.4974 11.667 11.6641 12.5003 11.6641 14.167V15.8337C11.6641 17.5003 12.4974 18.3337 14.1641 18.3337Z" stroke="#292D32" stroke-width="1.5" stroke-miterlimit="10" stroke-linecap="round" stroke-linejoin="round"/>
<path d="M4.16406 18.3337H5.83073C7.4974 18.3337 8.33073 17.5003 8.33073 15.8337V14.167C8.33073 12.5003 7.4974 11.667 5.83073 11.667H4.16406C2.4974 11.667 1.66406 12.5003 1.66406 14.167V15.8337C1.66406 17.5003 2.4974 18.3337 4.16406 18.3337Z" stroke="#292D32" stroke-width="1.5" stroke-miterlimit="10" stroke-linecap="round" stroke-linejoin="round"/>
</g>
<defs>
<clipPath id="clip0_1352_13461">
<rect width="20" height="20" fill="white"/>
</clipPath>
</defs>
</svg>
