<svg width="20" height="20" viewBox="0 0 20 20" fill="none" xmlns="http://www.w3.org/2000/svg">
<path d="M17.3726 14.5L16.6851 13.4375C15.4976 11.6875 14.8726 9.625 14.8726 7.5C14.8726 5.25 13.3726 3.4375 11.3726 2.8125C11.1851 2.25 10.6226 1.875 9.9976 1.875C9.3726 1.875 8.8101 2.25 8.6226 2.8125C6.6226 3.4375 5.1226 5.25 5.1226 7.5C5.1226 9.625 4.4976 11.6875 3.3101 13.4375L2.6226 14.5C2.3101 15 2.6226 15.625 3.2476 15.625H16.7476C17.3726 15.625 17.6851 15 17.3726 14.5Z" stroke="black" stroke-width="1.5" stroke-miterlimit="10" stroke-linecap="round" stroke-linejoin="round"/>
<path d="M12.5 15.625C12.5 17 11.375 18.125 10 18.125C8.625 18.125 7.5 17 7.5 15.625" stroke="black" stroke-width="1.5" stroke-miterlimit="10" stroke-linecap="round" stroke-linejoin="round"/>
</svg>
