<svg width="20" height="20" viewBox="0 0 20 20" fill="none" xmlns="http://www.w3.org/2000/svg">
<g clip-path="url(#clip0_1326_10978)">
<path fill-rule="evenodd" clip-rule="evenodd" d="M13.3307 7.5013C13.3307 8.38536 12.9795 9.2332 12.3544 9.85832C11.7293 10.4834 10.8815 10.8346 9.9974 10.8346C9.11334 10.8346 8.26549 10.4834 7.64037 9.85832C7.01525 9.2332 6.66406 8.38536 6.66406 7.5013C6.66406 6.61725 7.01525 5.7694 7.64037 5.14428C8.26549 4.51916 9.11334 4.16797 9.9974 4.16797C10.8815 4.16797 11.7293 4.51916 12.3544 5.14428C12.9795 5.7694 13.3307 6.61725 13.3307 7.5013ZM11.6641 7.5013C11.6641 7.94333 11.4885 8.36725 11.1759 8.67981C10.8633 8.99237 10.4394 9.16797 9.9974 9.16797C9.55537 9.16797 9.13145 8.99237 8.81888 8.67981C8.50632 8.36725 8.33073 7.94333 8.33073 7.5013C8.33073 7.05927 8.50632 6.63535 8.81888 6.32279C9.13145 6.01023 9.55537 5.83464 9.9974 5.83464C10.4394 5.83464 10.8633 6.01023 11.1759 6.32279C11.4885 6.63535 11.6641 7.05927 11.6641 7.5013Z" fill="#111827" fill-opacity="0.86"/>
<path fill-rule="evenodd" clip-rule="evenodd" d="M9.99479 0.833984C4.93229 0.833984 0.828125 4.93815 0.828125 10.0007C0.828125 15.0632 4.93229 19.1673 9.99479 19.1673C15.0573 19.1673 19.1615 15.0632 19.1615 10.0007C19.1615 4.93815 15.0573 0.833984 9.99479 0.833984ZM2.49479 10.0007C2.49479 11.7423 3.08896 13.3457 4.08479 14.619C4.78433 13.7008 5.68659 12.9566 6.72116 12.4446C7.75573 11.9326 8.89462 11.6666 10.049 11.6673C11.1884 11.666 12.3132 11.9249 13.3374 12.4243C14.3616 12.9237 15.2583 13.6504 15.959 14.549C16.681 13.602 17.1672 12.4967 17.3772 11.3245C17.5873 10.1523 17.5152 8.94693 17.1669 7.80814C16.8186 6.66935 16.2041 5.62986 15.3744 4.77568C14.5446 3.92151 13.5233 3.2772 12.3951 2.89608C11.2669 2.51495 10.0641 2.40796 8.88634 2.58396C7.70856 2.75996 6.58962 3.21389 5.6221 3.9082C4.65458 4.6025 3.8663 5.51721 3.32248 6.57665C2.77866 7.63609 2.49494 8.80979 2.49479 10.0007ZM9.99479 17.5007C8.27305 17.5034 6.60324 16.9111 5.26813 15.824C5.80547 15.0545 6.52079 14.4262 7.35319 13.9927C8.18559 13.5592 9.11042 13.3332 10.049 13.334C10.9758 13.3332 11.8894 13.5535 12.7139 13.9767C13.5385 14.4 14.2501 15.0138 14.7898 15.7673C13.4444 16.8898 11.747 17.5034 9.99479 17.5007Z" fill="#111827" fill-opacity="0.86"/>
</g>
<defs>
<clipPath id="clip0_1326_10978">
<rect width="20" height="20" fill="white"/>
</clipPath>
</defs>
</svg>
