<svg width="23" height="22" viewBox="0 0 23 22" fill="none" xmlns="http://www.w3.org/2000/svg">
<path fill-rule="evenodd" clip-rule="evenodd" d="M21.3721 3.97787C21.0845 1.87709 18.7373 1.20381 17.2028 2.30309C15.9879 3.17344 14.4245 4.21932 12.8839 5.04373C11.3 5.89129 9.89646 6.41713 8.95174 6.41713H4.36841C2.84963 6.41713 1.61841 7.64834 1.61841 9.16713V11.9172C1.61841 13.3686 2.74296 14.5575 4.16835 14.66L3.79675 16.5179C3.51851 17.9091 4.34425 19.2836 5.70314 19.6913L6.81494 20.0248C8.33663 20.4813 9.92744 19.5572 10.2848 18.0091L10.9478 15.136C11.5441 15.3659 12.197 15.673 12.8839 16.0405C14.4245 16.865 15.9879 17.9109 17.2028 18.7812C18.7373 19.8804 21.0845 19.2071 21.3721 17.1064C21.5873 15.5341 21.7851 13.331 21.7851 10.5422C21.7851 7.75328 21.5873 5.55012 21.3721 3.97787ZM18.2705 3.79346C18.5576 3.58781 18.8745 3.56863 19.1137 3.65797C19.3409 3.74277 19.5147 3.92715 19.5557 4.22658C19.7603 5.7201 19.9517 7.84011 19.9517 10.5422C19.9517 13.2441 19.7603 15.3642 19.5557 16.8577C19.5147 17.1571 19.3409 17.3415 19.1137 17.4263C18.8745 17.5156 18.5576 17.4964 18.2705 17.2908C17.0252 16.3987 15.3891 15.3019 13.7488 14.4241C12.1518 13.5695 10.3931 12.8338 8.95174 12.8338H4.36841C3.86215 12.8338 3.45174 12.4234 3.45174 11.9172V9.16713C3.45174 8.66087 3.86215 8.25047 4.36841 8.25047H8.95174C10.3931 8.25047 12.1518 7.51477 13.7488 6.66018C15.3891 5.78245 17.0252 4.68556 18.2705 3.79346ZM9.1724 14.676C9.09634 14.6701 9.02274 14.6672 8.95174 14.6672H6.03655L5.59448 16.8775C5.50174 17.3412 5.77699 17.7994 6.22995 17.9353L7.34174 18.2688C7.84897 18.421 8.37926 18.1129 8.49833 17.5969L9.1724 14.676Z" fill="white"/>
</svg>
