<svg width="18" height="19" viewBox="0 0 18 19" fill="none" xmlns="http://www.w3.org/2000/svg">
<path d="M2.25 8H15.75M5.25 2.75V4.25M12.75 2.75V4.25M4.65 16.25H13.35C14.1901 16.25 14.6102 16.25 14.931 16.0865C15.2132 15.9427 15.4427 15.7132 15.5865 15.431C15.75 15.1102 15.75 14.6901 15.75 13.85V6.65C15.75 5.80992 15.75 5.38988 15.5865 5.06902C15.4427 4.78677 15.2132 4.5573 14.931 4.41349C14.6102 4.25 14.1901 4.25 13.35 4.25H4.65C3.80992 4.25 3.38988 4.25 3.06902 4.41349C2.78677 4.5573 2.5573 4.78677 2.41349 5.06902C2.25 5.38988 2.25 5.80992 2.25 6.65V13.85C2.25 14.6901 2.25 15.1102 2.41349 15.431C2.5573 15.7132 2.78677 15.9427 3.06902 16.0865C3.38988 16.25 3.80992 16.25 4.65 16.25Z" stroke="black" stroke-opacity="0.83" stroke-width="2" stroke-linecap="round" stroke-linejoin="round"/>
</svg>
