<svg width="22" height="19" viewBox="0 0 22 19" fill="none" xmlns="http://www.w3.org/2000/svg">
<path fill-rule="evenodd" clip-rule="evenodd" d="M20.6703 2.47739C20.3827 0.376606 18.0356 -0.296677 16.5011 0.802599C15.2861 1.67295 13.7227 2.71883 12.1821 3.54324C10.5982 4.3908 9.19468 4.91665 8.24996 4.91665H3.66663C2.14785 4.91665 0.916626 6.14786 0.916626 7.66665V10.4167C0.916626 11.8681 2.04117 13.057 3.46656 13.1595L3.09496 15.0174C2.81673 16.4086 3.64247 17.7831 5.00136 18.1908L6.11315 18.5243C7.63485 18.9808 9.22566 18.0567 9.58298 16.5086L10.246 13.6355C10.8423 13.8654 11.4952 14.1725 12.1821 14.54C13.7227 15.3645 15.2861 16.4104 16.5011 17.2807C18.0356 18.3799 20.3827 17.7066 20.6703 15.6059C20.8856 14.0336 21.0833 11.8305 21.0833 9.04166C21.0833 6.25279 20.8856 4.04963 20.6703 2.47739ZM17.5687 2.29297C17.8558 2.08733 18.1727 2.06814 18.4119 2.15748C18.6391 2.24228 18.8129 2.42666 18.854 2.72609C19.0585 4.21961 19.25 6.33962 19.25 9.04166C19.25 11.7436 19.0585 13.8637 18.854 15.3572C18.8129 15.6566 18.6391 15.841 18.4119 15.9258C18.1727 16.0151 17.8558 15.996 17.5687 15.7903C16.3234 14.8982 14.6873 13.8014 13.0471 12.9236C11.45 12.069 9.69133 11.3333 8.24996 11.3333H3.66663C3.16037 11.3333 2.74996 10.9229 2.74996 10.4167V7.66665C2.74996 7.16038 3.16037 6.74998 3.66663 6.74998H8.24996C9.69133 6.74998 11.45 6.01428 13.0471 5.15969C14.6873 4.28196 16.3234 3.18507 17.5687 2.29297ZM8.47062 13.1755C8.39455 13.1696 8.32095 13.1667 8.24996 13.1667H5.33477L4.8927 15.377C4.79996 15.8407 5.0752 16.2989 5.52816 16.4348L6.63995 16.7683C7.14719 16.9205 7.67747 16.6124 7.79655 16.0964L8.47062 13.1755Z" fill="#111827"/>
</svg>
