<svg width="22" height="23" viewBox="0 0 22 23" fill="none" xmlns="http://www.w3.org/2000/svg">
<g clip-path="url(#clip0_2_15)">
<path fill-rule="evenodd" clip-rule="evenodd" d="M18.7 7.1H15.4V3.8C15.4 3.1928 15.8928 2.7 16.5 2.7H18.7C19.3072 2.7 19.8 3.1928 19.8 3.8V6C19.8 6.6072 19.3072 7.1 18.7 7.1ZM19.8 15.9V19.2C19.8 19.8072 19.3072 20.3 18.7 20.3H16.5C15.8928 20.3 15.4 19.8072 15.4 19.2V15.9H19.8ZM8.8 13.7H13.2V9.3H8.8V13.7ZM5.5 20.3H3.3C2.6928 20.3 2.2 19.8072 2.2 19.2V17C2.2 16.3928 2.6928 15.9 3.3 15.9H6.6V19.2C6.6 19.8072 6.1072 20.3 5.5 20.3ZM2.2 6V3.8C2.2 3.1928 2.6928 2.7 3.3 2.7H5.5C6.1072 2.7 6.6 3.1928 6.6 3.8V7.1H3.3C2.6928 7.1 2.2 6.6072 2.2 6ZM19.8 0.5H15.4C14.1845 0.5 13.2 1.4845 13.2 2.7V7.1H8.8V2.7C8.8 1.4845 7.8155 0.5 6.6 0.5H2.2C0.9845 0.5 0 1.4845 0 2.7V7.1C0 8.3155 0.9845 9.3 2.2 9.3H6.6V13.7H2.2C0.9845 13.7 0 14.6845 0 15.9V20.3C0 21.5155 0.9845 22.5 2.2 22.5H6.6C7.8155 22.5 8.8 21.5155 8.8 20.3V15.9H13.2V20.3C13.2 21.5155 14.1845 22.5 15.4 22.5H19.8C21.0155 22.5 22 21.5155 22 20.3V15.9C22 14.6845 21.0155 13.7 19.8 13.7H15.4V9.3H19.8C21.0155 9.3 22 8.3155 22 7.1V2.7C22 1.4845 21.0155 0.5 19.8 0.5Z" fill="black"/>
</g>
<defs>
<clipPath id="clip0_2_15">
<rect width="22" height="22" fill="white" transform="translate(0 0.5)"/>
</clipPath>
</defs>
</svg>
