<svg width="22" height="23" viewBox="0 0 22 23" fill="none" xmlns="http://www.w3.org/2000/svg">
<path d="M19.5012 6.36673L11.5184 14.6427C10.6476 15.5135 6.99285 16.0779 6.72287 15.8084C6.45287 15.5388 7.3017 12.1769 8.17253 11.3061L16.1646 3.02087C16.3804 2.78534 16.6418 2.59602 16.9329 2.46429C17.224 2.33257 17.5387 2.26116 17.8582 2.25443C18.1776 2.24771 18.4951 2.30577 18.7915 2.42513C19.0878 2.54449 19.3569 2.72269 19.5825 2.94892C19.8081 3.17516 19.9856 3.44475 20.1041 3.74144C20.2226 4.03813 20.2799 4.35576 20.2723 4.67517C20.2647 4.99458 20.1924 5.30917 20.0599 5.5999C19.9274 5.89062 19.7374 6.15149 19.5012 6.36673Z" fill="white"/>
<path d="M10.0859 4.16699H5.5026C4.53014 4.16699 3.59757 4.55329 2.90993 5.24093C2.2223 5.92857 1.83594 6.86119 1.83594 7.83366V17.0003C1.83594 17.9728 2.2223 18.9054 2.90993 19.593C3.59757 20.2807 4.53014 20.667 5.5026 20.667H15.5859C17.6118 20.667 18.3359 19.017 18.3359 17.0003V12.417" stroke="white" stroke-width="1.375" stroke-linecap="round" stroke-linejoin="round"/>
</svg>
