<svg width="20" height="21" viewBox="0 0 20 21" fill="none" xmlns="http://www.w3.org/2000/svg">
<path d="M9.96875 1.67212C12.7674 1.67212 15.0369 3.94093 15.0371 6.7395C15.0371 9.53831 12.7676 11.8079 9.96875 11.8079C7.17018 11.8076 4.90137 9.53815 4.90137 6.7395C4.90162 3.94108 7.17033 1.67237 9.96875 1.67212Z" stroke="currentColor" stroke-width="1.6"/>
<path d="M9.96838 14.7112C12.5733 14.7112 14.5418 14.9295 15.9889 15.5588C17.5034 16.2174 18.419 17.3172 18.9156 18.9475C19.0193 19.2878 18.7647 19.6308 18.4098 19.6311H1.52893C1.17268 19.631 0.916927 19.2862 1.02112 18.9446C1.51839 17.3145 2.43515 16.2148 3.95081 15.5569C5.39765 14.9289 7.36554 14.7112 9.96838 14.7112Z" stroke="currentColor" stroke-width="1.6"/>
</svg>
