<svg width="16" height="17" viewBox="0 0 16 17" fill="none" xmlns="http://www.w3.org/2000/svg">
<path d="M11.3341 14.5V13.1667C11.3341 12.4594 11.0531 11.7811 10.553 11.281C10.0529 10.781 9.37466 10.5 8.66741 10.5H3.33408C2.62683 10.5 1.94856 10.781 1.44846 11.281C0.948363 11.7811 0.667412 12.4594 0.667412 13.1667V14.5" stroke="#111827" stroke-opacity="0.68" stroke-width="1.2" stroke-linecap="round" stroke-linejoin="round"/>
<path d="M5.99925 7.83333C7.47201 7.83333 8.66592 6.63943 8.66592 5.16667C8.66592 3.69391 7.47201 2.5 5.99925 2.5C4.5265 2.5 3.33259 3.69391 3.33259 5.16667C3.33259 6.63943 4.5265 7.83333 5.99925 7.83333Z" stroke="#111827" stroke-opacity="0.68" stroke-width="1.2" stroke-linecap="round" stroke-linejoin="round"/>
<path d="M15.3326 14.5004V13.167C15.3321 12.5762 15.1355 12.0022 14.7735 11.5352C14.4115 11.0683 13.9047 10.7347 13.3326 10.587" stroke="#111827" stroke-opacity="0.68" stroke-width="1.2" stroke-linecap="round" stroke-linejoin="round"/>
<path d="M10.6674 2.58704C11.241 2.7339 11.7494 3.0675 12.1125 3.53524C12.4756 4.00298 12.6726 4.57826 12.6726 5.17037C12.6726 5.76248 12.4756 6.33776 12.1125 6.8055C11.7494 7.27324 11.241 7.60684 10.6674 7.7537" stroke="#111827" stroke-opacity="0.68" stroke-width="1.2" stroke-linecap="round" stroke-linejoin="round"/>
</svg>
