<svg width="22" height="23" viewBox="0 0 22 23" fill="none" xmlns="http://www.w3.org/2000/svg">
<g clip-path="url(#clip0_2_98)">
<path d="M18.3323 8.75067C17.7633 8.75956 17.2101 8.93906 16.7443 9.26593C16.2786 9.5928 15.9216 10.052 15.7198 10.584H11.824C11.6898 10.0418 11.4568 9.52907 11.1365 9.07151L12.7406 7.19234C13.0662 7.30156 13.4058 7.36331 13.749 7.37567C14.2929 7.37567 14.8245 7.21439 15.2768 6.91222C15.729 6.61004 16.0815 6.18055 16.2896 5.67805C16.4978 5.17556 16.5522 4.62262 16.4461 4.08918C16.34 3.55573 16.0781 3.06573 15.6935 2.68113C15.3089 2.29654 14.8189 2.03463 14.2855 1.92852C13.752 1.82241 13.1991 1.87687 12.6966 2.08501C12.1941 2.29315 11.7646 2.64562 11.4624 3.09786C11.1602 3.55009 10.999 4.08178 10.999 4.62568C11.0005 5.10796 11.1269 5.58164 11.3656 6.00068L9.71563 7.87984C9.12842 7.54798 8.46512 7.37426 7.79063 7.37567L7.01146 7.46734L6.46146 6.18401C6.931 5.7487 7.23392 5.16319 7.31799 4.52845C7.40206 3.89371 7.26202 3.24953 6.922 2.70699C6.58198 2.16445 6.06331 1.75756 5.45542 1.55648C4.84753 1.35541 4.18853 1.37275 3.59206 1.60552C2.99559 1.83829 2.49903 2.2719 2.18802 2.83157C1.87701 3.39124 1.77104 4.04189 1.88838 4.67133C2.00572 5.30077 2.33901 5.86954 2.8308 6.27955C3.32258 6.68957 3.94202 6.91513 4.58229 6.91734H4.76563L5.36146 8.20067C4.84071 8.57906 4.4169 9.07531 4.12468 9.64886C3.83246 10.2224 3.68013 10.857 3.68013 11.5007C3.68013 12.1444 3.83246 12.7789 4.12468 13.3525C4.4169 13.926 4.84071 14.4223 5.36146 14.8007L4.76563 16.084H4.58229C3.94202 16.0862 3.32258 16.3118 2.8308 16.7218C2.33901 17.1318 2.00572 17.7006 1.88838 18.33C1.77104 18.9595 1.87701 19.6101 2.18802 20.1698C2.49903 20.7295 2.99559 21.1631 3.59206 21.3958C4.18853 21.6286 4.84753 21.6459 5.45542 21.4449C6.06331 21.2438 6.58198 20.8369 6.922 20.2944C7.26202 19.7518 7.40206 19.1076 7.31799 18.4729C7.23392 17.8382 6.931 17.2527 6.46146 16.8173L7.01146 15.534L7.79063 15.6257C8.46512 15.6271 9.12842 15.4534 9.71563 15.1215L11.3656 17.0007C11.1269 17.4197 11.0005 17.8934 10.999 18.3757C10.999 18.9196 11.1602 19.4513 11.4624 19.9035C11.7646 20.3557 12.1941 20.7082 12.6966 20.9163C13.1991 21.1245 13.752 21.1789 14.2855 21.0728C14.8189 20.9667 15.3089 20.7048 15.6935 20.3202C16.0781 19.9356 16.34 19.4456 16.4461 18.9122C16.5522 18.3787 16.4978 17.8258 16.2896 17.3233C16.0815 16.8208 15.729 16.3913 15.2768 16.0891C14.8245 15.787 14.2929 15.6257 13.749 15.6257C13.4058 15.638 13.0662 15.6998 12.7406 15.809L11.1365 13.9298C11.4568 13.4723 11.6898 12.9595 11.824 12.4173H15.7198C15.9216 12.9494 16.2786 13.4086 16.7443 13.7354C17.2101 14.0623 17.7633 14.2418 18.3323 14.2507C19.0616 14.2507 19.7611 13.9609 20.2768 13.4452C20.7926 12.9295 21.0823 12.23 21.0823 11.5007C21.0823 10.7713 20.7926 10.0719 20.2768 9.55613C19.7611 9.04041 19.0616 8.75067 18.3323 8.75067ZM3.66563 4.16734C3.66563 3.98604 3.71939 3.80881 3.82011 3.65807C3.92084 3.50732 4.064 3.38983 4.2315 3.32045C4.399 3.25107 4.58331 3.23292 4.76113 3.26829C4.93894 3.30366 5.10228 3.39096 5.23047 3.51916C5.35867 3.64736 5.44598 3.81069 5.48135 3.98851C5.51672 4.16633 5.49856 4.35064 5.42918 4.51813C5.3598 4.68563 5.24231 4.8288 5.09157 4.92952C4.94082 5.03025 4.76359 5.08401 4.58229 5.08401C4.33918 5.08401 4.10602 4.98743 3.93411 4.81552C3.7622 4.64361 3.66563 4.41046 3.66563 4.16734ZM4.58229 19.7507C4.40099 19.7507 4.22377 19.6969 4.07302 19.5962C3.92228 19.4955 3.80478 19.3523 3.7354 19.1848C3.66602 19.0173 3.64787 18.833 3.68324 18.6552C3.71861 18.4774 3.80591 18.314 3.93411 18.1858C4.06231 18.0576 4.22564 17.9703 4.40346 17.935C4.58128 17.8996 4.76559 17.9177 4.93309 17.9871C5.10059 18.0565 5.24375 18.174 5.34447 18.3247C5.4452 18.4755 5.49896 18.6527 5.49896 18.834C5.49896 19.0771 5.40238 19.3103 5.23047 19.4822C5.05857 19.6541 4.82541 19.7507 4.58229 19.7507ZM13.749 3.70901C13.9303 3.70901 14.1075 3.76277 14.2582 3.86349C14.409 3.96422 14.5265 4.10738 14.5958 4.27488C14.6652 4.44238 14.6834 4.62669 14.648 4.80451C14.6126 4.98232 14.5253 5.14566 14.3971 5.27386C14.2689 5.40205 14.1056 5.48936 13.9278 5.52473C13.75 5.5601 13.5657 5.54194 13.3982 5.47256C13.2307 5.40318 13.0875 5.28569 12.9868 5.13495C12.8861 4.9842 12.8323 4.80697 12.8323 4.62568C12.8323 4.38256 12.9289 4.1494 13.1008 3.97749C13.2727 3.80559 13.5058 3.70901 13.749 3.70901ZM5.49896 11.5007C5.49896 11.0474 5.63336 10.6044 5.88518 10.2275C6.13699 9.85063 6.4949 9.5569 6.91364 9.38345C7.33239 9.21 7.79317 9.16462 8.23771 9.25304C8.68225 9.34147 9.09058 9.55973 9.41108 9.88022C9.73158 10.2007 9.94984 10.6091 10.0383 11.0536C10.1267 11.4981 10.0813 11.9589 9.90785 12.3777C9.7344 12.7964 9.44067 13.1543 9.06381 13.4061C8.68695 13.6579 8.24388 13.7923 7.79063 13.7923C7.18284 13.7923 6.59994 13.5509 6.17017 13.1211C5.7404 12.6914 5.49896 12.1085 5.49896 11.5007ZM14.6656 18.3757C14.6656 18.557 14.6119 18.7342 14.5111 18.8849C14.4104 19.0357 14.2673 19.1532 14.0998 19.2226C13.9323 19.2919 13.7479 19.3101 13.5701 19.2747C13.3923 19.2394 13.229 19.1521 13.1008 19.0239C12.9726 18.8957 12.8853 18.7323 12.8499 18.5545C12.8145 18.3767 12.8327 18.1924 12.9021 18.0249C12.9715 17.8574 13.0889 17.7142 13.2397 17.6135C13.3904 17.5128 13.5677 17.459 13.749 17.459C13.9921 17.459 14.2252 17.5556 14.3971 17.7275C14.569 17.8994 14.6656 18.1326 14.6656 18.3757ZM18.3323 12.4173C18.151 12.4173 17.9738 12.3636 17.823 12.2629C17.6723 12.1621 17.5548 12.019 17.4854 11.8515C17.416 11.684 17.3979 11.4997 17.4332 11.3218C17.4686 11.144 17.5559 10.9807 17.6841 10.8525C17.8123 10.7243 17.9756 10.637 18.1535 10.6016C18.3313 10.5663 18.5156 10.5844 18.6831 10.6538C18.8506 10.7232 18.9937 10.8407 19.0945 10.9914C19.1952 11.1421 19.249 11.3194 19.249 11.5007C19.249 11.7438 19.1524 11.9769 18.9805 12.1489C18.8086 12.3208 18.5754 12.4173 18.3323 12.4173Z" fill="#111827"/>
</g>
<defs>
<clipPath id="clip0_2_98">
<rect width="22" height="22" fill="white" transform="translate(0 0.5)"/>
</clipPath>
</defs>
</svg>
