<svg width="28" height="28" viewBox="0 0 28 28" fill="none" xmlns="http://www.w3.org/2000/svg">
<path d="M14.0006 18.6674C7.28065 18.6674 6.09021 11.9702 5.87932 6.65832C5.82066 5.18075 5.79133 4.44196 6.34634 3.75841C6.90133 3.07487 7.5656 2.96279 8.89411 2.73864C10.2055 2.51738 11.9198 2.33411 14.0006 2.33411C16.0814 2.33411 17.7957 2.51738 19.107 2.73864C20.4356 2.96279 21.0998 3.07487 21.6548 3.75841C22.2099 4.44196 22.1805 5.18075 22.1218 6.65832C21.911 11.9702 20.7205 18.6674 14.0006 18.6674Z" stroke="#0866FF" stroke-width="1.75"/>
<path d="M22.1658 5.83411L23.2725 6.20302C24.4276 6.58804 25.0051 6.78055 25.3354 7.23887C25.6658 7.69718 25.6658 8.30596 25.6657 9.5235V9.60812C25.6657 10.6123 25.6657 11.1144 25.4239 11.5252C25.1822 11.936 24.7433 12.1798 23.8655 12.6675L20.4158 14.5841" stroke="#0866FF" stroke-width="1.75"/>
<path d="M5.83416 5.83411L4.72744 6.20302C3.57237 6.58804 2.99483 6.78055 2.66451 7.23887C2.33418 7.69718 2.33419 8.30596 2.33423 9.5235V9.60812C2.33426 10.6123 2.33428 11.1144 2.576 11.5252C2.81771 11.936 3.25663 12.1798 4.13445 12.6675L7.58416 14.5841" stroke="#0866FF" stroke-width="1.75"/>
<path d="M14 19.8341V22.1674" stroke="#0866FF" stroke-width="1.75" stroke-linecap="round"/>
<path d="M18.0824 25.6667H9.91577L10.3115 23.6879C10.4206 23.1426 10.8994 22.75 11.4555 22.75H16.5427C17.0988 22.75 17.5776 23.1426 17.6867 23.6879L18.0824 25.6667Z" stroke="#0866FF" stroke-width="1.75" stroke-linecap="round" stroke-linejoin="round"/>
<path d="M21 25.6659H7" stroke="#0866FF" stroke-width="1.75" stroke-linecap="round"/>
</svg>
