<svg width="30" height="30" viewBox="0 0 30 30" fill="none" xmlns="http://www.w3.org/2000/svg">
<path d="M14.9994 20.001C7.79941 20.001 6.52393 12.8254 6.29798 7.13406C6.23513 5.55095 6.20371 4.75939 6.79836 4.02701C7.39299 3.29465 8.10471 3.17456 9.52812 2.9344C10.9332 2.69734 12.7699 2.50098 14.9994 2.50098C17.2288 2.50098 19.0655 2.69734 20.4705 2.9344C21.894 3.17456 22.6056 3.29465 23.2003 4.02701C23.795 4.75939 23.7635 5.55095 23.7006 7.13406C23.4748 12.8254 22.1993 20.001 14.9994 20.001Z" stroke="#0866FF" stroke-width="1.875"/>
<path d="M23.75 6.25098L24.9358 6.64624C26.1734 7.05876 26.7921 7.26503 27.146 7.75608C27.5 8.24713 27.5 8.89939 27.4999 10.2039V10.2946C27.4999 11.3705 27.4999 11.9085 27.2409 12.3486C26.9819 12.7887 26.5116 13.05 25.5711 13.5725L21.875 15.626" stroke="#0866FF" stroke-width="1.875"/>
<path d="M6.24993 6.25098L5.06415 6.64624C3.82658 7.05876 3.20779 7.26503 2.85388 7.75608C2.49995 8.24713 2.49996 8.89939 2.5 10.2039V10.2946C2.50004 11.3705 2.50005 11.9085 2.75904 12.3486C3.01801 12.7887 3.48829 13.05 4.42881 13.5725L8.12493 15.626" stroke="#0866FF" stroke-width="1.875"/>
<path d="M15 21.251V23.751" stroke="#0866FF" stroke-width="1.875" stroke-linecap="round"/>
<path d="M19.375 27.5H10.625L11.049 25.3799C11.1659 24.7956 11.6789 24.375 12.2748 24.375H17.7252C18.3211 24.375 18.8341 24.7956 18.951 25.3799L19.375 27.5Z" stroke="#0866FF" stroke-width="1.875" stroke-linecap="round" stroke-linejoin="round"/>
<path d="M22.5 27.499H7.5" stroke="#0866FF" stroke-width="1.875" stroke-linecap="round"/>
</svg>
