<svg width="31" height="30" viewBox="0 0 31 30" fill="none" xmlns="http://www.w3.org/2000/svg">
<path opacity="0.72" d="M15.4991 20.0007C8.2991 20.0007 7.02363 12.8251 6.79768 7.13379C6.73483 5.55068 6.7034 4.75911 7.29805 4.02674C7.89269 3.29438 8.6044 3.17429 10.0278 2.93413C11.4329 2.69706 13.2696 2.5007 15.4991 2.5007C17.7285 2.5007 19.5652 2.69706 20.9702 2.93413C22.3937 3.17429 23.1053 3.29438 23.7 4.02674C24.2947 4.75911 24.2632 5.55068 24.2003 7.13379C23.9745 12.8251 22.699 20.0007 15.4991 20.0007Z" stroke="#583CCF" stroke-width="2"/>
<path opacity="0.72" d="M24.2472 6.2507L25.4329 6.64596C26.6706 7.05849 27.2893 7.26475 27.6432 7.7558C27.9972 8.24685 27.9972 8.89911 27.9971 10.2036V10.2943C27.9971 11.3702 27.9971 11.9082 27.7381 12.3483C27.4791 12.7885 27.0088 13.0497 26.0683 13.5722L22.3722 15.6257" stroke="#583CCF" stroke-width="2"/>
<path opacity="0.72" d="M6.75273 6.2507L5.56696 6.64596C4.32938 7.05849 3.7106 7.26475 3.35668 7.7558C3.00276 8.24685 3.00277 8.89911 3.00281 10.2036V10.2943C3.00285 11.3702 3.00286 11.9082 3.26185 12.3483C3.52082 12.7885 3.9911 13.0497 4.93162 13.5722L8.62773 15.6257" stroke="#583CCF" stroke-width="2"/>
<path opacity="0.72" d="M15.5 21.2507V23.7507" stroke="#583CCF" stroke-width="2" stroke-linecap="round"/>
<path opacity="0.72" d="M19.8722 27.5H11.1222L11.5462 25.3799C11.6631 24.7956 12.1761 24.375 12.7719 24.375H18.2224C18.8183 24.375 19.3313 24.7956 19.4482 25.3799L19.8722 27.5Z" stroke="#583CCF" stroke-width="2" stroke-linecap="round" stroke-linejoin="round"/>
<path opacity="0.72" d="M23 27.4993H8" stroke="#583CCF" stroke-width="2" stroke-linecap="round"/>
</svg>
