<svg width="20" height="21" viewBox="0 0 20 21" fill="none" xmlns="http://www.w3.org/2000/svg">
<path d="M9.9993 16.9284C9.60483 16.9284 9.2874 16.611 8.65244 15.976L3.21264 9.90367C2.80763 9.49872 2.60513 9.29615 2.54297 9.03291M9.9993 16.9284C10.3938 16.9284 10.7112 16.611 11.3462 15.976L16.7859 9.90367C17.1909 9.49872 17.3935 9.29615 17.4556 9.03291M9.9993 16.9284L6.27112 9.03291M9.9993 16.9284L13.7274 9.03291M17.4556 9.03291C17.5178 8.76957 17.4272 8.49786 17.246 7.95453C17.246 7.95453 16.9321 7.14932 16.6501 6.67614C16.1483 5.8339 15.8209 5.31899 14.9983 4.78557C14.293 4.32824 13.7923 4.23529 12.9679 4.07129C12.9679 4.07129 11.4259 4.07129 9.99833 4.07129M17.4556 9.03291H13.7274M2.54297 9.03291C2.48082 8.76957 2.57138 8.49786 2.7525 7.95453C2.7525 7.95453 3.1182 7.15302 3.41671 6.67614C3.92746 5.86021 4.19717 5.31919 4.99833 4.78557C5.69853 4.3192 6.20557 4.23518 7.03075 4.07129C7.03075 4.07129 8.56878 4.07129 9.99833 4.07129M2.54297 9.03291H6.27112M13.7274 9.03291H9.99927H6.27112M13.7274 9.03291C13.7274 9.03291 11.4542 6.28787 9.99833 4.07129M9.99833 4.07129C8.54238 6.28787 6.27112 9.03291 6.27112 9.03291" stroke="black" stroke-width="0.857143" stroke-linecap="round"/>
</svg>
