<svg width="14" height="15" viewBox="0 0 14 15" fill="none" xmlns="http://www.w3.org/2000/svg">
<g clip-path="url(#clip0_1_243)">
<path d="M7 1.08337V13.9167" stroke="#00B737" stroke-width="2" stroke-linecap="round" stroke-linejoin="round"/>
<path d="M9.91667 3.41663H5.54167C5.00018 3.41663 4.48088 3.63173 4.09799 4.01462C3.7151 4.3975 3.5 4.91681 3.5 5.45829C3.5 5.99978 3.7151 6.51908 4.09799 6.90197C4.48088 7.28486 5.00018 7.49996 5.54167 7.49996H8.45833C8.99982 7.49996 9.51912 7.71506 9.90201 8.09795C10.2849 8.48084 10.5 9.00014 10.5 9.54163C10.5 10.0831 10.2849 10.6024 9.90201 10.9853C9.51912 11.3682 8.99982 11.5833 8.45833 11.5833H3.5" stroke="#00B737" stroke-width="2" stroke-linecap="round" stroke-linejoin="round"/>
</g>
<defs>
<clipPath id="clip0_1_243">
<rect width="14" height="14" fill="white" transform="translate(0 0.5)"/>
</clipPath>
</defs>
</svg>
