<svg width="31" height="30" viewBox="0 0 31 30" fill="none" xmlns="http://www.w3.org/2000/svg">
<g clip-path="url(#clip0_736_18875)">
<path d="M30.5 15C30.5 6.7158 23.7842 0 15.5 0C7.2158 0 0.5 6.7158 0.5 15C0.5 22.0344 5.3432 27.9372 11.8766 29.5584V19.584H8.7836V15H11.8766V13.0248C11.8766 7.9194 14.1872 5.553 19.1996 5.553C20.15 5.553 21.7898 5.7396 22.4606 5.9256V10.0806C22.1066 10.0434 21.4916 10.0248 20.7278 10.0248C18.2684 10.0248 17.318 10.9566 17.318 13.3788V15H22.2176L21.3758 19.584H17.318V29.8902C24.7454 28.9932 30.5006 22.6692 30.5006 15H30.5Z" fill="#0866FF"/>
<path d="M21.3735 19.584L22.2153 15H17.3157V13.3788C17.3157 10.9566 18.266 10.0248 20.7254 10.0248C21.4893 10.0248 22.1042 10.0434 22.4583 10.0806V5.92558C21.7874 5.73898 20.1476 5.55298 19.1973 5.55298C14.1848 5.55298 11.8743 7.91938 11.8743 13.0248V15H8.78125V19.584H11.8743V29.5584C13.0347 29.8464 14.2485 30 15.4977 30C16.1127 30 16.7192 29.9622 17.3151 29.8902V19.584H21.3729H21.3735Z" fill="white"/>
</g>
<defs>
<clipPath id="clip0_736_18875">
<rect width="30" height="30" fill="white" transform="translate(0.5)"/>
</clipPath>
</defs>
</svg>
