<svg width="41" height="40" viewBox="0 0 41 40" fill="none" xmlns="http://www.w3.org/2000/svg">
<g opacity="0.64">
<path d="M24.2725 26.5618L21.4923 23.805C20.1508 22.4745 19.48 21.8093 18.7103 21.5662C18.0333 21.3523 17.3057 21.3602 16.6335 21.5887C15.8691 21.8485 15.2129 22.528 13.9005 23.887L7.2395 30.4662M24.2725 26.5618L24.8415 25.9977C26.1847 24.6657 26.8562 23.9997 27.6268 23.7565C28.3045 23.5427 29.0327 23.5512 29.7053 23.7805C30.47 24.0412 31.1262 24.7225 32.4383 26.085L33.8327 27.4883M24.2725 26.5618L30.9577 33.2602M7.2395 30.4662C7.29122 30.8862 7.37928 31.2182 7.52933 31.5127C7.8489 32.1398 8.35883 32.6498 8.98605 32.9693C9.69908 33.3327 10.6325 33.3327 12.4993 33.3327H28.4993C29.5898 33.3327 30.362 33.3327 30.9577 33.2602M7.2395 30.4662C7.16602 29.8695 7.16602 29.0952 7.16602 27.9993V11.9993C7.16602 10.1325 7.16602 9.19908 7.52933 8.48605C7.8489 7.85883 8.35883 7.3489 8.98605 7.02933C9.69908 6.66602 10.6325 6.66602 12.4993 6.66602H28.4993C30.3662 6.66602 31.2997 6.66602 32.0127 7.02933C32.6398 7.3489 33.1498 7.85883 33.4693 8.48605C33.8327 9.19908 33.8327 10.1325 33.8327 11.9993V27.4883M33.8327 27.4883V27.9993C33.8327 29.8662 33.8327 30.7997 33.4693 31.5127C33.1498 32.1398 32.6398 32.6498 32.0127 32.9693C31.7162 33.1205 31.3815 33.2087 30.9577 33.2602M28.8327 14.9992C28.8327 16.8402 27.3403 18.3325 25.4993 18.3325C23.6583 18.3325 22.166 16.8402 22.166 14.9992C22.166 13.1582 23.6583 11.6658 25.4993 11.6658C27.3403 11.6658 28.8327 13.1582 28.8327 14.9992Z" stroke="black" stroke-width="3.33333" stroke-linecap="round" stroke-linejoin="round"/>
</g>
</svg>
