<svg width="31" height="30" viewBox="0 0 31 30" fill="none" xmlns="http://www.w3.org/2000/svg">
<path d="M19.2706 21.5618L16.4904 18.805C15.1489 17.4745 14.4781 16.8093 13.7084 16.5662C13.0314 16.3523 12.3037 16.3602 11.6315 16.5887C10.8672 16.8485 10.211 17.528 8.89853 18.887L2.23755 25.4662M19.2706 21.5618L19.8396 20.9977C21.1827 19.6657 21.8542 18.9997 22.6249 18.7565C23.3026 18.5427 24.0307 18.5512 24.7034 18.7805C25.4681 19.0412 26.1242 19.7225 27.4364 21.085L28.8307 22.4883M19.2706 21.5618L25.9557 28.2602M2.23755 25.4662C2.28926 25.8862 2.37733 26.2182 2.52738 26.5127C2.84695 27.1398 3.35688 27.6498 3.9841 27.9693C4.69713 28.3327 5.63055 28.3327 7.4974 28.3327H23.4974C24.5879 28.3327 25.3601 28.3327 25.9557 28.2602M2.23755 25.4662C2.16406 24.8695 2.16406 24.0952 2.16406 22.9993V6.99935C2.16406 5.13252 2.16406 4.19908 2.52738 3.48605C2.84695 2.85883 3.35688 2.3489 3.9841 2.02933C4.69713 1.66602 5.63055 1.66602 7.4974 1.66602H23.4974C25.3642 1.66602 26.2977 1.66602 27.0107 2.02933C27.6379 2.3489 28.1479 2.85883 28.4674 3.48605C28.8307 4.19908 28.8307 5.13252 28.8307 6.99935V22.4883M28.8307 22.4883V22.9993C28.8307 24.8662 28.8307 25.7997 28.4674 26.5127C28.1479 27.1398 27.6379 27.6498 27.0107 27.9693C26.7142 28.1205 26.3796 28.2087 25.9557 28.2602M23.8307 9.99917C23.8307 11.8402 22.3384 13.3325 20.4974 13.3325C18.6564 13.3325 17.1641 11.8402 17.1641 9.99917C17.1641 8.15822 18.6564 6.66583 20.4974 6.66583C22.3384 6.66583 23.8307 8.15822 23.8307 9.99917Z" stroke="black" stroke-width="3.33333" stroke-linecap="round" stroke-linejoin="round"/>
</svg>
