<svg width="23" height="22" viewBox="0 0 23 22" fill="none" xmlns="http://www.w3.org/2000/svg">
<g clip-path="url(#clip0_1_715)">
<path fill-rule="evenodd" clip-rule="evenodd" d="M6.69998 19.3786H3.39997C2.79277 19.3786 2.29998 18.9093 2.29998 18.331C2.29998 17.7527 2.79277 17.2834 3.39997 17.2834H6.69998C7.30718 17.2834 7.79998 17.7527 7.79998 18.331C7.79998 18.9093 7.30718 19.3786 6.69998 19.3786ZM7.79998 15.1882H2.29998C1.08448 15.1882 0.0999756 16.1258 0.0999756 17.2834V19.3786C0.0999756 20.5362 1.08448 21.4739 2.29998 21.4739H7.79998C9.01548 21.4739 9.99997 20.5362 9.99997 19.3786V17.2834C9.99997 16.1258 9.01548 15.1882 7.79998 15.1882ZM18.8 4.71196H15.5C14.8928 4.71196 14.4 4.24263 14.4 3.66434C14.4 3.08606 14.8928 2.61672 15.5 2.61672H18.8C19.4072 2.61672 19.9 3.08606 19.9 3.66434C19.9 4.24263 19.4072 4.71196 18.8 4.71196ZM19.9 0.521484H14.4C13.1845 0.521484 12.2 1.4591 12.2 2.61672V4.71196C12.2 5.86958 13.1845 6.8072 14.4 6.8072H19.9C21.1155 6.8072 22.1 5.86958 22.1 4.71196V2.61672C22.1 1.4591 21.1155 0.521484 19.9 0.521484ZM19.9 18.331C19.9 18.9093 19.4072 19.3786 18.8 19.3786H15.5C14.8928 19.3786 14.4 18.9093 14.4 18.331V12.0453C14.4 11.467 14.8928 10.9977 15.5 10.9977H18.8C19.4072 10.9977 19.9 11.467 19.9 12.0453V18.331ZM19.9 8.90244H14.4C13.1845 8.90244 12.2 9.84006 12.2 10.9977V19.3786C12.2 20.5362 13.1845 21.4739 14.4 21.4739H19.9C21.1155 21.4739 22.1 20.5362 22.1 19.3786V10.9977C22.1 9.84006 21.1155 8.90244 19.9 8.90244ZM7.79998 9.95006C7.79998 10.5283 7.30718 10.9977 6.69998 10.9977H3.39997C2.79277 10.9977 2.29998 10.5283 2.29998 9.95006V3.66434C2.29998 3.08606 2.79277 2.61672 3.39997 2.61672H6.69998C7.30718 2.61672 7.79998 3.08606 7.79998 3.66434V9.95006ZM7.79998 0.521484H2.29998C1.08448 0.521484 0.0999756 1.4591 0.0999756 2.61672V10.9977C0.0999756 12.1553 1.08448 13.0929 2.29998 13.0929H7.79998C9.01548 13.0929 9.99997 12.1553 9.99997 10.9977V2.61672C9.99997 1.4591 9.01548 0.521484 7.79998 0.521484Z" fill="white"/>
</g>
<defs>
<clipPath id="clip0_1_715">
<rect width="22" height="22" fill="white" transform="translate(0.0999756)"/>
</clipPath>
</defs>
</svg>
