<svg width="1421" height="169" viewBox="0 0 1421 169" fill="none" xmlns="http://www.w3.org/2000/svg">
<path d="M1420.25 47C1420.25 72.9574 1399.21 94 1373.25 94H445.5C424.789 94 408 110.789 408 131.5C408 152.211 391.211 169 370.5 169H40C17.9086 169 0 151.091 0 129V89.125C0 89.056 0.0559644 89 0.125 89C0.194036 89 0.25 88.944 0.25 88.875V44.5C0.25 19.9233 20.1733 0 44.75 0H1373.25C1399.21 0 1420.25 21.0426 1420.25 47Z" fill="white"/>
<path d="M1420.25 47C1420.25 72.9574 1399.21 94 1373.25 94H445.5C424.789 94 408 110.789 408 131.5C408 152.211 391.211 169 370.5 169H40C17.9086 169 0 151.091 0 129V89.125C0 89.056 0.0559644 89 0.125 89C0.194036 89 0.25 88.944 0.25 88.875V44.5C0.25 19.9233 20.1733 0 44.75 0H1373.25C1399.21 0 1420.25 21.0426 1420.25 47Z" fill="url(#paint0_linear_1352_13428)" fill-opacity="0.82"/>
<defs>
<linearGradient id="paint0_linear_1352_13428" x1="1843.75" y1="-104" x2="0.250089" y2="-104" gradientUnits="userSpaceOnUse">
<stop stop-color="#B09DFF"/>
<stop offset="0.699811" stop-color="#2F1697"/>
</linearGradient>
</defs>
</svg>
