<svg width="1421" height="651" viewBox="0 0 1421 651" fill="none" xmlns="http://www.w3.org/2000/svg">
<path d="M1420.25 516C1420.25 549.137 1393.39 576 1360.25 576H601.5C580.789 576 564 592.789 564 613.5C564 634.211 547.211 651 526.5 651H40C17.9086 651 0 633.091 0 611V571.125C0 571.056 0.0559644 571 0.125 571C0.194036 571 0.25 570.944 0.25 570.875V60C0.25 26.8629 27.1129 0 60.25 0H1360.25C1393.39 0 1420.25 26.8629 1420.25 60V516Z" fill="white"/>
<path d="M1420.25 516C1420.25 549.137 1393.39 576 1360.25 576H601.5C580.789 576 564 592.789 564 613.5C564 634.211 547.211 651 526.5 651H40C17.9086 651 0 633.091 0 611V571.125C0 571.056 0.0559644 571 0.125 571C0.194036 571 0.25 570.944 0.25 570.875V60C0.25 26.8629 27.1129 0 60.25 0H1360.25C1393.39 0 1420.25 26.8629 1420.25 60V516Z" fill="url(#paint0_linear_1_9)" fill-opacity="0.82"/>
<defs>
<linearGradient id="paint0_linear_1_9" x1="1843.75" y1="378" x2="0.25009" y2="378" gradientUnits="userSpaceOnUse">
<stop stop-color="#B09DFF"/>
<stop offset="0.699811" stop-color="#2F1697"/>
</linearGradient>
</defs>
</svg>
