<svg width="30" height="30" viewBox="0 0 30 30" fill="none" xmlns="http://www.w3.org/2000/svg">
<path d="M15.0049 0.00422668C8.74253 0.00422668 6.91103 0.010687 6.55502 0.0402199C5.26988 0.147046 4.47019 0.349393 3.59896 0.783157C2.92755 1.11656 2.39804 1.50302 1.87544 2.04477C0.923698 3.03273 0.346884 4.2482 0.138077 5.693C0.0365572 6.39441 0.00702432 6.53746 0.00102545 10.1202C-0.00128181 11.3144 0.00102545 12.8861 0.00102545 14.9943C0.00102545 21.2515 0.00794723 23.0812 0.0379416 23.4365C0.141768 24.687 0.337885 25.4738 0.753192 26.3344C1.54689 27.9818 3.06276 29.2185 4.84858 29.68C5.46692 29.8392 6.14987 29.9268 7.02663 29.9684C7.3981 29.9845 11.1843 29.9961 14.9728 29.9961C18.7613 29.9961 22.5499 29.9914 22.9121 29.973C23.9273 29.9252 24.5168 29.8461 25.1686 29.6776C26.0541 29.4506 26.8793 29.0329 27.5867 28.4539C28.294 27.8749 28.8665 27.1484 29.264 26.3252C29.6712 25.4854 29.8777 24.6686 29.9712 23.4834C29.9915 23.2249 30 19.1049 30 14.9903C30 10.8751 29.9908 6.76265 29.9705 6.50424C29.8759 5.29985 29.6694 4.49 29.249 3.63401C28.9041 2.93329 28.521 2.41001 27.965 1.87495C26.9729 0.92713 25.7593 0.350315 24.3128 0.141739C23.6121 0.0404507 23.4725 0.0104563 19.8871 0.00422668H15.0049Z" fill="url(#paint0_radial_736_18845)"/>
<path d="M15.0049 0.00422668C8.74253 0.00422668 6.91103 0.010687 6.55502 0.0402199C5.26988 0.147046 4.47019 0.349393 3.59896 0.783157C2.92755 1.11656 2.39804 1.50302 1.87544 2.04477C0.923698 3.03273 0.346884 4.2482 0.138077 5.693C0.0365572 6.39441 0.00702432 6.53746 0.00102545 10.1202C-0.00128181 11.3144 0.00102545 12.8861 0.00102545 14.9943C0.00102545 21.2515 0.00794723 23.0812 0.0379416 23.4365C0.141768 24.687 0.337885 25.4738 0.753192 26.3344C1.54689 27.9818 3.06276 29.2185 4.84858 29.68C5.46692 29.8392 6.14987 29.9268 7.02663 29.9684C7.3981 29.9845 11.1843 29.9961 14.9728 29.9961C18.7613 29.9961 22.5499 29.9914 22.9121 29.973C23.9273 29.9252 24.5168 29.8461 25.1686 29.6776C26.0541 29.4506 26.8793 29.0329 27.5867 28.4539C28.294 27.8749 28.8665 27.1484 29.264 26.3252C29.6712 25.4854 29.8777 24.6686 29.9712 23.4834C29.9915 23.2249 30 19.1049 30 14.9903C30 10.8751 29.9908 6.76265 29.9705 6.50424C29.8759 5.29985 29.6694 4.49 29.249 3.63401C28.9041 2.93329 28.521 2.41001 27.965 1.87495C26.9729 0.92713 25.7593 0.350315 24.3128 0.141739C23.6121 0.0404507 23.4725 0.0104563 19.8871 0.00422668H15.0049Z" fill="url(#paint1_radial_736_18845)"/>
<path d="M14.9974 3.92596C11.9897 3.92596 11.6122 3.93912 10.4309 3.99288C9.25187 4.04686 8.4471 4.23352 7.74293 4.50739C7.01452 4.79026 6.39664 5.16865 5.78106 5.78446C5.16503 6.40004 4.78664 7.01792 4.50284 7.74609C4.22828 8.4505 4.04139 9.2555 3.98832 10.434C3.93572 11.6154 3.92188 11.9931 3.92188 15.0008C3.92188 18.0085 3.93526 18.3849 3.98879 19.5662C4.04301 20.7452 4.22966 21.55 4.5033 22.2541C4.7864 22.9825 5.1648 23.6004 5.7806 24.216C6.39595 24.832 7.01383 25.2113 7.74177 25.4942C8.44641 25.7681 9.25141 25.9547 10.4302 26.0087C11.6115 26.0625 11.9887 26.0756 14.9963 26.0756C18.0042 26.0756 18.3805 26.0625 19.5619 26.0087C20.7409 25.9547 21.5466 25.7681 22.2512 25.4942C22.9794 25.2113 23.5963 24.832 24.2117 24.216C24.8277 23.6004 25.2061 22.9825 25.4899 22.2544C25.7622 21.55 25.949 20.745 26.0044 19.5664C26.0575 18.3851 26.0713 18.0085 26.0713 15.0008C26.0713 11.9931 26.0575 11.6156 26.0044 10.4343C25.949 9.25527 25.7622 8.4505 25.4899 7.74632C25.2061 7.01792 24.8277 6.40004 24.2117 5.78446C23.5956 5.16842 22.9796 4.79003 22.2505 4.50739C21.5445 4.23352 20.7393 4.04686 19.5602 3.99288C18.3789 3.93912 18.0028 3.92596 14.9942 3.92596H14.9974ZM14.0039 5.92174C14.2988 5.92128 14.6278 5.92174 14.9974 5.92174C17.9544 5.92174 18.3049 5.93236 19.4726 5.98542C20.5524 6.0348 21.1384 6.21523 21.5288 6.36681C22.0456 6.56754 22.4141 6.8075 22.8015 7.19512C23.1891 7.58274 23.4291 7.9519 23.6302 8.46873C23.7818 8.85865 23.9625 9.4447 24.0116 10.5245C24.0647 11.692 24.0762 12.0427 24.0762 14.9983C24.0762 17.9539 24.0647 18.3046 24.0116 19.472C23.9623 20.5518 23.7818 21.1379 23.6302 21.5278C23.4295 22.0446 23.1891 22.4126 22.8015 22.8C22.4139 23.1876 22.0459 23.4276 21.5288 23.6283C21.1389 23.7806 20.5524 23.9606 19.4726 24.01C18.3051 24.063 17.9544 24.0746 14.9974 24.0746C12.0402 24.0746 11.6897 24.063 10.5222 24.01C9.44245 23.9601 8.85641 23.7797 8.46579 23.6281C7.94896 23.4274 7.5798 23.1874 7.19218 22.7998C6.80456 22.4122 6.56461 22.0439 6.36342 21.5269C6.21183 21.137 6.03117 20.5509 5.98203 19.4711C5.92896 18.3036 5.91835 17.9529 5.91835 14.9955C5.91835 12.0381 5.92896 11.6892 5.98203 10.5217C6.0314 9.44193 6.21183 8.85588 6.36342 8.4655C6.56415 7.94867 6.80456 7.57951 7.19218 7.19189C7.5798 6.80427 7.94896 6.56431 8.46579 6.36312C8.85618 6.21084 9.44245 6.03088 10.5222 5.98127C11.5439 5.93513 11.9398 5.92128 14.0039 5.91897V5.92174ZM20.9091 7.76063C20.6462 7.76063 20.3892 7.83858 20.1707 7.98463C19.9521 8.13068 19.7818 8.33827 19.6812 8.58114C19.5806 8.824 19.5543 9.09124 19.6057 9.34905C19.657 9.60686 19.7836 9.84366 19.9695 10.0295C20.1554 10.2153 20.3922 10.3419 20.6501 10.3931C20.9079 10.4443 21.1751 10.418 21.418 10.3173C21.6608 10.2166 21.8683 10.0462 22.0143 9.82761C22.1603 9.609 22.2381 9.35201 22.238 9.08915C22.238 8.35544 21.6428 7.76017 20.9091 7.76017V7.76063ZM14.9974 9.31341C11.8565 9.31341 9.31002 11.8599 9.31002 15.0008C9.31002 18.1417 11.8565 20.687 14.9974 20.687C18.1383 20.687 20.6841 18.1417 20.6841 15.0008C20.6841 11.8599 18.138 9.31341 14.9972 9.31341H14.9974ZM14.9974 11.3092C17.0361 11.3092 18.689 12.9619 18.689 15.0008C18.689 17.0395 17.0361 18.6924 14.9974 18.6924C12.9585 18.6924 11.3058 17.0395 11.3058 15.0008C11.3058 12.9619 12.9585 11.3092 14.9974 11.3092Z" fill="white"/>
<defs>
<radialGradient id="paint0_radial_736_18845" cx="0" cy="0" r="1" gradientUnits="userSpaceOnUse" gradientTransform="translate(7.96879 32.3061) rotate(-90) scale(29.7241 27.6533)">
<stop stop-color="#FFDD55"/>
<stop offset="0.1" stop-color="#FFDD55"/>
<stop offset="0.5" stop-color="#FF543E"/>
<stop offset="1" stop-color="#C837AB"/>
</radialGradient>
<radialGradient id="paint1_radial_736_18845" cx="0" cy="0" r="1" gradientTransform="matrix(2.60861 13.0284 -53.7169 10.7557 -5.02516 2.16479)" gradientUnits="userSpaceOnUse">
<stop stop-color="#3771C8"/>
<stop offset="0.128" stop-color="#3771C8"/>
<stop offset="1" stop-color="#6600FF" stop-opacity="0"/>
</radialGradient>
</defs>
</svg>
