<svg width="21" height="21" viewBox="0 0 21 21" fill="none" xmlns="http://www.w3.org/2000/svg">
<path d="M3.83398 18H17.1673M10.084 18C8.90145 17.9998 7.74324 17.664 6.74389 17.0318C5.74453 16.3996 4.94504 15.4969 4.43827 14.4284C3.93149 13.36 3.73823 12.1697 3.88093 10.9958C4.02363 9.8219 4.49644 8.71257 5.24443 7.79666C5.99243 6.88075 6.98492 6.19583 8.10664 5.82146C9.22835 5.4471 10.4333 5.39864 11.5814 5.68172C12.7296 5.9648 13.7739 6.5678 14.593 7.42069C15.4121 8.27358 15.9725 9.34135 16.209 10.5" stroke="black" stroke-opacity="0.83" stroke-width="1.66667" stroke-linecap="round" stroke-linejoin="round"/>
<path d="M8 10.5V3M11.3333 10.5V3" stroke="black" stroke-opacity="0.83" stroke-width="1.66667" stroke-linecap="round" stroke-linejoin="round"/>
</svg>
