<svg width="236" height="63" viewBox="0 0 236 63" fill="none" xmlns="http://www.w3.org/2000/svg">
<path d="M29.8447 24.6622C29.61 22.4664 28.621 20.7567 26.8778 19.533C25.1513 18.3094 22.9052 17.6976 20.1395 17.6976C18.1951 17.6976 16.5273 17.9909 15.136 18.5776C13.7448 19.1643 12.6804 19.9605 11.9429 20.9662C11.2054 21.9719 10.8282 23.1201 10.8115 24.4108C10.8115 25.4835 11.0545 26.4138 11.5406 27.2016C12.0435 27.9895 12.7223 28.6599 13.5772 29.2131C14.432 29.7495 15.3791 30.202 16.4183 30.5708C17.4576 30.9396 18.5052 31.2497 19.5612 31.5011L24.3886 32.7079C26.333 33.1605 28.202 33.7723 29.9955 34.5434C31.8058 35.3144 33.4233 36.2866 34.8481 37.46C36.2896 38.6333 37.4295 40.0497 38.2675 41.7091C39.1056 43.3685 39.5247 45.3129 39.5247 47.5423C39.5247 50.5594 38.7536 53.2162 37.2115 55.5126C35.6694 57.7922 33.4401 59.5774 30.5235 60.868C27.6237 62.1419 24.1121 62.7789 19.9886 62.7789C15.9825 62.7789 12.5044 62.1587 9.55432 60.9183C6.62097 59.6779 4.32458 57.8676 2.66515 55.4874C1.02248 53.1072 0.134096 50.2074 0 46.788H9.17717C9.31127 48.5815 9.86441 50.0733 10.8366 51.2634C11.8088 52.4535 13.0743 53.3419 14.6332 53.9286C16.2088 54.5152 17.9688 54.8086 19.9132 54.8086C21.9414 54.8086 23.7182 54.5069 25.2435 53.9034C26.7856 53.2832 27.9925 52.4284 28.8641 51.3389C29.7357 50.2326 30.1799 48.9419 30.1967 47.4668C30.1799 46.1259 29.786 45.0196 29.0149 44.148C28.2439 43.2596 27.1628 42.5221 25.7715 41.9354C24.397 41.332 22.7879 40.7956 20.9441 40.3263L15.0858 38.8177C10.845 37.7281 7.49259 36.0771 5.02859 33.8645C2.58134 31.6352 1.35772 28.6767 1.35772 24.9891C1.35772 21.9551 2.17905 19.2984 3.82173 17.0187C5.48116 14.7391 7.73564 12.9707 10.5852 11.7136C13.4347 10.4397 16.6614 9.80273 20.2652 9.80273C23.9193 9.80273 27.1208 10.4397 29.8698 11.7136C32.6355 12.9707 34.8062 14.7224 36.3818 16.9685C37.9575 19.1978 38.7704 21.7624 38.8207 24.6622H29.8447Z" fill="#9E9E9E"/>
<path d="M64.5356 62.7537C60.6636 62.7537 57.3196 61.9492 54.5036 60.34C51.7044 58.7141 49.5504 56.4177 48.0419 53.4509C46.5333 50.4672 45.779 46.9556 45.779 42.916C45.779 38.9434 46.5333 35.4569 48.0419 32.4565C49.5672 29.4394 51.696 27.0927 54.4282 25.4165C57.1604 23.7235 60.3703 22.8771 64.0579 22.8771C66.4381 22.8771 68.6842 23.2626 70.7962 24.0336C72.925 24.7879 74.8023 25.9613 76.4282 27.5536C78.0709 29.146 79.3616 31.1742 80.3003 33.6382C81.2389 36.0855 81.7083 39.0021 81.7083 42.388V45.1788H50.0533V39.044H72.9837C72.9669 37.3007 72.5898 35.7502 71.8522 34.3925C71.1147 33.018 70.0838 31.9369 68.7596 31.1491C67.4522 30.3613 65.9269 29.9674 64.1836 29.9674C62.3231 29.9674 60.6888 30.4199 59.2808 31.3251C57.8728 32.2135 56.7748 33.3868 55.987 34.8451C55.216 36.2866 54.8221 37.8706 54.8053 39.5971V44.9526C54.8053 47.1987 55.216 49.1263 56.0373 50.7354C56.8587 52.3278 58.0069 53.5514 59.4819 54.4063C60.957 55.2444 62.6834 55.6634 64.6613 55.6634C65.9855 55.6634 67.184 55.4791 68.2568 55.1103C69.3296 54.7248 70.2598 54.1632 71.0477 53.4257C71.8355 52.6882 72.4305 51.7747 72.8328 50.6851L81.3311 51.6406C80.7947 53.8867 79.7723 55.8478 78.2637 57.524C76.7719 59.1835 74.861 60.4741 72.5311 61.396C70.2012 62.3012 67.536 62.7537 64.5356 62.7537Z" fill="#9E9E9E"/>
<path d="M98.51 10.5067V61.9995H89.4083V10.5067H98.51Z" fill="#9E9E9E"/>
<path d="M116.971 10.5067V61.9995H107.869V10.5067H116.971Z" fill="#9E9E9E"/>
<path d="M160.827 23.3799L147.074 61.9995H137.016L123.263 23.3799H132.968L141.844 52.068H142.246L151.147 23.3799H160.827Z" fill="#9E9E9E"/>
<path d="M167.125 61.9995V23.3799H176.227V61.9995H167.125ZM171.701 17.8988C170.26 17.8988 169.019 17.421 167.98 16.4656C166.941 15.4934 166.421 14.3285 166.421 12.9707C166.421 11.5963 166.941 10.4313 167.98 9.47587C169.019 8.50367 170.26 8.01758 171.701 8.01758C173.159 8.01758 174.4 8.50367 175.422 9.47587C176.462 10.4313 176.981 11.5963 176.981 12.9707C176.981 14.3285 176.462 15.4934 175.422 16.4656C174.4 17.421 173.159 17.8988 171.701 17.8988Z" fill="#9E9E9E"/>
<path d="M195.781 20C195.781 8.95431 204.736 0 215.781 0C226.827 0 235.781 8.95431 235.781 20C235.781 31.0457 226.827 40 215.781 40C204.736 40 195.781 31.0457 195.781 20ZM229.545 20C229.545 12.3985 223.383 6.23623 215.781 6.23623C208.18 6.23623 202.017 12.3985 202.017 20C202.017 27.6015 208.18 33.7638 215.781 33.7638C223.383 33.7638 229.545 27.6015 229.545 20Z" fill="#0866FF"/>
<path d="M222.742 38.7498C223.056 43.7529 221.479 48.6928 218.321 52.5899C215.143 56.5135 210.597 59.0895 205.598 59.8007C200.598 60.5118 195.515 59.3055 191.368 56.4239C187.221 53.5423 184.318 49.1987 183.241 44.2651C182.164 39.3316 182.994 34.1733 185.563 29.8258C188.131 25.4783 192.25 22.2634 197.091 20.8266C201.932 19.3899 207.137 19.8375 211.662 22.0797C216.08 24.269 219.529 28.0109 221.355 32.5821C219.781 33.5 215.781 34 215.028 33.718C213.689 31.1085 211.544 28.9815 208.893 27.6674C205.779 26.1244 202.197 25.8163 198.865 26.8051C195.534 27.7939 192.699 30.0063 190.932 32.9982C189.164 35.9901 188.593 39.54 189.334 42.9352C190.075 46.3304 192.073 49.3196 194.927 51.3027C197.781 53.2858 201.279 54.116 204.72 53.6266C208.16 53.1372 211.288 51.3644 213.476 48.6642C215.471 46.201 216.55 43.1322 216.545 39.9805C218.281 40 221.355 39.2034 222.742 38.7498Z" fill="#9E9E9E"/>
</svg>
