<svg width="244" height="71" viewBox="0 0 244 71" fill="none" xmlns="http://www.w3.org/2000/svg">
<g filter="url(#filter0_d_1_13)">
<path d="M33.8447 28.6622C33.61 26.4664 32.621 24.7567 30.8778 23.533C29.1513 22.3094 26.9052 21.6976 24.1395 21.6976C22.1951 21.6976 20.5273 21.9909 19.136 22.5776C17.7448 23.1643 16.6804 23.9605 15.9429 24.9662C15.2054 25.9719 14.8282 27.1201 14.8115 28.4108C14.8115 29.4835 15.0545 30.4138 15.5406 31.2016C16.0435 31.9895 16.7223 32.6599 17.5772 33.2131C18.432 33.7495 19.3791 34.202 20.4183 34.5708C21.4576 34.9396 22.5052 35.2497 23.5612 35.5011L28.3886 36.7079C30.333 37.1605 32.202 37.7723 33.9955 38.5434C35.8058 39.3144 37.4233 40.2866 38.8481 41.46C40.2896 42.6333 41.4295 44.0497 42.2675 45.7091C43.1056 47.3685 43.5247 49.3129 43.5247 51.5423C43.5247 54.5594 42.7536 57.2162 41.2115 59.5126C39.6694 61.7922 37.4401 63.5774 34.5235 64.868C31.6237 66.1419 28.1121 66.7789 23.9886 66.7789C19.9825 66.7789 16.5044 66.1587 13.5543 64.9183C10.621 63.6779 8.32458 61.8676 6.66515 59.4874C5.02248 57.1072 4.1341 54.2074 4 50.788H13.1772C13.3113 52.5815 13.8644 54.0733 14.8366 55.2634C15.8088 56.4535 17.0743 57.3419 18.6332 57.9286C20.2088 58.5152 21.9688 58.8086 23.9132 58.8086C25.9414 58.8086 27.7182 58.5069 29.2435 57.9034C30.7856 57.2832 31.9925 56.4284 32.8641 55.3389C33.7357 54.2326 34.1799 52.9419 34.1967 51.4668C34.1799 50.1259 33.786 49.0196 33.0149 48.148C32.2439 47.2596 31.1628 46.5221 29.7715 45.9354C28.397 45.332 26.7879 44.7956 24.9441 44.3263L19.0858 42.8177C14.845 41.7281 11.4926 40.0771 9.02859 37.8645C6.58134 35.6352 5.35772 32.6767 5.35772 28.9891C5.35772 25.9551 6.17905 23.2984 7.82173 21.0187C9.48116 18.7391 11.7356 16.9707 14.5852 15.7136C17.4347 14.4397 20.6614 13.8027 24.2652 13.8027C27.9193 13.8027 31.1208 14.4397 33.8698 15.7136C36.6355 16.9707 38.8062 18.7224 40.3818 20.9685C41.9575 23.1978 42.7704 25.7624 42.8207 28.6622H33.8447Z" fill="white"/>
<path d="M68.5356 66.7537C64.6636 66.7537 61.3196 65.9492 58.5036 64.34C55.7044 62.7141 53.5504 60.4177 52.0419 57.4509C50.5333 54.4672 49.779 50.9556 49.779 46.916C49.779 42.9434 50.5333 39.4569 52.0419 36.4565C53.5672 33.4394 55.696 31.0927 58.4282 29.4165C61.1604 27.7235 64.3703 26.8771 68.0579 26.8771C70.4381 26.8771 72.6842 27.2626 74.7962 28.0336C76.925 28.7879 78.8023 29.9613 80.4282 31.5536C82.0709 33.146 83.3616 35.1742 84.3003 37.6382C85.2389 40.0855 85.7083 43.0021 85.7083 46.388V49.1788H54.0533V43.044H76.9837C76.9669 41.3007 76.5898 39.7502 75.8522 38.3925C75.1147 37.018 74.0838 35.9369 72.7596 35.1491C71.4522 34.3613 69.9269 33.9674 68.1836 33.9674C66.3231 33.9674 64.6888 34.4199 63.2808 35.3251C61.8728 36.2135 60.7748 37.3868 59.987 38.8451C59.216 40.2866 58.8221 41.8706 58.8053 43.5971V48.9526C58.8053 51.1987 59.216 53.1263 60.0373 54.7354C60.8587 56.3278 62.0069 57.5514 63.4819 58.4063C64.957 59.2444 66.6834 59.6634 68.6613 59.6634C69.9855 59.6634 71.184 59.4791 72.2568 59.1103C73.3296 58.7248 74.2598 58.1632 75.0477 57.4257C75.8355 56.6882 76.4305 55.7747 76.8328 54.6851L85.3311 55.6406C84.7947 57.8867 83.7723 59.8478 82.2637 61.524C80.7719 63.1835 78.861 64.4741 76.5311 65.396C74.2012 66.3012 71.536 66.7537 68.5356 66.7537Z" fill="white"/>
<path d="M102.51 14.5067V65.9995H93.4083V14.5067H102.51Z" fill="white"/>
<path d="M120.971 14.5067V65.9995H111.869V14.5067H120.971Z" fill="white"/>
<path d="M164.827 27.3799L151.074 65.9995H141.016L127.263 27.3799H136.968L145.844 56.068H146.246L155.147 27.3799H164.827Z" fill="white"/>
<path d="M171.125 65.9995V27.3799H180.227V65.9995H171.125ZM175.701 21.8988C174.26 21.8988 173.019 21.421 171.98 20.4656C170.941 19.4934 170.421 18.3285 170.421 16.9707C170.421 15.5963 170.941 14.4313 171.98 13.4759C173.019 12.5037 174.26 12.0176 175.701 12.0176C177.159 12.0176 178.4 12.5037 179.422 13.4759C180.462 14.4313 180.981 15.5963 180.981 16.9707C180.981 18.3285 180.462 19.4934 179.422 20.4656C178.4 21.421 177.159 21.8988 175.701 21.8988Z" fill="white"/>
</g>
<g filter="url(#filter1_d_1_13)">
<path d="M199.781 24C199.781 12.9543 208.736 4 219.781 4C230.827 4 239.781 12.9543 239.781 24C239.781 35.0457 230.827 44 219.781 44C208.736 44 199.781 35.0457 199.781 24ZM233.545 24C233.545 16.3985 227.383 10.2362 219.781 10.2362C212.18 10.2362 206.017 16.3985 206.017 24C206.017 31.6015 212.18 37.7638 219.781 37.7638C227.383 37.7638 233.545 31.6015 233.545 24Z" fill="#0866FF"/>
<path d="M226.742 42.7498C227.056 47.7529 225.479 52.6928 222.321 56.5899C219.143 60.5135 214.597 63.0895 209.598 63.8007C204.598 64.5118 199.515 63.3055 195.368 60.4239C191.221 57.5423 188.318 53.1987 187.241 48.2651C186.164 43.3316 186.994 38.1733 189.563 33.8258C192.131 29.4783 196.25 26.2634 201.091 24.8266C205.932 23.3899 211.137 23.8375 215.662 26.0797C220.08 28.269 223.529 32.0109 225.355 36.5821C223.781 37.5 219.781 38 219.028 37.718C217.689 35.1085 215.544 32.9815 212.893 31.6674C209.779 30.1244 206.197 29.8163 202.865 30.8051C199.534 31.7939 196.699 34.0063 194.932 36.9982C193.164 39.9901 192.593 43.54 193.334 46.9352C194.075 50.3304 196.073 53.3196 198.927 55.3027C201.781 57.2858 205.279 58.116 208.72 57.6266C212.16 57.1372 215.288 55.3644 217.476 52.6642C219.471 50.201 220.55 47.1322 220.545 43.9805C222.281 44 225.355 43.2034 226.742 42.7498Z" fill="white"/>
</g>
<defs>
<filter id="filter0_d_1_13" x="0" y="8.01758" width="184.981" height="62.7613" filterUnits="userSpaceOnUse" color-interpolation-filters="sRGB">
<feFlood flood-opacity="0" result="BackgroundImageFix"/>
<feColorMatrix in="SourceAlpha" type="matrix" values="0 0 0 0 0 0 0 0 0 0 0 0 0 0 0 0 0 0 127 0" result="hardAlpha"/>
<feOffset/>
<feGaussianBlur stdDeviation="2"/>
<feComposite in2="hardAlpha" operator="out"/>
<feColorMatrix type="matrix" values="0 0 0 0 0 0 0 0 0 0 0 0 0 0 0 0 0 0 0.25 0"/>
<feBlend mode="normal" in2="BackgroundImageFix" result="effect1_dropShadow_1_13"/>
<feBlend mode="normal" in="SourceGraphic" in2="effect1_dropShadow_1_13" result="shape"/>
</filter>
<filter id="filter1_d_1_13" x="182.781" y="0" width="61.0001" height="68.0001" filterUnits="userSpaceOnUse" color-interpolation-filters="sRGB">
<feFlood flood-opacity="0" result="BackgroundImageFix"/>
<feColorMatrix in="SourceAlpha" type="matrix" values="0 0 0 0 0 0 0 0 0 0 0 0 0 0 0 0 0 0 127 0" result="hardAlpha"/>
<feOffset/>
<feGaussianBlur stdDeviation="2"/>
<feComposite in2="hardAlpha" operator="out"/>
<feColorMatrix type="matrix" values="0 0 0 0 0 0 0 0 0 0 0 0 0 0 0 0 0 0 0.25 0"/>
<feBlend mode="normal" in2="BackgroundImageFix" result="effect1_dropShadow_1_13"/>
<feBlend mode="normal" in="SourceGraphic" in2="effect1_dropShadow_1_13" result="shape"/>
</filter>
</defs>
</svg>
