<svg width="20" height="21" viewBox="0 0 20 21" fill="none" xmlns="http://www.w3.org/2000/svg">
<g opacity="0.65" clip-path="url(#clip0_736_18691)">
<path d="M17.5 8.83203C17.5 14.6654 10 19.6654 10 19.6654C10 19.6654 2.5 14.6654 2.5 8.83203C2.5 6.84291 3.29018 4.93525 4.6967 3.52873C6.10322 2.12221 8.01088 1.33203 10 1.33203C11.9891 1.33203 13.8968 2.12221 15.3033 3.52873C16.7098 4.93525 17.5 6.84291 17.5 8.83203Z" stroke="black" stroke-width="1.66667" stroke-linecap="round" stroke-linejoin="round"/>
<path d="M10 11.332C11.3807 11.332 12.5 10.2127 12.5 8.83203C12.5 7.45132 11.3807 6.33203 10 6.33203C8.61929 6.33203 7.5 7.45132 7.5 8.83203C7.5 10.2127 8.61929 11.332 10 11.332Z" stroke="black" stroke-width="1.66667" stroke-linecap="round" stroke-linejoin="round"/>
</g>
<defs>
<clipPath id="clip0_736_18691">
<rect width="20" height="20" fill="white" transform="translate(0 0.5)"/>
</clipPath>
</defs>
</svg>
