<svg width="20" height="20" viewBox="0 0 20 20" fill="none" xmlns="http://www.w3.org/2000/svg">
<path d="M6.67188 14.999L8.58021 16.9074C8.76687 17.0954 8.98888 17.2445 9.23346 17.3464C9.47804 17.4481 9.74029 17.5005 10.0052 17.5005C10.2701 17.5005 10.5324 17.4481 10.777 17.3464C11.0215 17.2445 11.2435 17.0954 11.4302 16.9074L13.3385 14.999H15.0052C15.8893 14.999 16.7371 14.6479 17.3622 14.0228C17.9874 13.3976 18.3385 12.5498 18.3385 11.6657V5.83236C18.3385 4.9483 17.9874 4.10051 17.3622 3.47538C16.7371 2.85027 15.8893 2.49902 15.0052 2.49902H5.00521C4.12115 2.49902 3.27331 2.85027 2.64818 3.47538C2.02306 4.10051 1.67188 4.9483 1.67188 5.83236V11.6657C1.67188 12.5498 2.02306 13.3976 2.64818 14.0228C3.27331 14.6479 4.12115 14.999 5.00521 14.999H6.67188Z" stroke="white" stroke-linecap="round" stroke-linejoin="round"/>
<mask id="mask0_2469_3170" style="mask-type:luminance" maskUnits="userSpaceOnUse" x="5" y="8" width="10" height="2">
<path d="M14.1654 8.33105H5.83203V9.99772H14.1654V8.33105Z" fill="white"/>
</mask>
<g mask="url(#mask0_2469_3170)">
<path d="M13.3372 9.99766C13.2289 9.999 13.1213 9.97916 13.0206 9.93933C12.9182 9.89608 12.8249 9.83391 12.7456 9.75608C12.6707 9.67925 12.6112 9.58866 12.5706 9.48933C12.5286 9.386 12.506 9.27583 12.5039 9.16433C12.5048 8.94566 12.5917 8.73625 12.7456 8.581C12.8227 8.50041 12.9166 8.43783 13.0206 8.39775C13.1732 8.33491 13.3409 8.31879 13.5026 8.35141C13.6642 8.38408 13.8127 8.464 13.9289 8.581C14.0828 8.73625 14.1697 8.94566 14.1706 9.16433C14.1685 9.27583 14.1459 9.386 14.1039 9.48933C14.0633 9.58866 14.0038 9.67925 13.9289 9.75608C13.8511 9.83325 13.7587 9.89433 13.6572 9.93583C13.5557 9.97725 13.4469 9.99825 13.3372 9.99766Z" fill="white"/>
<path d="M9.9974 9.99766C9.88906 9.999 9.78148 9.97916 9.68073 9.93933C9.57831 9.89608 9.48506 9.83391 9.40573 9.75608C9.33081 9.67925 9.27131 9.58866 9.23073 9.48933C9.18873 9.386 9.16615 9.27583 9.16406 9.16433C9.16498 8.94566 9.25181 8.73625 9.40573 8.581C9.48281 8.50041 9.57673 8.43783 9.68073 8.39775C9.83331 8.33491 10.0011 8.31879 10.1627 8.35141C10.3244 8.38408 10.4728 8.464 10.5891 8.581C10.743 8.73625 10.8298 8.94566 10.8307 9.16433C10.8286 9.27583 10.8061 9.386 10.7641 9.48933C10.7235 9.58866 10.664 9.67925 10.5891 9.75608C10.5112 9.83325 10.4188 9.89433 10.3173 9.93583C10.2158 9.97725 10.1071 9.99825 9.9974 9.99766Z" fill="white"/>
<path d="M6.66536 9.99766C6.55702 9.999 6.44946 9.97916 6.3487 9.93933C6.24631 9.89608 6.15302 9.83391 6.07371 9.75608C5.99875 9.67925 5.93931 9.58866 5.89869 9.48933C5.8567 9.386 5.83411 9.27583 5.83203 9.16433C5.83295 8.94566 5.91975 8.73625 6.07371 8.581C6.15078 8.50041 6.24466 8.43783 6.3487 8.39775C6.50124 8.33491 6.66899 8.31879 6.83069 8.35141C6.9924 8.38408 7.14076 8.464 7.25702 8.581C7.41098 8.73625 7.49778 8.94566 7.4987 9.16433C7.49661 9.27583 7.47403 9.386 7.43204 9.48933C7.39142 9.58866 7.33198 9.67925 7.25702 9.75608C7.17916 9.83325 7.08682 9.89433 6.98529 9.93583C6.88376 9.97725 6.77504 9.99825 6.66536 9.99766Z" fill="white"/>
</g>
</svg>
