<svg width="22" height="23" viewBox="0 0 22 23" fill="none" xmlns="http://www.w3.org/2000/svg">
<g clip-path="url(#clip0_2_74)">
<path d="M10.0572 19.7009C8.89031 19.665 7.8491 19.5573 6.93356 19.3778C6.01801 19.1803 5.18325 18.911 4.42927 18.57V15.0963C5.1653 15.4553 6.05391 15.7874 7.09512 16.0926C8.13633 16.3798 9.12368 16.5504 10.0572 16.6042V12.5381C9.01597 12.1252 8.12735 11.7303 7.39133 11.3533C6.67325 10.9763 6.08982 10.5814 5.64102 10.1685C5.21018 9.73764 4.89602 9.27089 4.69855 8.76824C4.50108 8.24764 4.40234 7.65523 4.40234 6.99101C4.40234 6.09341 4.63572 5.32148 5.10247 4.67522C5.58717 4.011 6.25138 3.48142 7.09512 3.08648C7.95681 2.69154 8.94416 2.44919 10.0572 2.35943V0.339844H11.8613V2.30557C12.8666 2.34148 13.8091 2.45816 14.6888 2.65563C15.5863 2.8531 16.457 3.14033 17.3008 3.51732L16.0621 6.58709C15.344 6.28191 14.6169 6.04853 13.8809 5.88697C13.1628 5.7254 12.4897 5.61769 11.8613 5.56384V9.44143C12.8307 9.80047 13.7553 10.1954 14.6349 10.6263C15.5145 11.0392 16.2236 11.5687 16.7622 12.215C17.3187 12.8613 17.597 13.714 17.597 14.7731C17.597 16.0836 17.1212 17.1787 16.1698 18.0583C15.2183 18.938 13.7822 19.4675 11.8613 19.6471V22.3398H10.0572V19.7009ZM11.8613 16.5234C12.4717 16.4157 12.9205 16.2362 13.2077 15.9849C13.495 15.7156 13.6386 15.3745 13.6386 14.9616C13.6386 14.7103 13.5668 14.4949 13.4232 14.3154C13.2975 14.1179 13.1 13.9384 12.8307 13.7768C12.5794 13.5973 12.2563 13.4178 11.8613 13.2383V16.5234ZM10.0572 5.61769C9.69814 5.67155 9.39296 5.76131 9.14163 5.88697C8.89031 5.99468 8.69284 6.14727 8.54922 6.34474C8.42356 6.52426 8.36073 6.73968 8.36073 6.99101C8.36073 7.24233 8.41458 7.46673 8.52229 7.6642C8.64796 7.84372 8.83645 8.02324 9.08778 8.20276C9.3391 8.36432 9.66224 8.53487 10.0572 8.71439V5.61769Z" fill="#111827"/>
</g>
<defs>
<clipPath id="clip0_2_74">
<rect width="22" height="22" fill="white" transform="translate(0 0.5)"/>
</clipPath>
</defs>
</svg>
