<svg width="20" height="20" viewBox="0 0 20 20" fill="none" xmlns="http://www.w3.org/2000/svg">
<g clip-path="url(#clip0_1_388)">
<path fill-rule="evenodd" clip-rule="evenodd" d="M13.3307 7.50008C13.3307 8.38414 12.9795 9.23198 12.3544 9.8571C11.7293 10.4822 10.8815 10.8334 9.9974 10.8334C9.11334 10.8334 8.26549 10.4822 7.64037 9.8571C7.01525 9.23198 6.66406 8.38414 6.66406 7.50008C6.66406 6.61603 7.01525 5.76818 7.64037 5.14306C8.26549 4.51794 9.11334 4.16675 9.9974 4.16675C10.8815 4.16675 11.7293 4.51794 12.3544 5.14306C12.9795 5.76818 13.3307 6.61603 13.3307 7.50008ZM11.6641 7.50008C11.6641 7.94211 11.4885 8.36603 11.1759 8.67859C10.8633 8.99115 10.4394 9.16675 9.9974 9.16675C9.55537 9.16675 9.13145 8.99115 8.81888 8.67859C8.50632 8.36603 8.33073 7.94211 8.33073 7.50008C8.33073 7.05805 8.50632 6.63413 8.81888 6.32157C9.13145 6.00901 9.55537 5.83341 9.9974 5.83341C10.4394 5.83341 10.8633 6.00901 11.1759 6.32157C11.4885 6.63413 11.6641 7.05805 11.6641 7.50008Z" fill="#111827" fill-opacity="0.86"/>
<path fill-rule="evenodd" clip-rule="evenodd" d="M9.99748 0.833412C4.93498 0.833412 0.830811 4.93758 0.830811 10.0001C0.830811 15.0626 4.93498 19.1667 9.99748 19.1667C15.06 19.1667 19.1641 15.0626 19.1641 10.0001C19.1641 4.93758 15.06 0.833412 9.99748 0.833412ZM2.49748 10.0001C2.49748 11.7417 3.09164 13.3451 4.08748 14.6184C4.78701 13.7002 5.68927 12.956 6.72384 12.444C7.75841 11.932 8.89731 11.666 10.0516 11.6667C11.1911 11.6654 12.3159 11.9243 13.3401 12.4237C14.3643 12.9231 15.261 13.6498 15.9616 14.5484C16.6837 13.6014 17.1698 12.4961 17.3799 11.3239C17.5899 10.1517 17.5178 8.94636 17.1696 7.80757C16.8213 6.66877 16.2068 5.62929 15.377 4.77511C14.5473 3.92093 13.526 3.27663 12.3978 2.8955C11.2696 2.51438 10.0668 2.40739 8.88903 2.58339C7.71125 2.75939 6.5923 3.21332 5.62478 3.90762C4.65727 4.60193 3.86899 5.51664 3.32517 6.57608C2.78135 7.63551 2.49763 8.80922 2.49748 10.0001ZM9.99748 17.5001C8.27573 17.5029 6.60593 16.9105 5.27081 15.8234C5.80815 15.0539 6.52347 14.4257 7.35587 13.9921C8.18828 13.5586 9.11311 13.3326 10.0516 13.3334C10.9785 13.3326 11.8921 13.553 12.7166 13.9762C13.5412 14.3994 14.2528 15.0132 14.7925 15.7667C13.447 16.8892 11.7497 17.5028 9.99748 17.5001Z" fill="#111827" fill-opacity="0.86"/>
</g>
<defs>
<clipPath id="clip0_1_388">
<rect width="20" height="20" fill="white"/>
</clipPath>
</defs>
</svg>
