<svg width="28" height="28" viewBox="0 0 28 28" fill="none" xmlns="http://www.w3.org/2000/svg">
<path d="M9.51042 18.4917L24.5 4.66667M14.379 14L9.50833 9.50833M24.5 23.3333L17.5 16.878M10.5 7C10.5 8.93299 8.93299 10.5 7 10.5C5.06701 10.5 3.5 8.93299 3.5 7C3.5 5.06701 5.06701 3.5 7 3.5C8.93299 3.5 10.5 5.06701 10.5 7ZM10.5 21C10.5 22.933 8.93299 24.5 7 24.5C5.06701 24.5 3.5 22.933 3.5 21C3.5 19.0669 5.06701 17.5 7 17.5C8.93299 17.5 10.5 19.0669 10.5 21Z" stroke="#0866FF" stroke-width="2.33333" stroke-linecap="round" stroke-linejoin="round"/>
</svg>
