<svg width="28" height="28" viewBox="0 0 28 28" fill="none" xmlns="http://www.w3.org/2000/svg">
<path d="M14.0011 3.60657C14.0083 3.60658 14.0096 3.60713 14.0109 3.60754C14.0145 3.60874 14.0336 3.61612 14.0704 3.64075C14.1561 3.69811 14.3 3.82638 14.5109 4.10168C14.9483 4.67286 15.4506 5.56737 16.2101 6.92981L16.5929 7.61633C16.9573 8.26999 17.3019 8.94105 17.8917 9.38879C18.4895 9.84263 19.2256 9.98196 19.9318 10.1417L20.674 10.3097C22.1519 10.6441 23.1118 10.8652 23.7589 11.1202C24.3769 11.3638 24.3845 11.5141 24.3849 11.5177C24.3895 11.5327 24.4642 11.6828 24.088 12.2804C23.7032 12.8916 23.0455 13.6664 22.0402 14.8419L21.5343 15.4337C21.0472 16.0033 20.5481 16.55 20.3273 17.2599V17.2609C20.1632 17.7891 20.1753 18.3359 20.2228 18.8976L20.2765 19.464L20.3527 20.254C20.5045 21.8208 20.6022 22.857 20.5695 23.5929C20.5536 23.9481 20.509 24.1505 20.4669 24.2628C20.4333 24.3524 20.4093 24.3675 20.4005 24.3741C20.3937 24.3793 20.3876 24.3897 20.3234 24.3937C20.2308 24.3994 20.0505 24.3857 19.7306 24.2941C19.0637 24.103 18.1621 23.6919 16.7784 23.0548L16.0831 22.7345C15.4266 22.4322 14.7501 22.0901 14.0011 22.09C13.252 22.09 12.5747 22.4322 11.9181 22.7345L11.2238 23.0548C9.83972 23.692 8.93759 24.103 8.27063 24.2941C7.95112 24.3856 7.77146 24.3993 7.67883 24.3937C7.61534 24.3898 7.60833 24.3794 7.60168 24.3741C7.59295 24.3675 7.56795 24.3527 7.5343 24.2628C7.49225 24.1505 7.44759 23.948 7.43176 23.5929C7.39898 22.857 7.49673 21.8208 7.64856 20.254L7.72473 19.464C7.7985 18.7027 7.89403 17.9645 7.67493 17.2599C7.45414 16.55 6.95502 16.0033 6.4679 15.4337L5.96106 14.8419C4.95577 13.6664 4.29804 12.8916 3.91321 12.2804C3.53703 11.6828 3.61168 11.5327 3.61633 11.5177C3.61669 11.5161 3.62042 11.3654 4.24231 11.1202C4.88944 10.8652 5.85019 10.6441 7.32825 10.3097L8.07043 10.1417C8.7764 9.98199 9.51174 9.84255 10.1095 9.38879C10.6993 8.94104 11.0447 8.27045 11.4093 7.61633L11.7911 6.92981C12.5506 5.56732 13.0529 4.67288 13.4904 4.10168C13.7011 3.82652 13.845 3.6982 13.9308 3.64075C13.9687 3.61539 13.9885 3.60845 13.9913 3.60754C13.9925 3.60713 13.9942 3.60657 14.0011 3.60657Z" stroke="#0866FF" stroke-width="2.54545"/>
</svg>
