<svg width="18" height="19" viewBox="0 0 18 19" fill="none" xmlns="http://www.w3.org/2000/svg">
<path d="M6.86493 4.55628C7.81491 2.8521 8.28989 2 9.00006 2C9.71024 2 10.1852 2.85209 11.1352 4.55628L11.3809 4.99717C11.6509 5.48145 11.7859 5.72359 11.9964 5.88336C12.2068 6.04312 12.4689 6.10243 12.9931 6.22104L13.4704 6.32902C15.3151 6.74642 16.2376 6.95512 16.457 7.6608C16.6765 8.36645 16.0477 9.10183 14.79 10.5724L14.4646 10.9529C14.1073 11.3708 13.9285 11.5798 13.8481 11.8383C13.7678 12.0968 13.7948 12.3756 13.8488 12.9332L13.898 13.4408C14.0881 15.403 14.1832 16.384 13.6087 16.8202C13.0342 17.2563 12.1705 16.8586 10.4433 16.0634L9.99644 15.8576C9.50564 15.6316 9.26024 15.5186 9.00006 15.5186C8.73989 15.5186 8.49449 15.6316 8.00369 15.8576L7.55684 16.0634C5.82957 16.8586 4.96595 17.2563 4.39143 16.8202C3.8169 16.384 3.91197 15.403 4.10211 13.4408L4.1513 12.9332C4.20533 12.3756 4.23235 12.0968 4.15196 11.8383C4.07157 11.5798 3.89288 11.3708 3.5355 10.9529L3.21014 10.5724C1.9525 9.10183 1.32368 8.36645 1.54313 7.6608C1.76258 6.95512 2.68496 6.74642 4.52972 6.32902L5.00698 6.22104C5.5312 6.10243 5.79331 6.04312 6.00377 5.88336C6.21422 5.72359 6.34921 5.48146 6.61916 4.99717L6.86493 4.55628Z" fill="#FFD22F"/>
</svg>
