<svg width="22" height="23" viewBox="0 0 22 23" fill="none" xmlns="http://www.w3.org/2000/svg">
<path fill-rule="evenodd" clip-rule="evenodd" d="M6.6 19.8806H3.29999C2.69279 19.8806 2.20001 19.4112 2.20001 18.833C2.20001 18.2547 2.69279 17.7853 3.29999 17.7853H6.6C7.2072 17.7853 7.70001 18.2547 7.70001 18.833C7.70001 19.4112 7.2072 19.8806 6.6 19.8806ZM7.70001 15.6901H2.20001C0.984506 15.6901 0 16.6277 0 17.7853V19.8806C0 21.0382 0.984506 21.9758 2.20001 21.9758H7.70001C8.91551 21.9758 9.9 21.0382 9.9 19.8806V17.7853C9.9 16.6277 8.91551 15.6901 7.70001 15.6901ZM18.7 5.21391H15.4C14.7928 5.21391 14.3 4.74458 14.3 4.16629C14.3 3.58801 14.7928 3.11868 15.4 3.11868H18.7C19.3072 3.11868 19.8 3.58801 19.8 4.16629C19.8 4.74458 19.3072 5.21391 18.7 5.21391ZM19.8 1.02344H14.3C13.0845 1.02344 12.1 1.96106 12.1 3.11868V5.21391C12.1 6.37153 13.0845 7.30915 14.3 7.30915H19.8C21.0155 7.30915 22 6.37153 22 5.21391V3.11868C22 1.96106 21.0155 1.02344 19.8 1.02344ZM19.8 18.833C19.8 19.4112 19.3072 19.8806 18.7 19.8806H15.4C14.7928 19.8806 14.3 19.4112 14.3 18.833V12.5472C14.3 11.969 14.7928 11.4996 15.4 11.4996H18.7C19.3072 11.4996 19.8 11.969 19.8 12.5472V18.833ZM19.8 9.40439H14.3C13.0845 9.40439 12.1 10.342 12.1 11.4996V19.8806C12.1 21.0382 13.0845 21.9758 14.3 21.9758H19.8C21.0155 21.9758 22 21.0382 22 19.8806V11.4996C22 10.342 21.0155 9.40439 19.8 9.40439ZM7.70001 10.452C7.70001 11.0303 7.2072 11.4996 6.6 11.4996H3.29999C2.69279 11.4996 2.20001 11.0303 2.20001 10.452V4.16629C2.20001 3.58801 2.69279 3.11868 3.29999 3.11868H6.6C7.2072 3.11868 7.70001 3.58801 7.70001 4.16629V10.452ZM7.70001 1.02344H2.20001C0.984506 1.02344 0 1.96106 0 3.11868V11.4996C0 12.6572 0.984506 13.5949 2.20001 13.5949H7.70001C8.91551 13.5949 9.9 12.6572 9.9 11.4996V3.11868C9.9 1.96106 8.91551 1.02344 7.70001 1.02344Z" fill="black"/>
</svg>
