<svg width="30" height="30" viewBox="0 0 30 30" fill="none" xmlns="http://www.w3.org/2000/svg">
<path d="M21.469 10.8293C23.3982 12.2133 25.7616 13.0276 28.3141 13.0276V8.09826C27.831 8.09837 27.3492 8.04781 26.8766 7.94733V11.8274C24.3243 11.8274 21.9612 11.0131 20.0315 9.62925V19.6886C20.0315 24.7208 15.9666 28.7999 10.9526 28.7999C9.08179 28.7999 7.34292 28.2323 5.89844 27.2588C7.54708 28.9505 9.84623 30 12.3898 30C17.4042 30 21.4693 25.9209 21.4693 20.8885V10.8293H21.469ZM23.2424 5.85624C22.2565 4.77528 21.6091 3.37834 21.469 1.83397V1.19995H20.1068C20.4497 3.16285 21.6193 4.83984 23.2424 5.85624ZM9.0698 23.3973C8.51895 22.6724 8.22128 21.7857 8.22261 20.8741C8.22261 18.5725 10.0819 16.7064 12.3757 16.7064C12.8032 16.7063 13.2281 16.772 13.6355 16.9017V11.8622C13.1594 11.7967 12.6789 11.7689 12.1986 11.7791V15.7016C11.7909 15.5719 11.3658 15.506 10.9382 15.5064C8.64436 15.5064 6.7852 17.3723 6.7852 19.6742C6.7852 21.3017 7.71453 22.7108 9.0698 23.3973Z" fill="#FF004F"/>
<path d="M20.0332 9.62915C21.9629 11.013 24.3259 11.8273 26.8783 11.8273V7.94722C25.4536 7.64267 24.1923 6.8955 23.244 5.85624C21.6208 4.83973 20.4514 3.16275 20.1085 1.19995H16.5302V20.8883C16.5221 23.1835 14.666 25.042 12.3771 25.042C11.0283 25.042 9.83005 24.3968 9.07115 23.3973C7.71598 22.7108 6.78666 21.3016 6.78666 19.6743C6.78666 17.3726 8.64582 15.5065 10.9396 15.5065C11.3791 15.5065 11.8027 15.5752 12.2001 15.7017V11.7792C7.27414 11.8814 3.3125 15.9206 3.3125 20.8884C3.3125 23.3682 4.29904 25.6163 5.9002 27.2589C7.34468 28.2323 9.08356 28.8 10.9544 28.8C15.9685 28.8 20.0333 24.7207 20.0333 19.6886V9.62915H20.0332Z" fill="black"/>
<path d="M26.8782 7.94725V6.89811C25.5934 6.90006 24.3339 6.53899 23.2439 5.85617C24.2088 6.91633 25.4794 7.64733 26.8782 7.94725ZM20.1084 1.19998C20.0757 1.01239 20.0505 0.823564 20.0331 0.634017V0H15.0925V19.6885C15.0846 21.9835 13.2287 23.842 10.9395 23.842C10.2675 23.842 9.63298 23.6819 9.07106 23.3974C9.82996 24.3968 11.0282 25.0419 12.3771 25.0419C14.6658 25.0419 16.5221 23.1836 16.5301 20.8884V1.19998H20.1084ZM12.2002 11.7793V10.6624C11.7873 10.6057 11.3711 10.5773 10.9544 10.5775C5.93989 10.5774 1.875 14.6567 1.875 19.6885C1.875 22.8432 3.47258 25.6233 5.90021 27.2587C4.29905 25.6162 3.31251 23.368 3.31251 20.8883C3.31251 15.9207 7.27404 11.8814 12.2002 11.7793Z" fill="#00F2EA"/>
</svg>
