<svg width="40" height="40" viewBox="0 0 40 40" fill="none" xmlns="http://www.w3.org/2000/svg">
<rect x="2" y="2" width="36" height="36" rx="7.2" fill="black"/>
<path d="M25.2007 16.6476C26.7514 17.7601 28.6511 18.4146 30.7029 18.4146V14.4523C30.3146 14.4524 29.9273 14.4117 29.5474 14.331V17.4499C27.4958 17.4499 25.5963 16.7953 24.0451 15.6829V23.7689C24.0451 27.8139 20.7777 31.0928 16.7473 31.0928C15.2434 31.0928 13.8457 30.6366 12.6846 29.8541C14.0098 31.2139 15.8579 32.0575 17.9025 32.0575C21.9332 32.0575 25.2008 28.7786 25.2008 24.7334V16.6476H25.2007ZM26.6261 12.6501C25.8336 11.7812 25.3133 10.6583 25.2007 9.41687V8.90723H24.1056C24.3813 10.4851 25.3214 11.8331 26.6261 12.6501ZM15.2338 26.75C14.791 26.1674 14.5517 25.4547 14.5528 24.7218C14.5528 22.8718 16.0473 21.3717 17.8912 21.3717C18.2348 21.3717 18.5764 21.4245 18.9038 21.5287V17.4778C18.5211 17.4252 18.1349 17.4029 17.7488 17.4111V20.5641C17.4211 20.4598 17.0794 20.4068 16.7357 20.4072C14.8918 20.4072 13.3974 21.907 13.3974 23.7573C13.3974 25.0656 14.1444 26.1983 15.2338 26.75Z" fill="#EB1654"/>
<path d="M24.0459 15.6827C25.5971 16.7951 27.4965 17.4497 29.5482 17.4497V14.3307C28.403 14.0859 27.3891 13.4853 26.6269 12.65C25.3221 11.8329 24.382 10.4849 24.1064 8.9071H21.2301V24.7331C21.2236 26.5781 19.7316 28.072 17.8918 28.072C16.8075 28.072 15.8443 27.5534 15.2343 26.7499C14.145 26.1981 13.398 25.0654 13.398 23.7573C13.398 21.9072 14.8924 20.4071 16.7363 20.4071C17.0895 20.4071 17.43 20.4623 17.7494 20.564V17.411C13.7898 17.4931 10.6053 20.74 10.6053 24.7332C10.6053 26.7266 11.3984 28.5337 12.6854 29.854C13.8465 30.6364 15.2443 31.0928 16.7481 31.0928C20.7786 31.0928 24.046 27.8137 24.046 23.7688L24.0459 15.6827Z" fill="white"/>
<path d="M29.5475 14.3306V13.4873C28.5148 13.4888 27.5023 13.1986 26.6262 12.6497C27.4018 13.5019 28.4231 14.0895 29.5475 14.3306ZM24.1057 8.90696C24.0794 8.75617 24.0592 8.60439 24.0452 8.45202V7.94238H20.0738V23.7686C20.0675 25.6133 18.5756 27.1072 16.7356 27.1072C16.1953 27.1072 15.6853 26.9785 15.2336 26.7498C15.8436 27.5532 16.8068 28.0718 17.8911 28.0718C19.7308 28.0718 21.223 26.578 21.2294 24.7331V8.90696H24.1057ZM17.7489 17.4109V16.5131C17.417 16.4676 17.0825 16.4447 16.7475 16.4449C12.7167 16.4448 9.44922 19.7239 9.44922 23.7686C9.44922 26.3043 10.7334 28.5391 12.6848 29.8537C11.3977 28.5334 10.6047 26.7263 10.6047 24.733C10.6047 20.7398 13.7891 17.493 17.7489 17.4109Z" fill="#0CBAC6"/>
</svg>
