<svg width="14" height="15" viewBox="0 0 14 15" fill="none" xmlns="http://www.w3.org/2000/svg">
<g clip-path="url(#clip0_1_250)">
<path d="M9.91668 12.75V11.5833C9.91668 10.9645 9.67084 10.371 9.23326 9.93342C8.79567 9.49583 8.20218 9.25 7.58334 9.25H2.91668C2.29784 9.25 1.70435 9.49583 1.26676 9.93342C0.829176 10.371 0.583344 10.9645 0.583344 11.5833V12.75" stroke="#3012B3" stroke-width="2" stroke-linecap="round" stroke-linejoin="round"/>
<path d="M5.24999 6.91667C6.53865 6.91667 7.58332 5.872 7.58332 4.58333C7.58332 3.29467 6.53865 2.25 5.24999 2.25C3.96133 2.25 2.91666 3.29467 2.91666 4.58333C2.91666 5.872 3.96133 6.91667 5.24999 6.91667Z" stroke="#3012B3" stroke-width="2" stroke-linecap="round" stroke-linejoin="round"/>
<path d="M13.4167 12.75V11.5833C13.4163 11.0663 13.2442 10.5641 12.9275 10.1555C12.6107 9.74689 12.1672 9.45505 11.6667 9.32581" stroke="#3012B3" stroke-width="2" stroke-linecap="round" stroke-linejoin="round"/>
<path d="M9.33334 2.32581C9.83525 2.45431 10.2801 2.74621 10.5978 3.15549C10.9155 3.56476 11.0879 4.06812 11.0879 4.58622C11.0879 5.10432 10.9155 5.60769 10.5978 6.01696C10.2801 6.42623 9.83525 6.71813 9.33334 6.84664" stroke="#3012B3" stroke-width="2" stroke-linecap="round" stroke-linejoin="round"/>
</g>
<defs>
<clipPath id="clip0_1_250">
<rect width="14" height="14" fill="white" transform="translate(0 0.5)"/>
</clipPath>
</defs>
</svg>
