<svg width="31" height="30" viewBox="0 0 31 30" fill="none" xmlns="http://www.w3.org/2000/svg">
<g clip-path="url(#clip0_736_18855)">
<path d="M29.904 7.73237C29.7344 7.09414 29.4001 6.51165 28.9346 6.04319C28.4692 5.57474 27.8888 5.23675 27.2517 5.06305C24.9062 4.43237 15.5312 4.43237 15.5312 4.43237C15.5312 4.43237 6.15625 4.43237 3.8108 5.06305C3.17366 5.23675 2.59332 5.57474 2.12786 6.04319C1.6624 6.51165 1.32813 7.09414 1.15852 7.73237C0.53125 10.0881 0.53125 15.0006 0.53125 15.0006C0.53125 15.0006 0.53125 19.9131 1.15852 22.2687C1.32813 22.907 1.6624 23.4895 2.12786 23.9579C2.59332 24.4264 3.17366 24.7644 3.8108 24.9381C6.15625 25.5687 15.5312 25.5687 15.5312 25.5687C15.5312 25.5687 24.9062 25.5687 27.2517 24.9381C27.8888 24.7644 28.4692 24.4264 28.9346 23.9579C29.4001 23.4895 29.7344 22.907 29.904 22.2687C30.5313 19.9131 30.5312 15.0006 30.5312 15.0006C30.5312 15.0006 30.5313 10.0881 29.904 7.73237Z" fill="#FF0302"/>
<path d="M12.4609 19.4611V10.5396L20.3018 15.0003L12.4609 19.4611Z" fill="#FEFEFE"/>
</g>
<defs>
<clipPath id="clip0_736_18855">
<rect width="30" height="30" fill="white" transform="translate(0.5)"/>
</clipPath>
</defs>
</svg>
