<svg width="17" height="16" viewBox="0 0 17 16" fill="none" xmlns="http://www.w3.org/2000/svg">
<path d="M15.1673 8.00007C15.1673 11.6819 12.1825 14.6667 8.50065 14.6667C4.81875 14.6667 1.83398 11.6819 1.83398 8.00007C1.83398 4.31817 4.81875 1.3334 8.50065 1.3334C12.1825 1.3334 15.1673 4.31817 15.1673 8.00007Z" fill="#00D540"/>
<path d="M11.1862 5.97985C11.3815 6.17511 11.3815 6.4917 11.1862 6.68694L7.85288 10.0203C7.65761 10.2155 7.34108 10.2155 7.14579 10.0203L5.81246 8.68694C5.6172 8.49167 5.6172 8.17514 5.81246 7.97987C6.00772 7.7846 6.32431 7.7846 6.51957 7.97987L7.49935 8.9596L8.98921 7.46974L10.4791 5.97985C10.6744 5.78459 10.9909 5.78459 11.1862 5.97985Z" fill="white"/>
</svg>
