<svg width="37" height="36" viewBox="0 0 37 36" fill="none" xmlns="http://www.w3.org/2000/svg">
<path d="M28.5 0.5H8.5C4.35786 0.5 1 3.85786 1 8V28C1 32.1421 4.35786 35.5 8.5 35.5H28.5C32.6421 35.5 36 32.1421 36 28V8C36 3.85786 32.6421 0.5 28.5 0.5Z" fill="url(#paint0_radial_1158_262)"/>
<path d="M28.5 0.5H8.5C4.35786 0.5 1 3.85786 1 8V28C1 32.1421 4.35786 35.5 8.5 35.5H28.5C32.6421 35.5 36 32.1421 36 28V8C36 3.85786 32.6421 0.5 28.5 0.5Z" fill="url(#paint1_radial_1158_262)"/>
<path d="M28.5 0.5H8.5C4.35786 0.5 1 3.85786 1 8V28C1 32.1421 4.35786 35.5 8.5 35.5H28.5C32.6421 35.5 36 32.1421 36 28V8C36 3.85786 32.6421 0.5 28.5 0.5Z" fill="url(#paint2_radial_1158_262)"/>
<path d="M27.25 11.125C27.25 12.1605 26.4105 13 25.375 13C24.3395 13 23.5 12.1605 23.5 11.125C23.5 10.0895 24.3395 9.25 25.375 9.25C26.4105 9.25 27.25 10.0895 27.25 11.125Z" fill="white"/>
<path fill-rule="evenodd" clip-rule="evenodd" d="M18.5 24.25C21.9517 24.25 24.75 21.4517 24.75 18C24.75 14.5482 21.9517 11.75 18.5 11.75C15.0482 11.75 12.25 14.5482 12.25 18C12.25 21.4517 15.0482 24.25 18.5 24.25ZM18.5 21.75C20.5711 21.75 22.25 20.0711 22.25 18C22.25 15.9289 20.5711 14.25 18.5 14.25C16.4289 14.25 14.75 15.9289 14.75 18C14.75 20.0711 16.4289 21.75 18.5 21.75Z" fill="white"/>
<path fill-rule="evenodd" clip-rule="evenodd" d="M6 17.5C6 13.2996 6 11.1994 6.81745 9.59508C7.5365 8.18385 8.68385 7.0365 10.0951 6.31745C11.6994 5.5 13.7996 5.5 18 5.5H19C23.2004 5.5 25.3006 5.5 26.9049 6.31745C28.3161 7.0365 29.4635 8.18385 30.1825 9.59508C31 11.1994 31 13.2996 31 17.5V18.5C31 22.7004 31 24.8006 30.1825 26.4049C29.4635 27.8161 28.3161 28.9635 26.9049 29.6825C25.3006 30.5 23.2004 30.5 19 30.5H18C13.7996 30.5 11.6994 30.5 10.0951 29.6825C8.68385 28.9635 7.5365 27.8161 6.81745 26.4049C6 24.8006 6 22.7004 6 18.5V17.5ZM18 8H19C21.1415 8 22.5971 8.00195 23.7224 8.09387C24.8185 8.18342 25.379 8.34574 25.77 8.54496C26.7108 9.02434 27.4756 9.78924 27.955 10.73C28.1542 11.121 28.3166 11.6815 28.4061 12.7776C28.498 13.9029 28.5 15.3585 28.5 17.5V18.5C28.5 20.6415 28.498 22.0971 28.4061 23.2224C28.3166 24.3185 28.1542 24.879 27.955 25.27C27.4756 26.2108 26.7108 26.9756 25.77 27.455C25.379 27.6542 24.8185 27.8166 23.7224 27.9061C22.5971 27.998 21.1415 28 19 28H18C15.8585 28 14.4029 27.998 13.2776 27.9061C12.1815 27.8166 11.621 27.6542 11.23 27.455C10.2892 26.9756 9.52434 26.2108 9.04496 25.27C8.84574 24.879 8.68342 24.3185 8.59387 23.2224C8.50195 22.0971 8.5 20.6415 8.5 18.5V17.5C8.5 15.3585 8.50195 13.9029 8.59387 12.7776C8.68342 11.6815 8.84574 11.121 9.04496 10.73C9.52434 9.78924 10.2892 9.02434 11.23 8.54496C11.621 8.34574 12.1815 8.18342 13.2776 8.09387C14.4029 8.00195 15.8585 8 18 8Z" fill="white"/>
<defs>
<radialGradient id="paint0_radial_1158_262" cx="0" cy="0" r="1" gradientUnits="userSpaceOnUse" gradientTransform="translate(13.5 26.75) rotate(-55.3758) scale(31.8995)">
<stop stop-color="#B13589"/>
<stop offset="0.79309" stop-color="#C62F94"/>
<stop offset="1" stop-color="#8A3AC8"/>
</radialGradient>
<radialGradient id="paint1_radial_1158_262" cx="0" cy="0" r="1" gradientUnits="userSpaceOnUse" gradientTransform="translate(12.25 36.75) rotate(-65.1363) scale(28.2428)">
<stop stop-color="#E0E8B7"/>
<stop offset="0.444662" stop-color="#FB8A2E"/>
<stop offset="0.71474" stop-color="#E2425C"/>
<stop offset="1" stop-color="#E2425C" stop-opacity="0"/>
</radialGradient>
<radialGradient id="paint2_radial_1158_262" cx="0" cy="0" r="1" gradientUnits="userSpaceOnUse" gradientTransform="translate(-0.874999 1.75) rotate(-8.1301) scale(48.6136 10.3979)">
<stop offset="0.156701" stop-color="#406ADC"/>
<stop offset="0.467799" stop-color="#6A45BE"/>
<stop offset="1" stop-color="#6A45BE" stop-opacity="0"/>
</radialGradient>
</defs>
</svg>
