<svg width="120" height="30" viewBox="0 0 120 30" fill="none" xmlns="http://www.w3.org/2000/svg">
<path d="M6.36937 19.757C6.36937 20.693 6.53837 21.486 6.87637 22.136C7.21437 22.786 7.65637 23.319 8.20237 23.735C8.77437 24.125 9.43737 24.424 10.1914 24.632C10.9454 24.814 11.7254 24.905 12.5314 24.905C13.0774 24.905 13.6624 24.866 14.2864 24.788C14.9104 24.684 15.4954 24.502 16.0414 24.242C16.5874 23.982 17.0424 23.631 17.4064 23.189C17.7704 22.721 17.9524 22.136 17.9524 21.434C17.9524 20.68 17.7054 20.069 17.2114 19.601C16.7434 19.133 16.1194 18.743 15.3394 18.431C14.5594 18.119 13.6754 17.846 12.6874 17.612C11.6994 17.378 10.6984 17.118 9.68437 16.832C8.64437 16.572 7.63037 16.26 6.64237 15.896C5.65437 15.506 4.77037 15.012 3.99037 14.414C3.21037 13.816 2.57337 13.075 2.07937 12.191C1.61137 11.281 1.37737 10.189 1.37737 8.915C1.37737 7.485 1.67637 6.25 2.27437 5.21C2.89837 4.144 3.70437 3.26 4.69237 2.558C5.68037 1.856 6.79837 1.336 8.04637 0.997998C9.29437 0.659999 10.5424 0.491 11.7904 0.491C13.2464 0.491 14.6374 0.659999 15.9634 0.997998C17.3154 1.31 18.5114 1.83 19.5514 2.558C20.5914 3.286 21.4104 4.222 22.0084 5.366C22.6324 6.484 22.9444 7.849 22.9444 9.461H17.0164C16.9644 8.629 16.7824 7.94 16.4704 7.394C16.1844 6.848 15.7944 6.419 15.3004 6.107C14.8064 5.795 14.2344 5.574 13.5844 5.444C12.9604 5.314 12.2714 5.249 11.5174 5.249C11.0234 5.249 10.5294 5.301 10.0354 5.405C9.54137 5.509 9.08637 5.691 8.67037 5.951C8.28037 6.211 7.95537 6.536 7.69537 6.926C7.43537 7.316 7.30537 7.81 7.30537 8.408C7.30537 8.954 7.40937 9.396 7.61737 9.734C7.82537 10.072 8.22837 10.384 8.82637 10.67C9.45037 10.956 10.2954 11.242 11.3614 11.528C12.4534 11.814 13.8704 12.178 15.6124 12.62C16.1324 12.724 16.8474 12.919 17.7574 13.205C18.6934 13.465 19.6164 13.894 20.5264 14.492C21.4364 15.09 22.2164 15.896 22.8664 16.91C23.5424 17.898 23.8804 19.172 23.8804 20.732C23.8804 22.006 23.6334 23.189 23.1394 24.281C22.6454 25.373 21.9044 26.322 20.9164 27.128C19.9544 27.908 18.7454 28.519 17.2894 28.961C15.8594 29.403 14.1954 29.624 12.2974 29.624C10.7634 29.624 9.26837 29.429 7.81237 29.039C6.38237 28.675 5.10837 28.09 3.99037 27.284C2.89837 26.478 2.02737 25.451 1.37737 24.203C0.727371 22.955 0.415371 21.473 0.441371 19.757H6.36937ZM40.5105 16.754C40.2505 15.35 39.7825 14.284 39.1065 13.556C38.4565 12.828 37.4555 12.464 36.1035 12.464C35.2195 12.464 34.4785 12.62 33.8805 12.932C33.3085 13.218 32.8405 13.582 32.4765 14.024C32.1385 14.466 31.8915 14.934 31.7355 15.428C31.6055 15.922 31.5275 16.364 31.5015 16.754H40.5105ZM31.5015 20.264C31.5795 22.058 32.0345 23.358 32.8665 24.164C33.6985 24.97 34.8945 25.373 36.4545 25.373C37.5725 25.373 38.5345 25.1 39.3405 24.554C40.1465 23.982 40.6405 23.384 40.8225 22.76H45.6975C44.9175 25.178 43.7215 26.907 42.1095 27.947C40.4975 28.987 38.5475 29.507 36.2595 29.507C34.6735 29.507 33.2435 29.26 31.9695 28.766C30.6955 28.246 29.6165 27.518 28.7325 26.582C27.8485 25.646 27.1595 24.528 26.6655 23.228C26.1975 21.928 25.9635 20.498 25.9635 18.938C25.9635 17.43 26.2105 16.026 26.7045 14.726C27.1985 13.426 27.9005 12.308 28.8105 11.372C29.7205 10.41 30.7995 9.656 32.0475 9.11C33.3215 8.564 34.7255 8.291 36.2595 8.291C37.9755 8.291 39.4705 8.629 40.7445 9.305C42.0185 9.955 43.0585 10.839 43.8645 11.957C44.6965 13.075 45.2945 14.349 45.6585 15.779C46.0225 17.209 46.1525 18.704 46.0485 20.264H31.5015ZM49.4891 1.154H55.0271V29H49.4891V1.154ZM59.5437 1.154H65.0817V29H59.5437V1.154ZM80.5964 29H74.4344L67.5314 8.837H73.3424L77.5934 22.604H77.6714L81.9224 8.837H87.4214L80.5964 29ZM95.3981 5.717H89.8601V1.154H95.3981V5.717ZM89.8601 8.837H95.3981V29H89.8601V8.837ZM104.673 18.938C104.673 19.744 104.751 20.537 104.907 21.317C105.063 22.071 105.323 22.76 105.687 23.384C106.077 23.982 106.584 24.463 107.208 24.827C107.832 25.191 108.612 25.373 109.548 25.373C110.484 25.373 111.264 25.191 111.888 24.827C112.538 24.463 113.045 23.982 113.409 23.384C113.799 22.76 114.072 22.071 114.228 21.317C114.384 20.537 114.462 19.744 114.462 18.938C114.462 18.132 114.384 17.339 114.228 16.559C114.072 15.779 113.799 15.09 113.409 14.492C113.045 13.894 112.538 13.413 111.888 13.049C111.264 12.659 110.484 12.464 109.548 12.464C108.612 12.464 107.832 12.659 107.208 13.049C106.584 13.413 106.077 13.894 105.687 14.492C105.323 15.09 105.063 15.779 104.907 16.559C104.751 17.339 104.673 18.132 104.673 18.938ZM99.1348 18.938C99.1348 17.326 99.3818 15.87 99.8758 14.57C100.37 13.244 101.072 12.126 101.982 11.216C102.892 10.28 103.984 9.565 105.258 9.071C106.532 8.551 107.962 8.291 109.548 8.291C111.134 8.291 112.564 8.551 113.838 9.071C115.138 9.565 116.243 10.28 117.153 11.216C118.063 12.126 118.765 13.244 119.259 14.57C119.753 15.87 120 17.326 120 18.938C120 20.55 119.753 22.006 119.259 23.306C118.765 24.606 118.063 25.724 117.153 26.66C116.243 27.57 115.138 28.272 113.838 28.766C112.564 29.26 111.134 29.507 109.548 29.507C107.962 29.507 106.532 29.26 105.258 28.766C103.984 28.272 102.892 27.57 101.982 26.66C101.072 25.724 100.37 24.606 99.8758 23.306C99.3818 22.006 99.1348 20.55 99.1348 18.938Z" fill="url(#paint0_linear_1116_537)"/>
<defs>
<linearGradient id="paint0_linear_1116_537" x1="-25.5" y1="14" x2="146.5" y2="14" gradientUnits="userSpaceOnUse">
<stop stop-color="#3012B3"/>
<stop offset="1" stop-color="#7B62E8"/>
</linearGradient>
</defs>
</svg>
