<svg width="37" height="36" viewBox="0 0 37 36" fill="none" xmlns="http://www.w3.org/2000/svg">
<rect x="0.5" width="36" height="36" rx="7.2" fill="black"/>
<path d="M23.7007 14.6476C25.2514 15.7601 27.1511 16.4146 29.2029 16.4146V12.4523C28.8146 12.4524 28.4273 12.4117 28.0474 12.331V15.4499C25.9958 15.4499 24.0963 14.7953 22.5451 13.6829V21.7689C22.5451 25.8139 19.2777 29.0928 15.2473 29.0928C13.7434 29.0928 12.3457 28.6366 11.1846 27.8541C12.5098 29.2139 14.3579 30.0575 16.4025 30.0575C20.4332 30.0575 23.7008 26.7786 23.7008 22.7334V14.6476H23.7007ZM25.1261 10.6501C24.3336 9.78118 23.8133 8.65828 23.7007 7.41687V6.90723H22.6056C22.8813 8.48506 23.8214 9.83307 25.1261 10.6501ZM13.7338 24.75C13.291 24.1674 13.0517 23.4547 13.0528 22.7218C13.0528 20.8718 14.5473 19.3717 16.3912 19.3717C16.7348 19.3717 17.0764 19.4245 17.4038 19.5287V15.4778C17.0211 15.4252 16.6349 15.4029 16.2488 15.4111V18.5641C15.9211 18.4598 15.5794 18.4068 15.2357 18.4072C13.3918 18.4072 11.8974 19.907 11.8974 21.7573C11.8974 23.0656 12.6444 24.1983 13.7338 24.75Z" fill="#EB1654"/>
<path d="M22.546 13.6827C24.0972 14.7951 25.9967 15.4497 28.0483 15.4497V12.3307C26.9031 12.0859 25.8893 11.4853 25.127 10.65C23.8222 9.83286 22.8822 8.48486 22.6065 6.9071H19.7302V22.7331C19.7237 24.5781 18.2318 26.072 16.3919 26.072C15.3077 26.072 14.3445 25.5534 13.7344 24.7499C12.6451 24.1981 11.8981 23.0654 11.8981 21.7573C11.8981 19.9072 13.3925 18.4071 15.2364 18.4071C15.5896 18.4071 15.9301 18.4623 16.2495 18.564V15.411C12.2899 15.4931 9.10547 18.74 9.10547 22.7332C9.10547 24.7266 9.89848 26.5337 11.1855 27.854C12.3467 28.6364 13.7444 29.0928 15.2482 29.0928C19.2787 29.0928 22.5461 25.8137 22.5461 21.7688L22.546 13.6827Z" fill="white"/>
<path d="M28.0475 12.3306V11.4873C27.0148 11.4888 26.0023 11.1986 25.1262 10.6497C25.9018 11.5019 26.9231 12.0895 28.0475 12.3306ZM22.6057 6.90696C22.5794 6.75617 22.5592 6.60439 22.5452 6.45202V5.94238H18.5738V21.7686C18.5675 23.6133 17.0756 25.1072 15.2356 25.1072C14.6953 25.1072 14.1853 24.9785 13.7336 24.7498C14.3436 25.5532 15.3068 26.0718 16.3911 26.0718C18.2308 26.0718 19.723 24.578 19.7294 22.7331V6.90696H22.6057ZM16.2489 15.4109V14.5131C15.917 14.4676 15.5825 14.4447 15.2475 14.4449C11.2167 14.4448 7.94922 17.7239 7.94922 21.7686C7.94922 24.3043 9.23339 26.5391 11.1848 27.8537C9.89774 26.5334 9.10473 24.7263 9.10473 22.733C9.10473 18.7398 12.2891 15.493 16.2489 15.4109Z" fill="#0CBAC6"/>
</svg>
