<svg width="20" height="20" viewBox="0 0 20 20" fill="none" xmlns="http://www.w3.org/2000/svg">
<path d="M5.1974 8.03294H8.5974V18.2329H5.1974V8.03294ZM6.33073 17.0996H7.46406V9.16628H6.33073V17.0996ZM9.73073 10.2996H13.1307V18.2329H9.73073V10.2996ZM10.8641 17.0996H11.9974V11.4329H10.8641V17.0996ZM0.664062 12.5663H4.06406V18.2329H0.664062V12.5663ZM1.7974 17.0996H2.93073V13.6996H1.7974V17.0996ZM14.2641 5.76628H17.6641V18.2329H14.2641V5.76628ZM15.3974 17.0996H16.5307V6.89961H15.3974V17.0996ZM12.9625 5.59805C13.0747 5.84006 13.1307 6.08503 13.1307 6.33294C13.1307 6.56905 13.0865 6.79041 12.9979 6.997C12.9094 7.2036 12.7884 7.38364 12.6349 7.53711C12.4814 7.69058 12.3014 7.81159 12.0948 7.90013C11.8882 7.98867 11.6668 8.03294 11.4307 8.03294C11.1946 8.03294 10.9733 7.98867 10.7667 7.90013C10.5601 7.81159 10.38 7.69058 10.2266 7.53711C10.0731 7.38364 9.95208 7.2036 9.86354 6.997C9.775 6.79041 9.73073 6.56905 9.73073 6.33294V6.22669C9.73073 6.19128 9.73368 6.15586 9.73958 6.12044L8.075 5.28815C7.92153 5.44162 7.74149 5.55968 7.5349 5.64232C7.3283 5.72496 7.1158 5.76628 6.8974 5.76628C6.64948 5.76628 6.40451 5.7102 6.1625 5.59805L3.89583 7.86471C4.00799 8.10673 4.06406 8.35169 4.06406 8.59961C4.06406 8.83572 4.01979 9.05707 3.93125 9.26367C3.84271 9.47027 3.7217 9.6503 3.56823 9.80378C3.41476 9.95725 3.23472 10.0783 3.02813 10.1668C2.82153 10.2553 2.60017 10.2996 2.36406 10.2996C2.12795 10.2996 1.9066 10.2553 1.7 10.1668C1.4934 10.0783 1.31337 9.95725 1.1599 9.80378C1.00642 9.6503 0.885417 9.47027 0.796875 9.26367C0.708333 9.05707 0.664062 8.83572 0.664062 8.59961C0.664062 8.3635 0.708333 8.14214 0.796875 7.93555C0.885417 7.72895 1.00642 7.54891 1.1599 7.39544C1.31337 7.24197 1.4934 7.12096 1.7 7.03242C1.9066 6.94388 2.12795 6.89961 2.36406 6.89961C2.61198 6.89961 2.85694 6.95569 3.09896 7.06784L5.36562 4.80117C5.25347 4.55916 5.1974 4.31419 5.1974 4.06628C5.1974 3.83016 5.24167 3.60881 5.33021 3.40221C5.41875 3.19562 5.53976 3.01558 5.69323 2.86211C5.8467 2.70864 6.02674 2.58763 6.23333 2.49909C6.43993 2.41055 6.66128 2.36628 6.8974 2.36628C7.13351 2.36628 7.35486 2.41055 7.56146 2.49909C7.76806 2.58763 7.94809 2.70864 8.10156 2.86211C8.25503 3.01558 8.37604 3.19562 8.46458 3.40221C8.55312 3.60881 8.5974 3.83016 8.5974 4.06628V4.17253C8.5974 4.20794 8.59444 4.24336 8.58854 4.27878L10.2531 5.11107C10.4066 4.9576 10.5866 4.83954 10.7932 4.7569C10.9998 4.67426 11.2123 4.63294 11.4307 4.63294C11.6786 4.63294 11.9236 4.68902 12.1656 4.80117L14.4323 2.53451C14.3201 2.29249 14.2641 2.04753 14.2641 1.79961C14.2641 1.5635 14.3083 1.34214 14.3969 1.13555C14.4854 0.92895 14.6064 0.748915 14.7599 0.595443C14.9134 0.44197 15.0934 0.320964 15.3 0.232422C15.5066 0.14388 15.728 0.0996094 15.9641 0.0996094C16.2002 0.0996094 16.4215 0.14388 16.6281 0.232422C16.8347 0.320964 17.0148 0.44197 17.1682 0.595443C17.3217 0.748915 17.4427 0.92895 17.5312 1.13555C17.6198 1.34214 17.6641 1.5635 17.6641 1.79961C17.6641 2.03572 17.6198 2.25707 17.5312 2.46367C17.4427 2.67027 17.3217 2.8503 17.1682 3.00378C17.0148 3.15725 16.8347 3.27826 16.6281 3.3668C16.4215 3.45534 16.2002 3.49961 15.9641 3.49961C15.7161 3.49961 15.4712 3.44353 15.2292 3.33138L12.9625 5.59805ZM2.36406 9.16628C2.51753 9.16628 2.65035 9.1102 2.7625 8.99805C2.87465 8.88589 2.93073 8.75308 2.93073 8.59961C2.93073 8.44614 2.87465 8.31332 2.7625 8.20117C2.65035 8.08902 2.51753 8.03294 2.36406 8.03294C2.21059 8.03294 2.07778 8.08902 1.96563 8.20117C1.85347 8.31332 1.7974 8.44614 1.7974 8.59961C1.7974 8.75308 1.85347 8.88589 1.96563 8.99805C2.07778 9.1102 2.21059 9.16628 2.36406 9.16628ZM15.9641 1.23294C15.8106 1.23294 15.6778 1.28902 15.5656 1.40117C15.4535 1.51332 15.3974 1.64614 15.3974 1.79961C15.3974 1.95308 15.4535 2.08589 15.5656 2.19805C15.6778 2.3102 15.8106 2.36628 15.9641 2.36628C16.1175 2.36628 16.2503 2.3102 16.3625 2.19805C16.4747 2.08589 16.5307 1.95308 16.5307 1.79961C16.5307 1.64614 16.4747 1.51332 16.3625 1.40117C16.2503 1.28902 16.1175 1.23294 15.9641 1.23294ZM6.8974 4.63294C7.05087 4.63294 7.18368 4.57687 7.29583 4.46471C7.40799 4.35256 7.46406 4.21975 7.46406 4.06628C7.46406 3.9128 7.40799 3.77999 7.29583 3.66784C7.18368 3.55569 7.05087 3.49961 6.8974 3.49961C6.74392 3.49961 6.61111 3.55569 6.49896 3.66784C6.38681 3.77999 6.33073 3.9128 6.33073 4.06628C6.33073 4.21975 6.38681 4.35256 6.49896 4.46471C6.61111 4.57687 6.74392 4.63294 6.8974 4.63294ZM11.4307 6.89961C11.5842 6.89961 11.717 6.84353 11.8292 6.73138C11.9413 6.61923 11.9974 6.48641 11.9974 6.33294C11.9974 6.17947 11.9413 6.04666 11.8292 5.9345C11.717 5.82235 11.5842 5.76628 11.4307 5.76628C11.2773 5.76628 11.1444 5.82235 11.0323 5.9345C10.9201 6.04666 10.8641 6.17947 10.8641 6.33294C10.8641 6.48641 10.9201 6.61923 11.0323 6.73138C11.1444 6.84353 11.2773 6.89961 11.4307 6.89961Z" fill="#0061FF"/>
</svg>
