<svg width="20" height="16" viewBox="0 0 20 16" fill="none" xmlns="http://www.w3.org/2000/svg">
<path d="M2 14.001L7 8.00098M18 14.001L13 8.00098M1 4.00098L8.225 8.81758C8.8665 9.24528 9.1872 9.45918 9.5339 9.54218C9.8403 9.61568 10.1597 9.61568 10.4661 9.54218C10.8128 9.45918 11.1335 9.24528 11.775 8.81758L19 4.00098M4.2 15.001H15.8C16.9201 15.001 17.4802 15.001 17.908 14.783C18.2843 14.5913 18.5903 14.2853 18.782 13.909C19 13.4812 19 12.9211 19 11.801V4.20098C19 3.08088 19 2.52082 18.782 2.093C18.5903 1.71667 18.2843 1.41071 17.908 1.21897C17.4802 1.00098 16.9201 1.00098 15.8 1.00098H4.2C3.0799 1.00098 2.51984 1.00098 2.09202 1.21897C1.71569 1.41071 1.40973 1.71667 1.21799 2.093C1 2.52082 1 3.08087 1 4.20098V11.801C1 12.9211 1 13.4812 1.21799 13.909C1.40973 14.2853 1.71569 14.5913 2.09202 14.783C2.51984 15.001 3.07989 15.001 4.2 15.001Z" stroke="black" stroke-width="2" stroke-linecap="round" stroke-linejoin="round"/>
</svg>
