<svg width="18" height="18" viewBox="0 0 18 18" fill="none" xmlns="http://www.w3.org/2000/svg">
<path fill-rule="evenodd" clip-rule="evenodd" d="M1.96903 2.52853C2.95666 1.48815 3.3057 1.19635 3.72656 1.06055C4.01782 0.984233 4.32328 0.979991 4.61655 1.0482C5.00263 1.16044 5.10476 1.24573 6.37068 2.5072C7.48289 3.61492 7.594 3.735 7.70061 3.95161C7.90454 4.33182 7.93641 4.78098 7.78815 5.18615C7.67592 5.49478 7.51656 5.69904 6.84205 6.37579L6.40211 6.81691C6.28662 6.93431 6.25946 7.11253 6.33477 7.2591C7.3123 8.92662 8.69902 10.3173 10.3638 11.2994C10.5555 11.402 10.7916 11.3689 10.9474 11.2175L11.3706 10.8011C11.6321 10.533 11.909 10.2805 12.1999 10.0447C12.6569 9.76409 13.2263 9.73906 13.7061 9.97845C13.9406 10.0907 14.0181 10.1603 15.1651 11.305C16.348 12.4846 16.3817 12.5216 16.5118 12.7921C16.7568 13.2398 16.7543 13.7821 16.5051 14.2275C16.3783 14.4789 16.3008 14.5698 15.6353 15.2499C15.2335 15.6607 14.8553 16.0355 14.7947 16.0905C14.2457 16.5451 13.5413 16.7681 12.8307 16.7123C11.5306 16.5938 10.2722 16.1919 9.1439 15.535C6.64475 14.2108 4.51712 12.2815 2.95554 9.92346C2.61541 9.42987 2.31303 8.91136 2.05096 8.37243C1.34793 7.16741 0.984882 5.79437 1.00048 4.39941C1.05415 3.66964 1.40412 2.99363 1.96903 2.52853Z" stroke="black" stroke-width="1.68346" stroke-linecap="round" stroke-linejoin="round"/>
</svg>
