<svg width="181" height="48" viewBox="0 0 181 48" fill="none" xmlns="http://www.w3.org/2000/svg">
<path d="M22.819 18.8572C22.6395 17.1783 21.8834 15.8711 20.5505 14.9355C19.2305 13.9999 17.5131 13.5321 15.3985 13.5321C13.9118 13.5321 12.6366 13.7564 11.5729 14.205C10.5092 14.6535 9.69534 15.2623 9.13144 16.0313C8.56753 16.8002 8.27917 17.6781 8.26635 18.665C8.26635 19.4852 8.45218 20.1965 8.82385 20.7988C9.20833 21.4012 9.72738 21.9138 10.381 22.3368C11.0346 22.7469 11.7587 23.0929 12.5533 23.3749C13.3479 23.6568 14.1489 23.8939 14.9563 24.0861L18.6474 25.0089C20.134 25.3549 21.563 25.8227 22.9343 26.4123C24.3185 27.0018 25.5552 27.7451 26.6446 28.6422C27.7467 29.5394 28.6182 30.6223 29.259 31.8911C29.8998 33.1599 30.2202 34.6466 30.2202 36.3511C30.2202 38.658 29.6307 40.6893 28.4516 42.4451C27.2726 44.1881 25.568 45.553 23.338 46.5399C21.1208 47.5139 18.4359 48.0009 15.2831 48.0009C12.2201 48.0009 9.56077 47.5267 7.30515 46.5783C5.06234 45.6299 3.30654 44.2458 2.03775 42.4259C0.781779 40.606 0.102528 38.3889 0 35.7744H7.01679C7.11932 37.1457 7.54224 38.2863 8.28558 39.1963C9.02891 40.1062 9.99652 40.7855 11.1884 41.234C12.3931 41.6826 13.7388 41.9069 15.2255 41.9069C16.7762 41.9069 18.1347 41.6762 19.301 41.2148C20.48 40.7406 21.4028 40.087 22.0692 39.2539C22.7357 38.4081 23.0753 37.4212 23.0881 36.2934C23.0753 35.2681 22.7741 34.4223 22.1846 33.7558C21.595 33.0766 20.7684 32.5127 19.7047 32.0641C18.6538 31.6028 17.4234 31.1926 16.0137 30.8338L11.5344 29.6803C8.29198 28.8473 5.72877 27.5849 3.84481 25.8932C1.97367 24.1887 1.0381 21.9266 1.0381 19.1071C1.0381 16.7874 1.66609 14.7561 2.92206 13.0131C4.19085 11.2701 5.91461 9.918 8.09334 8.9568C10.2721 7.98278 12.7392 7.49577 15.4946 7.49577C18.2885 7.49577 20.7364 7.98278 22.8382 8.9568C24.9528 9.918 26.6125 11.2573 27.8172 12.9746C29.0219 14.6792 29.6435 16.64 29.682 18.8572H22.819Z" fill="black"/>
<path d="M49.3434 47.9817C46.3829 47.9817 43.8261 47.3665 41.673 46.1362C39.5327 44.893 37.8858 43.1372 36.7324 40.8688C35.579 38.5875 35.0022 35.9025 35.0022 32.8139C35.0022 29.7765 35.579 27.1107 36.7324 24.8167C37.8987 22.5098 39.5263 20.7155 41.6153 19.4339C43.7043 18.1395 46.1586 17.4923 48.9781 17.4923C50.798 17.4923 52.5154 17.7871 54.1302 18.3766C55.7578 18.9533 57.1932 19.8504 58.4364 21.068C59.6923 22.2855 60.6792 23.8362 61.3969 25.7202C62.1146 27.5913 62.4734 29.8213 62.4734 32.4102V34.544H38.2703V29.8534H55.8027C55.7899 28.5205 55.5015 27.335 54.9376 26.2969C54.3737 25.246 53.5855 24.4194 52.573 23.817C51.5734 23.2147 50.4071 22.9135 49.0743 22.9135C47.6517 22.9135 46.4021 23.2595 45.3256 23.9516C44.249 24.6308 43.4096 25.5279 42.8072 26.6429C42.2177 27.7451 41.9165 28.9562 41.9037 30.2763V34.371C41.9037 36.0884 42.2177 37.5622 42.8457 38.7926C43.4736 40.0101 44.3515 40.9457 45.4794 41.5993C46.6072 42.2401 47.9272 42.5605 49.4395 42.5605C50.452 42.5605 51.3683 42.4195 52.1886 42.1375C53.0088 41.8428 53.7201 41.4134 54.3224 40.8495C54.9248 40.2856 55.3798 39.5872 55.6873 38.7541L62.1851 39.4846C61.775 41.202 60.9932 42.7015 59.8397 43.9831C58.6991 45.2518 57.2381 46.2387 55.4566 46.9436C53.6752 47.6356 51.6375 47.9817 49.3434 47.9817Z" fill="black"/>
<path d="M75.3199 8.03404V47.4049H68.3608V8.03404H75.3199Z" fill="black"/>
<path d="M89.4352 8.03404V47.4049H82.4761V8.03404H89.4352Z" fill="black"/>
<path d="M122.967 17.8768L112.451 47.4049H104.762L94.246 17.8768H101.667L108.453 39.8114H108.76L115.566 17.8768H122.967Z" fill="black"/>
<path d="M127.782 47.4049V17.8768H134.742V47.4049H127.782ZM131.281 13.6859C130.179 13.6859 129.231 13.3207 128.436 12.5901C127.641 11.8468 127.244 10.9561 127.244 9.918C127.244 8.86709 127.641 7.97637 128.436 7.24585C129.231 6.50252 130.179 6.13086 131.281 6.13086C132.396 6.13086 133.345 6.50252 134.126 7.24585C134.921 7.97637 135.318 8.86709 135.318 9.918C135.318 10.9561 134.921 11.8468 134.126 12.5901C133.345 13.3207 132.396 13.6859 131.281 13.6859Z" fill="black"/>
<path d="M149.698 15.2922C149.698 6.84671 156.544 0.000328064 164.989 0.000328064C173.435 0.000328064 180.281 6.84671 180.281 15.2922C180.281 23.7376 173.435 30.584 164.989 30.584C156.544 30.584 149.698 23.7376 149.698 15.2922ZM175.513 15.2922C175.513 9.4801 170.801 4.76849 164.989 4.76849C159.177 4.76849 154.466 9.4801 154.466 15.2922C154.466 21.1042 159.177 25.8158 164.989 25.8158C170.801 25.8158 175.513 21.1042 175.513 15.2922Z" fill="#0866FF"/>
<path d="M170.304 29.6289C170.543 33.4542 169.338 37.2313 166.924 40.2109C164.493 43.2109 161.018 45.1805 157.195 45.7242C153.373 46.268 149.486 45.3456 146.316 43.1424C143.145 40.9391 140.925 37.618 140.102 33.8459C139.278 30.0737 139.912 26.1297 141.877 22.8057C143.841 19.4816 146.989 17.0236 150.691 15.925C154.392 14.8265 158.372 15.1687 161.832 16.8831C165.21 18.557 167.847 21.418 169.243 24.9131C168.04 25.615 164.982 25.9972 164.405 25.7816C163.382 23.7864 161.742 22.1602 159.715 21.1554C157.334 19.9756 154.595 19.7401 152.048 20.4961C149.5 21.2521 147.333 22.9437 145.982 25.2313C144.63 27.5189 144.194 30.2331 144.76 32.829C145.327 35.425 146.855 37.7105 149.037 39.2268C151.219 40.743 153.893 41.3778 156.524 41.0036C159.154 40.6294 161.546 39.2739 163.219 37.2094C164.745 35.326 165.569 32.9797 165.565 30.5699C166.893 30.5848 169.243 29.9757 170.304 29.6289Z" fill="black"/>
</svg>
