<svg width="20" height="20" viewBox="0 0 20 20" fill="none" xmlns="http://www.w3.org/2000/svg">
<g clip-path="url(#clip0_2175_16350)">
<path fill-rule="evenodd" clip-rule="evenodd" d="M9.95347 1.04199H10.0491C11.9728 1.04198 13.4803 1.04198 14.6566 1.20012C15.8605 1.36198 16.8106 1.69977 17.5562 2.44544C18.3019 3.19112 18.6396 4.14113 18.8016 5.34508C18.9596 6.52132 18.9596 8.02885 18.9596 9.95249V10.0482C18.9596 10.3102 18.9596 10.5644 18.9592 10.8112C18.9595 10.8187 18.9596 10.8262 18.9596 10.8337C18.9596 10.8419 18.9595 10.8501 18.9591 10.8583C18.9563 12.4017 18.9367 13.6497 18.8016 14.6556C18.6396 15.8595 18.3019 16.8096 17.5562 17.5552C16.8106 18.3009 15.8605 18.6387 14.6566 18.8006C13.4803 18.9587 11.9728 18.9587 10.0491 18.9587H9.95347C8.02983 18.9587 6.52229 18.9587 5.34606 18.8006C4.14211 18.6387 3.19209 18.3009 2.44642 17.5552C1.70074 16.8096 1.36296 15.8595 1.20109 14.6556C1.06586 13.6497 1.04628 12.4017 1.04344 10.8582C1.04313 10.8501 1.04297 10.8419 1.04297 10.8337C1.04297 10.8262 1.0431 10.8187 1.04336 10.8112C1.04297 10.5644 1.04297 10.3102 1.04297 10.0482V9.95249C1.04296 8.02885 1.04295 6.52132 1.20109 5.34508C1.36296 4.14113 1.70074 3.19112 2.44642 2.44544C3.19209 1.69977 4.14211 1.36198 5.34606 1.20012C6.52229 1.04198 8.02983 1.04198 9.95347 1.04199ZM2.29589 11.4587C2.30375 12.7108 2.33279 13.692 2.43994 14.489C2.58318 15.5543 2.85559 16.1966 3.3303 16.6713C3.80501 17.1461 4.44728 17.4185 5.51262 17.5617C6.59594 17.7073 8.01945 17.7087 10.0013 17.7087C11.9831 17.7087 13.4066 17.7073 14.49 17.5617C15.5553 17.4185 16.1976 17.1461 16.6723 16.6713C17.1471 16.1966 17.4195 15.5543 17.5626 14.489C17.6698 13.692 17.6989 12.7108 17.7067 11.4587H15.7011C14.8896 11.4587 14.6774 11.472 14.4992 11.554C14.3211 11.6359 14.1729 11.7883 13.6448 12.4044L13.1402 12.9931C13.1156 13.0217 13.0915 13.0501 13.0675 13.0781C12.6491 13.5672 12.3176 13.9547 11.859 14.1657C11.4004 14.3766 10.8905 14.3761 10.2467 14.3754C10.2099 14.3753 10.1726 14.3753 10.1349 14.3753H9.86772C9.82997 14.3753 9.79272 14.3753 9.75589 14.3754C9.11213 14.3761 8.60222 14.3766 8.1436 14.1657C7.68496 13.9547 7.35356 13.5672 6.93513 13.0781C6.91117 13.0501 6.88693 13.0217 6.86236 12.9931L6.35784 12.4044C5.82972 11.7883 5.68149 11.6359 5.50334 11.554C5.32521 11.472 5.11303 11.4587 4.30152 11.4587H2.29589ZM17.7096 10.2087H15.7011C15.6633 10.2087 15.6261 10.2087 15.5892 10.2086C14.9455 10.2079 14.4356 10.2074 13.977 10.4183C13.5183 10.6292 13.1869 11.0167 12.7685 11.5059C12.7445 11.5339 12.7203 11.5622 12.6957 11.5909L12.1911 12.1796C11.6631 12.7957 11.5148 12.9481 11.3367 13.03C11.1586 13.112 10.9464 13.1253 10.1349 13.1253H9.86772C9.05622 13.1253 8.84405 13.112 8.66589 13.03C8.4878 12.9481 8.33955 12.7957 7.81144 12.1796L7.30691 11.5909C7.28234 11.5622 7.2581 11.5339 7.23414 11.5059C6.81571 11.0167 6.48431 10.6292 6.02567 10.4183C5.56702 10.2074 5.05718 10.2079 4.41342 10.2086C4.37656 10.2087 4.33927 10.2087 4.30152 10.2087H2.29298C2.29297 10.1399 2.29297 10.0705 2.29297 10.0003C2.29297 8.01848 2.29429 6.59496 2.43994 5.51164C2.58318 4.4463 2.85559 3.80403 3.3303 3.32933C3.80501 2.85461 4.44728 2.5822 5.51262 2.43897C6.59594 2.29332 8.01945 2.29199 10.0013 2.29199C11.9831 2.29199 13.4066 2.29332 14.49 2.43897C15.5553 2.5822 16.1976 2.85461 16.6723 3.32933C17.1471 3.80403 17.4195 4.4463 17.5626 5.51164C17.7083 6.59496 17.7096 8.01848 17.7096 10.0003C17.7096 10.0705 17.7096 10.1399 17.7096 10.2087Z" fill="white"/>
</g>
<defs>
<clipPath id="clip0_2175_16350">
<rect width="20" height="20" fill="white"/>
</clipPath>
</defs>
</svg>
