<svg width="24" height="24" viewBox="0 0 24 24" fill="none" xmlns="http://www.w3.org/2000/svg">
<path d="M11.9987 16.001C6.23874 16.001 5.21836 10.2605 5.0376 5.70745C4.98732 4.44096 4.96218 3.80771 5.4379 3.22181C5.91361 2.63592 6.48298 2.53985 7.62171 2.34772C8.74577 2.15807 10.2151 2.00098 11.9987 2.00098C13.7822 2.00098 15.2516 2.15807 16.3756 2.34772C17.5144 2.53985 18.0837 2.63592 18.5594 3.22181C19.0352 3.80771 19.01 4.44096 18.9597 5.70745C18.779 10.2605 17.7586 16.001 11.9987 16.001Z" stroke="white" stroke-width="1.5"/>
<path d="M18.9961 5.00098L19.9447 5.31719C20.9348 5.64721 21.4298 5.81222 21.7129 6.20506C21.9961 6.5979 21.9961 7.11971 21.996 8.16332V8.23585C21.996 9.09659 21.996 9.52696 21.7888 9.87907C21.5816 10.2312 21.2054 10.4402 20.453 10.8582L17.4961 12.501" stroke="white" stroke-width="1.5"/>
<path d="M5.00385 5.00098L4.05523 5.31719C3.06517 5.64721 2.57014 5.81222 2.28701 6.20506C2.00387 6.5979 2.00388 7.11971 2.00391 8.16332V8.23585C2.00394 9.09659 2.00395 9.52696 2.21114 9.87907C2.41832 10.2312 2.79454 10.4402 3.54696 10.8582L6.50385 12.501" stroke="white" stroke-width="1.5"/>
<path d="M12 17.001V19.001" stroke="white" stroke-width="1.5" stroke-linecap="round"/>
<path d="M15.4961 22H8.49609L8.83531 20.3039C8.9288 19.8365 9.33921 19.5 9.81589 19.5H14.1763C14.653 19.5 15.0634 19.8365 15.1569 20.3039L15.4961 22Z" stroke="white" stroke-width="1.5" stroke-linecap="round" stroke-linejoin="round"/>
<path d="M18 21.999H6" stroke="white" stroke-width="1.5" stroke-linecap="round"/>
</svg>
