<svg width="14" height="18" viewBox="0 0 14 18" fill="none" xmlns="http://www.w3.org/2000/svg">
<path d="M11 17.1429H3C2.46957 17.1429 1.96086 16.9321 1.58579 16.5571C1.21071 16.182 1 15.6733 1 15.1429V6.14286C1 5.87764 1.10536 5.62329 1.29289 5.43575C1.48043 5.24821 1.73478 5.14286 2 5.14286H12C12.2652 5.14286 12.5196 5.24821 12.7071 5.43575C12.8946 5.62329 13 5.87764 13 6.14286V15.1429C13 15.6733 12.7893 16.182 12.4142 16.5571C12.0391 16.9321 11.5304 17.1429 11 17.1429ZM14 3C14 3.26522 13.8946 3.51957 13.7071 3.70711C13.5196 3.89464 13.2652 4 13 4H1C0.734783 4 0.48043 3.89464 0.292893 3.70711C0.105357 3.51957 0 3.26522 0 3C0 2.73478 0.105357 2.48043 0.292893 2.29289C0.48043 2.10536 0.734783 2 1 2H4V1C4 0.734783 4.10536 0.48043 4.29289 0.292893C4.48043 0.105357 4.73478 0 5 0H9C9.26522 0 9.51957 0.105357 9.70711 0.292893C9.89464 0.48043 10 0.734783 10 1V2H13C13.2652 2 13.5196 2.10536 13.7071 2.29289C13.8946 2.48043 14 2.73478 14 3Z" fill="#FF86AC"/>
</svg>
