<svg width="19" height="20" viewBox="0 0 19 20" fill="none" xmlns="http://www.w3.org/2000/svg">
<path d="M4.76172 11.7772C4.76172 12.0873 5.01303 12.3386 5.3231 12.3386H13.4678C13.7779 12.3386 14.0292 12.0873 14.0292 11.7772C14.0292 11.4671 13.7779 11.2158 13.4678 11.2158H5.3231C5.01303 11.2158 4.76172 11.4671 4.76172 11.7772Z" fill="white"/>
<path d="M4.76172 8.20494C4.76172 8.51501 5.01303 8.76632 5.3231 8.76632H13.4678C13.7779 8.76632 14.0292 8.51501 14.0292 8.20494C14.0292 7.89487 13.7779 7.64355 13.4678 7.64355H5.3231C5.01303 7.64355 4.76172 7.89487 4.76172 8.20494Z" fill="white"/>
<path d="M5.3231 15.9099H13.4678C13.7779 15.9099 14.0292 15.6586 14.0292 15.3485C14.0292 15.0384 13.7779 14.7871 13.4678 14.7871H5.3231C5.01303 14.7871 4.76172 15.0384 4.76172 15.3485C4.76172 15.6586 5.01303 15.9099 5.3231 15.9099Z" fill="white"/>
<path d="M5.3231 5.19503H8.08892C8.39899 5.19503 8.6503 4.94372 8.6503 4.63365C8.6503 4.32358 8.39899 4.07227 8.08892 4.07227H5.3231C5.01303 4.07227 4.76172 4.32358 4.76172 4.63365C4.76172 4.94372 5.01303 5.19503 5.3231 5.19503Z" fill="white"/>
<path d="M16.6683 4.66719L12.8265 0.624752C12.7211 0.519461 12.1699 0.5 12.0211 0.5H2.78795C2.47788 0.5 2.22656 0.751313 2.22656 1.06138V18.9886C2.22656 19.2987 2.47788 19.55 2.78795 19.55H16.2612C16.5712 19.55 16.8225 19.2987 16.8225 18.9886V5.30152C16.8225 5.15262 16.7736 4.77248 16.6683 4.66719ZM12.4995 2L15.3994 5H12.4995L12.4995 2ZM15.4777 18.3594H3.57143V1.69062H11.3078L11.3078 4.86488C11.3078 5.5 11.8041 6 12.4995 6H15.4777L15.4777 18.3594Z" fill="white"/>
</svg>
