<svg width="20" height="20" viewBox="0 0 20 20" fill="none" xmlns="http://www.w3.org/2000/svg">
<path d="M10 14.5C10 14.5 5 14.5 4.5 14C4.06338 13.5634 4.00003 13.3284 4 12.5C3.99997 11.6716 7.31818 9.5 7.5 9C7.68182 8.5 7.73762 5.5 7.5 5C7.26238 4.5 4.5 3.5 4.5 2.5C4.5 1.79597 5.5 1 5.5 1H14.5C14.5 1 15.5 1.67157 15.5 2.5C15.5 4 12.7376 4.5 12.5 5C12.2624 5.5 12.3182 8.5 12.5 9C12.6818 9.5 16 11.796 16 12.5C16 13.204 15.9366 13.5634 15.5 14C15 14.5 10 14.5 10 14.5ZM10 14.5C10 14.5 10 21 10 19" stroke="white" stroke-width="1.2"/>
</svg>
