<svg width="16" height="18" viewBox="0 0 16 18" fill="none" xmlns="http://www.w3.org/2000/svg">
<path fill-rule="evenodd" clip-rule="evenodd" d="M6.41045 0.295254C6.87185 0.346521 7.2043 0.762121 7.15302 1.22352L6.69642 5.33362H10.0484L10.5257 1.03786C10.577 0.57647 10.9925 0.243987 11.4539 0.295254C11.9153 0.346521 12.2478 0.762121 12.1965 1.22352L11.7399 5.33362H14.7235C15.1877 5.33362 15.564 5.70997 15.564 6.1742C15.564 6.63844 15.1877 7.01478 14.7235 7.01478H11.553L11.1795 10.3771H14.7235C15.1877 10.3771 15.564 10.7534 15.564 11.2177C15.564 11.6819 15.1877 12.0583 14.7235 12.0583H10.9927L10.5153 16.354C10.4641 16.8154 10.0485 17.1478 9.58709 17.0965C9.12569 17.0453 8.79324 16.6297 8.84452 16.1683L9.30121 12.0583H5.9492L5.4719 16.354C5.42064 16.8154 5.00504 17.1478 4.54363 17.0965C4.08224 17.0453 3.74976 16.6297 3.80102 16.1683L4.25769 12.0583H1.27417C0.809938 12.0583 0.433594 11.6819 0.433594 11.2177C0.433594 10.7534 0.809938 10.3771 1.27417 10.3771H4.4445L4.81808 7.01478H1.27417C0.809938 7.01478 0.433594 6.63844 0.433594 6.1742C0.433594 5.70997 0.809938 5.33362 1.27417 5.33362H5.00488L5.48218 1.03786C5.53345 0.57647 5.94905 0.243987 6.41045 0.295254ZM9.48798 10.3771L9.86154 7.01478H6.50956L6.13599 10.3771H9.48798Z" fill="white"/>
</svg>
