<svg width="19" height="20" viewBox="0 0 19 20" fill="none" xmlns="http://www.w3.org/2000/svg">
<path d="M11.8729 13.6474L10.1052 11.8945C9.2522 11.0485 8.82567 10.6256 8.33629 10.471C7.90584 10.335 7.44317 10.34 7.01576 10.4853C6.52978 10.6505 6.11253 11.0826 5.27805 11.9466L1.04282 16.1299M11.8729 13.6474L12.2347 13.2887C13.0887 12.4417 13.5156 12.0183 14.0056 11.8637C14.4365 11.7277 14.8995 11.7331 15.3272 11.8789C15.8134 12.0447 16.2306 12.4779 17.0649 13.3442L17.9515 14.2365M11.8729 13.6474L16.1235 17.9064M1.04282 16.1299C1.0757 16.3969 1.13169 16.608 1.2271 16.7952C1.43029 17.194 1.75452 17.5183 2.15332 17.7214C2.60669 17.9525 3.20018 17.9525 4.38717 17.9525H14.5604C15.2538 17.9525 15.7447 17.9525 16.1235 17.9064M1.04282 16.1299C0.996094 15.7505 0.996094 15.2581 0.996094 14.5614V4.38815C0.996094 3.20116 0.996094 2.60766 1.2271 2.1543C1.43029 1.7555 1.75452 1.43127 2.15332 1.22808C2.60669 0.99707 3.20018 0.99707 4.38717 0.99707H14.5604C15.7474 0.99707 16.3409 0.99707 16.7943 1.22808C17.193 1.43127 17.5173 1.7555 17.7205 2.1543C17.9515 2.60766 17.9515 3.20116 17.9515 4.38815V14.2365M17.9515 14.2365V14.5614C17.9515 15.7484 17.9515 16.3419 17.7205 16.7952C17.5173 17.194 17.193 17.5183 16.7943 17.7214C16.6057 17.8176 16.393 17.8736 16.1235 17.9064M14.7723 6.29551C14.7723 7.46608 13.8235 8.41494 12.6529 8.41494C11.4824 8.41494 10.5335 7.46608 10.5335 6.29551C10.5335 5.12499 11.4824 4.17609 12.6529 4.17609C13.8235 4.17609 14.7723 5.12499 14.7723 6.29551Z" stroke="white" stroke-width="1.50051" stroke-linecap="round" stroke-linejoin="round"/>
</svg>
