<svg width="20" height="20" viewBox="0 0 20 20" fill="none" xmlns="http://www.w3.org/2000/svg">
<g clip-path="url(#clip0_2507_13929)">
<path fill-rule="evenodd" clip-rule="evenodd" d="M13.3307 7.49935C13.3307 8.3834 12.9795 9.23125 12.3544 9.85637C11.7293 10.4815 10.8815 10.8327 9.9974 10.8327C9.11334 10.8327 8.26549 10.4815 7.64037 9.85637C7.01525 9.23125 6.66406 8.3834 6.66406 7.49935C6.66406 6.61529 7.01525 5.76745 7.64037 5.14233C8.26549 4.5172 9.11334 4.16602 9.9974 4.16602C10.8815 4.16602 11.7293 4.5172 12.3544 5.14233C12.9795 5.76745 13.3307 6.61529 13.3307 7.49935ZM11.6641 7.49935C11.6641 7.94138 11.4885 8.3653 11.1759 8.67786C10.8633 8.99042 10.4394 9.16602 9.9974 9.16602C9.55537 9.16602 9.13145 8.99042 8.81888 8.67786C8.50632 8.3653 8.33073 7.94138 8.33073 7.49935C8.33073 7.05732 8.50632 6.6334 8.81888 6.32084C9.13145 6.00828 9.55537 5.83268 9.9974 5.83268C10.4394 5.83268 10.8633 6.00828 11.1759 6.32084C11.4885 6.6334 11.6641 7.05732 11.6641 7.49935Z" fill="#0061FF"/>
<path fill-rule="evenodd" clip-rule="evenodd" d="M9.99479 0.833008C4.93229 0.833008 0.828125 4.93717 0.828125 9.99967C0.828125 15.0622 4.93229 19.1663 9.99479 19.1663C15.0573 19.1663 19.1615 15.0622 19.1615 9.99967C19.1615 4.93717 15.0573 0.833008 9.99479 0.833008ZM2.49479 9.99967C2.49479 11.7413 3.08896 13.3447 4.08479 14.618C4.78433 13.6998 5.68659 12.9556 6.72116 12.4436C7.75573 11.9316 8.89462 11.6656 10.049 11.6663C11.1884 11.665 12.3132 11.9239 13.3374 12.4233C14.3616 12.9227 15.2583 13.6494 15.959 14.548C16.681 13.601 17.1672 12.4957 17.3772 11.3235C17.5873 10.1513 17.5152 8.94595 17.1669 7.80716C16.8186 6.66837 16.2041 5.62888 15.3744 4.77471C14.5446 3.92053 13.5233 3.27622 12.3951 2.8951C11.2669 2.51397 10.0641 2.40698 8.88634 2.58299C7.70856 2.75899 6.58962 3.21292 5.6221 3.90722C4.65458 4.60152 3.8663 5.51623 3.32248 6.57567C2.77866 7.63511 2.49494 8.80882 2.49479 9.99967ZM9.99479 17.4997C8.27305 17.5025 6.60324 16.9101 5.26813 15.823C5.80547 15.0535 6.52079 14.4253 7.35319 13.9917C8.18559 13.5582 9.11042 13.3322 10.049 13.333C10.9758 13.3322 11.8894 13.5526 12.7139 13.9758C13.5385 14.399 14.2501 15.0128 14.7898 15.7663C13.4444 16.8888 11.747 17.5024 9.99479 17.4997Z" fill="#0061FF"/>
</g>
<defs>
<clipPath id="clip0_2507_13929">
<rect width="20" height="20" fill="white"/>
</clipPath>
</defs>
</svg>
