<svg width="18" height="17" viewBox="0 0 18 17" fill="none" xmlns="http://www.w3.org/2000/svg">
<g opacity="0.46" clip-path="url(#clip0_2890_1489)">
<path fill-rule="evenodd" clip-rule="evenodd" d="M8.29652 14.9062C7.94471 14.9062 7.64457 14.6451 7.58728 14.289C7.53452 14.001 7.33233 13.7657 7.06035 13.6758C6.83874 13.5977 6.62205 13.5057 6.41155 13.4002C6.16107 13.2687 5.86058 13.2884 5.62838 13.4513C5.34739 13.6586 4.96139 13.6265 4.71661 13.3755L3.76452 12.399C3.50829 12.1362 3.47499 11.7219 3.68582 11.4196C3.84841 11.176 3.87183 10.8618 3.74724 10.5957C3.66516 10.4108 3.59275 10.2215 3.53034 10.0287C3.44095 9.7248 3.19421 9.49721 2.89017 9.43805C2.52353 9.378 2.25285 9.05503 2.25001 8.67417V7.45256C2.24806 7.01363 2.55717 6.63819 2.97943 6.56662C3.29977 6.50412 3.56725 6.27909 3.68966 5.96911C3.72613 5.88182 3.76452 5.7952 3.80483 5.70923C3.96763 5.38778 3.94514 5.00059 3.74628 4.70123C3.4976 4.34674 3.53578 3.85968 3.8365 3.5505L4.53617 2.83289C4.88125 2.47883 5.42549 2.43301 5.82226 2.72461L5.84433 2.74036C6.14059 2.94487 6.51759 2.98192 6.84632 2.8388C7.19801 2.70897 7.45725 2.39902 7.52871 2.02275L7.53836 1.98928C7.6173 1.49116 8.03675 1.12521 8.52884 1.125H9.37343C9.87871 1.12476 10.31 1.49962 10.3927 2.01094L10.408 2.07984C10.4758 2.44029 10.7216 2.73861 11.0568 2.86734C11.3799 3.00956 11.7514 2.97242 12.0416 2.76891L12.0895 2.73347C12.4966 2.43258 13.0563 2.47886 13.4111 2.84273L14.0551 3.50423C14.3779 3.83711 14.4184 4.36057 14.1511 4.74159C13.9416 5.06006 13.9149 5.46929 14.081 5.81358L14.1223 5.91202C14.2568 6.24818 14.5479 6.49181 14.8959 6.55973C15.3508 6.63583 15.6852 7.03804 15.6867 7.51064V8.60625C15.6866 9.02303 15.3927 9.37859 14.9918 9.44691C14.6622 9.51178 14.3936 9.75659 14.2922 10.0848C14.2474 10.216 14.1975 10.3473 14.1424 10.4785C14.0144 10.767 14.0428 11.103 14.2173 11.3645C14.4476 11.6931 14.4119 12.1444 14.1329 12.4305L13.2394 13.348C12.9838 13.61 12.5808 13.6438 12.2873 13.4277C12.0422 13.2559 11.7247 13.237 11.4619 13.3785C11.2746 13.4737 11.0823 13.5581 10.886 13.6315C10.6115 13.7286 10.4091 13.9696 10.3562 14.2625C10.3002 14.6309 9.99221 14.9035 9.62868 14.9062H8.29652Z" stroke="white" stroke-width="1.47656" stroke-linecap="round" stroke-linejoin="round"/>
<path fill-rule="evenodd" clip-rule="evenodd" d="M11.2283 7.92156C11.2283 9.18992 10.2258 10.2181 8.98913 10.2181C7.75246 10.2181 6.75 9.18992 6.75 7.92156C6.75 6.65319 7.75246 5.625 8.98913 5.625C10.2258 5.625 11.2283 6.65319 11.2283 7.92156Z" stroke="white" stroke-width="1.47656" stroke-linecap="round" stroke-linejoin="round"/>
</g>
<defs>
<clipPath id="clip0_2890_1489">
<rect width="18" height="16.875" fill="white"/>
</clipPath>
</defs>
</svg>
