<svg width="20" height="20" viewBox="0 0 20 20" fill="none" xmlns="http://www.w3.org/2000/svg">
<path d="M10 1.09082C10.0056 1.09082 10.0068 1.09146 10.0078 1.0918C10.0102 1.09258 10.0271 1.09838 10.0596 1.12012C10.1331 1.1693 10.2566 1.27943 10.4375 1.51562C10.8124 2.00524 11.2426 2.77174 11.8936 3.93945L12.4561 4.94727C12.6948 5.36351 12.9565 5.75896 13.3359 6.04688C13.8482 6.43559 14.478 6.5555 15.083 6.69238L15.7197 6.83594C16.9865 7.12257 17.8096 7.31169 18.3643 7.53027C18.8984 7.74077 18.9011 7.87111 18.9014 7.87207C18.9066 7.88743 18.9652 8.01909 18.6465 8.52539C18.3166 9.04933 17.7524 9.71306 16.8906 10.7207L16.457 11.2285C16.0395 11.7167 15.6121 12.1854 15.4229 12.7939H15.4219C15.2343 13.3976 15.3157 14.0301 15.3789 14.6826L15.4443 15.3594C15.5745 16.7025 15.658 17.5909 15.6299 18.2217C15.6163 18.5262 15.578 18.6996 15.542 18.7959C15.5132 18.8729 15.4928 18.8859 15.4854 18.8916C15.4796 18.8961 15.4738 18.9048 15.4189 18.9082C15.3396 18.9131 15.1852 18.9008 14.9111 18.8223C14.3396 18.6584 13.5667 18.3067 12.3809 17.7607L11.7852 17.4863C11.2223 17.2272 10.6421 16.9336 10 16.9336C9.35792 16.9336 8.77767 17.2272 8.21484 17.4863L7.61914 17.7607C6.43334 18.3067 5.66044 18.6584 5.08887 18.8223C4.81474 18.9008 4.66043 18.9131 4.58105 18.9082C4.52601 18.9048 4.52041 18.896 4.51465 18.8916C4.50717 18.8859 4.48685 18.8729 4.45801 18.7959C4.42195 18.6996 4.38368 18.5262 4.37012 18.2217C4.34203 17.5909 4.42551 16.7025 4.55566 15.3594L4.62109 14.6826C4.68432 14.0302 4.76491 13.3978 4.57715 12.7939C4.38793 12.1854 3.96053 11.7168 3.54297 11.2285L3.10938 10.7207C2.24765 9.71305 1.68338 9.04933 1.35352 8.52539C1.03483 8.01914 1.09337 7.88745 1.09863 7.87207H1.09961C1.09991 7.8711 1.10162 7.74076 1.63574 7.53027C2.19042 7.3117 3.01344 7.12257 4.28027 6.83594L4.91699 6.69238C5.52208 6.55548 6.1527 6.43581 6.66504 6.04688C7.04416 5.75899 7.30525 5.36347 7.54395 4.94727L8.10645 3.93945C8.75737 2.77175 9.1876 2.00524 9.5625 1.51562C9.74337 1.27943 9.86694 1.1693 9.94043 1.12012C9.97292 1.09838 9.98977 1.09258 9.99219 1.0918C9.99316 1.09146 9.99437 1.09082 10 1.09082Z" stroke="white" stroke-width="2.18182"/>
</svg>
