<svg width="18" height="23" viewBox="0 0 18 23" fill="none" xmlns="http://www.w3.org/2000/svg">
<path d="M16.5 9H15V6C15 2.69175 12.3082 0 9 0C5.69175 0 3 2.69175 3 6V9H1.5C0.675 9 0 9.675 0 10.5V21C0 21.825 0.675 22.5 1.5 22.5H16.5C17.325 22.5 18 21.825 18 21V10.5C18 9.675 17.325 9 16.5 9ZM9.75 15.5422V18C9.75 18.414 9.41475 18.75 9 18.75C8.58525 18.75 8.25 18.414 8.25 18V15.5422C7.80375 15.2828 7.5 14.8042 7.5 14.25C7.5 13.4213 8.17125 12.75 9 12.75C9.82875 12.75 10.5 13.4213 10.5 14.25C10.5 14.8035 10.1962 15.282 9.75 15.5422ZM12 9H6V6C6 4.3455 7.3455 3 9 3C10.6545 3 12 4.3455 12 6V9Z" fill="white"/>
</svg>
