<svg width="21" height="21" viewBox="0 0 21 21" fill="none" xmlns="http://www.w3.org/2000/svg">
<path d="M9.89476 4.19296H14.8948C14.6353 3.54463 14.1873 2.98907 13.6087 2.59811C13.0301 2.20715 12.3475 1.99879 11.6492 1.99998H5.50878C4.5782 1.99998 3.68572 2.36965 3.0277 3.02767C2.36967 3.6857 2 4.57817 2 5.50876V12.5263C2.00102 13.3808 2.31326 14.2056 2.87833 14.8466C3.44339 15.4875 4.22259 15.9007 5.07018 16.0088V9.01754C5.0725 7.7387 5.58155 6.51289 6.48583 5.60861C7.39011 4.70433 8.61592 4.19528 9.89476 4.19296Z" fill="white" fill-opacity="0.21"/>
<path d="M16.9375 8.71875H18.7925C18.7387 8.6399 18.6771 8.56662 18.6087 8.5L15.625 5.51625C15.5606 5.44805 15.4869 5.38916 15.4062 5.34125V7.1875C15.4081 7.59305 15.57 7.98146 15.8568 8.26822C16.1435 8.55499 16.532 8.71691 16.9375 8.71875ZM16.9375 10.0312C16.1837 10.0299 15.4612 9.72981 14.9282 9.1968C14.3952 8.6638 14.0951 7.94128 14.0937 7.1875V5H9.5C8.57174 5 7.6815 5.36875 7.02513 6.02513C6.36875 6.6815 6 7.57174 6 8.5V15.5C6 16.4283 6.36875 17.3185 7.02513 17.9749C7.6815 18.6313 8.57174 19 9.5 19H15.625C16.5533 19 17.4435 18.6313 18.0999 17.9749C18.7562 17.3185 19.125 16.4283 19.125 15.5V10.0312H16.9375Z" fill="white" fill-opacity="0.21"/>
</svg>
