<svg width="18" height="18" viewBox="0 0 18 18" fill="none" xmlns="http://www.w3.org/2000/svg">
<g opacity="0.61">
<path d="M8.35387 3.54025H12.5759C12.3568 2.9928 11.9785 2.52367 11.4899 2.19355C11.0013 1.86342 10.4249 1.68748 9.83528 1.68848H4.65033C3.86454 1.68848 3.11093 2.00064 2.55529 2.55627C1.99965 3.11191 1.6875 3.86552 1.6875 4.65131V10.577C1.68836 11.2985 1.95202 11.995 2.42916 12.5362C2.90631 13.0774 3.56426 13.4263 4.27998 13.5176V7.61414C4.28193 6.53428 4.71177 5.49921 5.47535 4.73563C6.23893 3.97205 7.27401 3.54221 8.35387 3.54025Z" fill="white"/>
<path d="M14.2982 7.36278H15.8645C15.8191 7.2962 15.7671 7.23432 15.7094 7.17807L13.1899 4.65858C13.1355 4.60099 13.0733 4.55126 13.0052 4.51081V6.06979C13.0067 6.41223 13.1435 6.74021 13.3856 6.98236C13.6277 7.2245 13.9557 7.36123 14.2982 7.36278ZM14.2982 8.47106C13.6617 8.46989 13.0516 8.21653 12.6015 7.76645C12.1514 7.31638 11.8981 6.70629 11.8969 6.06979V4.22266H8.01791C7.23409 4.22266 6.48237 4.53403 5.92812 5.08828C5.37387 5.64252 5.0625 6.39425 5.0625 7.17807V13.0889C5.0625 13.8727 5.37387 14.6244 5.92812 15.1787C6.48237 15.7329 7.23409 16.0443 8.01791 16.0443H13.1899C13.9737 16.0443 14.7254 15.7329 15.2797 15.1787C15.8339 14.6244 16.1453 13.8727 16.1453 13.0889V8.47106H14.2982Z" fill="white"/>
</g>
</svg>
