<svg width="21" height="21" viewBox="0 0 21 21" fill="none" xmlns="http://www.w3.org/2000/svg">
<g opacity="0.21">
<path d="M15.1654 20.5H5.83203C5.21319 20.5 4.6197 20.2542 4.18212 19.8166C3.74453 19.379 3.4987 18.7855 3.4987 18.1667V7.66667C3.4987 7.35725 3.62161 7.0605 3.84041 6.84171C4.0592 6.62292 4.35595 6.5 4.66536 6.5H16.332C16.6415 6.5 16.9382 6.62292 17.157 6.84171C17.3758 7.0605 17.4987 7.35725 17.4987 7.66667V18.1667C17.4987 18.7855 17.2529 19.379 16.8153 19.8166C16.3777 20.2542 15.7842 20.5 15.1654 20.5ZM18.6654 4C18.6654 4.30942 18.5424 4.60617 18.3237 4.82496C18.1049 5.04375 17.8081 5.16667 17.4987 5.16667H3.4987C3.18928 5.16667 2.89253 5.04375 2.67374 4.82496C2.45495 4.60617 2.33203 4.30942 2.33203 4C2.33203 3.69058 2.45495 3.39383 2.67374 3.17504C2.89253 2.95625 3.18928 2.83333 3.4987 2.83333H6.9987V1.66667C6.9987 1.35725 7.12161 1.0605 7.34041 0.841709C7.5592 0.622916 7.85595 0.5 8.16536 0.5H12.832C13.1415 0.5 13.4382 0.622916 13.657 0.841709C13.8758 1.0605 13.9987 1.35725 13.9987 1.66667V2.83333H17.4987C17.8081 2.83333 18.1049 2.95625 18.3237 3.17504C18.5424 3.39383 18.6654 3.69058 18.6654 4Z" fill="white"/>
</g>
</svg>
