<svg width="18" height="18" viewBox="0 0 18 18" fill="none" xmlns="http://www.w3.org/2000/svg">
<g opacity="0.61">
<path d="M8.86776 9.60564C9.27582 9.60564 9.60661 9.27484 9.60661 8.86678C9.60661 8.45873 9.27582 8.12793 8.86776 8.12793C8.4597 8.12793 8.12891 8.45873 8.12891 8.86678C8.12891 9.27484 8.4597 9.60564 8.86776 9.60564Z" stroke="white" stroke-width="1.47771" stroke-linecap="round" stroke-linejoin="round"/>
<path d="M14.0357 9.60564C14.4438 9.60564 14.7746 9.27484 14.7746 8.86678C14.7746 8.45873 14.4438 8.12793 14.0357 8.12793C13.6277 8.12793 13.2969 8.45873 13.2969 8.86678C13.2969 9.27484 13.6277 9.60564 14.0357 9.60564Z" stroke="white" stroke-width="1.47771" stroke-linecap="round" stroke-linejoin="round"/>
<path d="M3.69588 9.60564C4.10394 9.60564 4.43474 9.27484 4.43474 8.86678C4.43474 8.45873 4.10394 8.12793 3.69588 8.12793C3.28783 8.12793 2.95703 8.45873 2.95703 8.86678C2.95703 9.27484 3.28783 9.60564 3.69588 9.60564Z" stroke="white" stroke-width="1.47771" stroke-linecap="round" stroke-linejoin="round"/>
</g>
</svg>
