<svg width="21" height="21" viewBox="0 0 21 21" fill="none" xmlns="http://www.w3.org/2000/svg">
<g opacity="0.21">
<path d="M12.8085 18.151C12.5818 18.3615 12.2807 18.4734 11.9715 18.462C11.6623 18.4506 11.3703 18.3168 11.1597 18.0901L8.77782 15.5256L4.03731 20.086L2 20.2284L2.4494 18.3764L7.18991 13.8159L4.80805 11.2514C4.59748 11.0247 4.48559 10.7236 4.49701 10.4144C4.50843 10.1052 4.64221 9.81315 4.86893 9.60258C5.80925 8.72923 8.148 7.99007 9.02135 8.93039L13.2955 4.96062C13.085 4.7339 12.9731 4.43283 12.9845 4.12362C12.9959 3.81441 13.1297 3.5224 13.3564 3.31183C13.5831 3.10126 13.8842 2.98938 14.1934 3.0008C14.5026 3.01221 14.7946 3.146 15.0052 3.37271L19.7689 8.50174C19.9795 8.72846 20.0914 9.02954 20.08 9.33874C20.0686 9.64795 19.9348 9.93996 19.7081 10.1505C19.4813 10.3611 19.1803 10.473 18.8711 10.4616C18.5618 10.4501 18.2698 10.3164 18.0593 10.0896L13.7851 14.0594C14.6584 14.9997 13.7488 17.2776 12.8085 18.151Z" fill="white"/>
</g>
</svg>
