<svg width="17" height="15" viewBox="0 0 17 15" fill="none" xmlns="http://www.w3.org/2000/svg">
<path d="M14.5484 2.17123C14.2079 1.83057 13.8036 1.56033 13.3586 1.37595C12.9136 1.19158 12.4367 1.09668 11.955 1.09668C11.4734 1.09668 10.9964 1.19158 10.5515 1.37595C10.1065 1.56033 9.7022 1.83057 9.36169 2.17123L8.65503 2.8779L7.94836 2.17123C7.26057 1.48344 6.32772 1.09704 5.35503 1.09704C4.38234 1.09704 3.44949 1.48344 2.76169 2.17123C2.0739 2.85902 1.6875 3.79187 1.6875 4.76456C1.6875 5.73725 2.0739 6.6701 2.76169 7.3579L3.46836 8.06456L8.65503 13.2512L13.8417 8.06456L14.5484 7.3579C14.889 7.01739 15.1593 6.61311 15.3436 6.16813C15.528 5.72316 15.6229 5.24622 15.6229 4.76456C15.6229 4.2829 15.528 3.80597 15.3436 3.36099C15.1593 2.91602 14.889 2.51173 14.5484 2.17123Z" stroke="#EB1654" stroke-width="1.71429" stroke-linecap="round" stroke-linejoin="round"/>
</svg>
