<svg width="15" height="14" viewBox="0 0 15 14" fill="none" xmlns="http://www.w3.org/2000/svg">
<path d="M2.98772 0.00146484C3.99727 0.00146484 4.76125 0.376578 5.27967 1.12681C5.79809 1.86432 6.0573 2.907 6.0573 4.25487C6.0573 5.60274 5.80491 6.65814 5.30014 7.42108C4.809 8.17131 4.0382 8.54642 2.98772 8.54642C2.34652 8.54642 1.80082 8.37476 1.35061 8.03144C0.900409 7.68811 0.559345 7.19856 0.327422 6.56277C0.109141 5.91427 0 5.14497 0 4.25487C0 2.907 0.238745 1.86432 0.716235 1.12681C1.19372 0.376578 1.95089 0.00146484 2.98772 0.00146484ZM2.98772 1.18403C2.4693 1.18403 2.08731 1.4447 1.84175 1.96604C1.60982 2.47467 1.49386 3.23761 1.49386 4.25487C1.49386 5.27213 1.60982 6.04143 1.84175 6.56277C2.08731 7.08412 2.4693 7.34479 2.98772 7.34479C3.51978 7.34479 3.91542 7.09047 4.17462 6.58185C4.43383 6.0605 4.56344 5.28484 4.56344 4.25487C4.56344 3.23761 4.43383 2.47467 4.17462 1.96604C3.91542 1.4447 3.51978 1.18403 2.98772 1.18403ZM12.3397 0.1922L4.23602 13.8107H2.6603L10.764 0.1922H12.3397ZM11.9304 5.45651C12.5989 5.45651 13.1583 5.62817 13.6085 5.97149C14.0587 6.3021 14.3997 6.7853 14.6317 7.42108C14.8772 8.04415 15 8.8071 15 9.70991C15 11.0578 14.7476 12.1132 14.2428 12.8761C13.7517 13.6264 12.9809 14.0015 11.9304 14.0015C11.2892 14.0015 10.7435 13.8298 10.2933 13.4865C9.84311 13.1432 9.50205 12.6536 9.27012 12.0178C9.05184 11.3693 8.9427 10.6 8.9427 9.70991C8.9427 8.36205 9.18145 7.31936 9.65893 6.58185C10.1364 5.83162 10.8936 5.45651 11.9304 5.45651ZM11.9304 6.65814C11.412 6.65814 11.03 6.91245 10.7844 7.42108C10.5525 7.92971 10.4366 8.69265 10.4366 9.70991C10.4366 10.7399 10.5525 11.5155 10.7844 12.0369C11.03 12.5455 11.412 12.7998 11.9304 12.7998C12.4625 12.7998 12.8581 12.5455 13.1173 12.0369C13.3765 11.5283 13.5061 10.7526 13.5061 9.70991C13.5061 8.69265 13.3765 7.92971 13.1173 7.42108C12.8581 6.91245 12.4625 6.65814 11.9304 6.65814Z" fill="#00D540"/>
</svg>
