<svg width="16" height="17" viewBox="0 0 16 17" fill="none" xmlns="http://www.w3.org/2000/svg">
<g clip-path="url(#clip0_736_12927)">
<path d="M12 6.16943C13.1046 6.16943 14 5.274 14 4.16943C14 3.06486 13.1046 2.16943 12 2.16943C10.8954 2.16943 10 3.06486 10 4.16943C10 5.274 10.8954 6.16943 12 6.16943Z" stroke="#00D540" stroke-width="1.71429" stroke-linecap="round" stroke-linejoin="round"/>
<path d="M4 10.8354C5.10457 10.8354 6 9.94002 6 8.83545C6 7.73088 5.10457 6.83545 4 6.83545C2.89543 6.83545 2 7.73088 2 8.83545C2 9.94002 2.89543 10.8354 4 10.8354Z" stroke="#00D540" stroke-width="1.71429" stroke-linecap="round" stroke-linejoin="round"/>
<path d="M12 15.5015C13.1046 15.5015 14 14.606 14 13.5015C14 12.3969 13.1046 11.5015 12 11.5015C10.8954 11.5015 10 12.3969 10 13.5015C10 14.606 10.8954 15.5015 12 15.5015Z" stroke="#00D540" stroke-width="1.71429" stroke-linecap="round" stroke-linejoin="round"/>
<path d="M5.72656 9.84131L10.2799 12.4946" stroke="#00D540" stroke-width="1.71429" stroke-linecap="round" stroke-linejoin="round"/>
<path d="M10.2732 5.17529L5.72656 7.82863" stroke="#00D540" stroke-width="1.71429" stroke-linecap="round" stroke-linejoin="round"/>
</g>
<defs>
<clipPath id="clip0_736_12927">
<rect width="16" height="16" fill="white" transform="translate(0 0.835449)"/>
</clipPath>
</defs>
</svg>
