<svg width="22" height="23" viewBox="0 0 22 23" fill="none" xmlns="http://www.w3.org/2000/svg">
<path d="M19.5051 6.36673L11.5223 14.6427C10.6515 15.5135 6.99676 16.0779 6.72677 15.8084C6.45677 15.5388 7.3056 12.1769 8.17644 11.3061L16.1685 3.02087C16.3843 2.78534 16.6457 2.59602 16.9368 2.46429C17.2279 2.33257 17.5426 2.26116 17.8621 2.25443C18.1815 2.24771 18.499 2.30577 18.7954 2.42513C19.0917 2.54449 19.3609 2.72269 19.5864 2.94892C19.812 3.17516 19.9895 3.44475 20.108 3.74144C20.2265 4.03813 20.2838 4.35576 20.2762 4.67517C20.2686 4.99458 20.1963 5.30917 20.0638 5.5999C19.9313 5.89062 19.7413 6.15149 19.5051 6.36673Z" fill="white" fill-opacity="0.72"/>
<path d="M10.0859 4.16699H5.5026C4.53014 4.16699 3.59757 4.55329 2.90993 5.24093C2.2223 5.92857 1.83594 6.86119 1.83594 7.83366V17.0003C1.83594 17.9728 2.2223 18.9054 2.90993 19.593C3.59757 20.2807 4.53014 20.667 5.5026 20.667H15.5859C17.6118 20.667 18.3359 19.017 18.3359 17.0003V12.417" stroke="white" stroke-opacity="0.72" stroke-width="1.375" stroke-linecap="round" stroke-linejoin="round"/>
</svg>
